<?xml version="1.0" encoding="UTF-8" standalone="no"?>
<!-- Created with Inkscape (http://www.inkscape.org/) -->

<svg
   xmlns:dc="http://purl.org/dc/elements/1.1/"
   xmlns:cc="http://creativecommons.org/ns#"
   xmlns:rdf="http://www.w3.org/1999/02/22-rdf-syntax-ns#"
   xmlns:svg="http://www.w3.org/2000/svg"
   xmlns="http://www.w3.org/2000/svg"
   xmlns:sodipodi="http://sodipodi.sourceforge.net/DTD/sodipodi-0.dtd"
   xmlns:inkscape="http://www.inkscape.org/namespaces/inkscape"
   id="svg2"
   version="1.1"
   inkscape:version="0.91 r13725"
   xml:space="preserve"
   width="765"
   height="990"
   viewBox="0 0 765 990"
   sodipodi:docname="171004_Rs_SepSearch_F-Surr.svg"><metadata
     id="metadata8"><rdf:RDF><cc:Work
         rdf:about=""><dc:format>image/svg+xml</dc:format><dc:type
           rdf:resource="http://purl.org/dc/dcmitype/StillImage" /><dc:title></dc:title></cc:Work></rdf:RDF></metadata><defs
     id="defs6"><clipPath
       clipPathUnits="userSpaceOnUse"
       id="clipPath20"><path
         d="m 198,507.6 216,0 0,172.8 -216,0 0,-172.8 z"
         id="path22"
         inkscape:connector-curvature="0" /></clipPath><clipPath
       clipPathUnits="userSpaceOnUse"
       id="clipPath28"><path
         d="m 198,507.6 216,0 0,172.8 -216,0 0,-172.8 z"
         id="path30"
         inkscape:connector-curvature="0" /></clipPath><clipPath
       clipPathUnits="userSpaceOnUse"
       id="clipPath100"><path
         d="m 0,396 612,0 0,396 -612,0 0,-396 z"
         id="path102"
         inkscape:connector-curvature="0" /></clipPath><clipPath
       clipPathUnits="userSpaceOnUse"
       id="clipPath116"><path
         d="m 198,507.6 216,0 0,172.8 -216,0 0,-172.8 z"
         id="path118"
         inkscape:connector-curvature="0" /></clipPath><clipPath
       clipPathUnits="userSpaceOnUse"
       id="clipPath148"><path
         d="m 198,111.6 216,0 0,172.8 -216,0 0,-172.8 z"
         id="path150"
         inkscape:connector-curvature="0" /></clipPath><clipPath
       clipPathUnits="userSpaceOnUse"
       id="clipPath156"><path
         d="m 198,111.6 216,0 0,172.8 -216,0 0,-172.8 z"
         id="path158"
         inkscape:connector-curvature="0" /></clipPath><clipPath
       clipPathUnits="userSpaceOnUse"
       id="clipPath230"><path
         d="M 0,0 612,0 612,396 0,396 0,0 Z"
         id="path232"
         inkscape:connector-curvature="0" /></clipPath><clipPath
       clipPathUnits="userSpaceOnUse"
       id="clipPath246"><path
         d="m 198,111.6 216,0 0,172.8 -216,0 0,-172.8 z"
         id="path248"
         inkscape:connector-curvature="0" /></clipPath></defs><sodipodi:namedview
     pagecolor="#ffffff"
     bordercolor="#666666"
     borderopacity="1"
     objecttolerance="10"
     gridtolerance="10"
     guidetolerance="10"
     inkscape:pageopacity="0"
     inkscape:pageshadow="2"
     inkscape:window-width="1920"
     inkscape:window-height="1017"
     id="namedview4"
     showgrid="false"
     inkscape:zoom="1.3485026"
     inkscape:cx="221.6155"
     inkscape:cy="858.54395"
     inkscape:window-x="-8"
     inkscape:window-y="-8"
     inkscape:window-maximized="1"
     inkscape:current-layer="g10" /><g
     id="g10"
     inkscape:groupmode="layer"
     inkscape:label="171004_Rs_SepSearch_F-Surr"
     transform="matrix(1.25,0,0,-1.25,0,990)"><g
       id="g16"><g
         id="g18"
         clip-path="url(#clipPath20)" /></g><g
       id="g24"
       transform="matrix(0.79581618,0,0,0.79581618,-71.442177,204.44392)"><g
         id="g26"
         clip-path="url(#clipPath28)"><path
           d="m 206,514 0.22,0 0.22,2.52 0.23,17.66 0.22,10.14 0.22,7.25 0.22,5.74 0.23,4.69 0.22,3.95 0.22,3.33 0.22,2.91 0.23,2.54 0.22,2.38 0.22,2.12 0.22,1.95 0.23,1.81 0.22,1.66 0.22,1.53 0.22,1.48 0.23,1.38 0.22,1.32 0.22,1.25 0.22,1.17 0.23,1.13 0.22,1.1 0.22,1.05 0.22,0.97 0.23,0.95 0.22,0.92 0.22,0.86 0.22,0.85 0.23,0.8 0.22,0.76 0.22,0.76 0.22,0.72 0.23,0.7 0.22,0.68 0.22,0.67 0.22,0.67 0.23,0.64 0.22,0.61 0.22,0.59 0.22,0.62 0.23,0.56 0.22,0.55 0.22,0.55 0.22,0.53 0.23,0.55 0.22,0.49 0.22,0.48 0.22,0.48 0.23,0.46 0.22,0.45 0.22,0.44 0.22,0.43 0.23,0.42 0.22,0.41 0.22,0.41 0.22,0.4 0.23,0.41 0.22,0.4 0.22,0.38 0.22,0.37 0.23,0.38 0.22,0.37 0.22,0.35 0.22,0.36 0.23,0.35 0.22,0.36 0.22,0.36 0.22,0.35 0.23,0.32 0.22,0.32 0.22,0.31 0.22,0.3 0.23,0.3 0.22,0.3 0.22,0.29 0.22,0.3 0.23,0.28 0.22,0.27 0.22,0.27 0.22,0.27 0.22,0.26 0.23,0.28 0.22,0.26 0.22,0.26 0.22,0.26 0.23,0.26 0.22,0.23 0.22,0.25 0.22,0.25 0.23,0.25 0.22,0.25 0.22,0.25 0.22,0.23 0.23,0.22 0.22,0.23 0.22,0.22 0.22,0.21 0.23,0.22 0.22,0.22 0.22,0.22 0.22,0.21 0.23,0.2 0.22,0.2 0.22,0.2 0.22,0.2 0.23,0.2 0.22,0.19 0.22,0.19 0.22,0.19 0.23,0.19 0.22,0.16 0.22,0.18 0.22,0.19 0.23,0.19 0.22,0.19 0.22,0.19 0.22,0.17 0.23,0.18 0.22,0.16 0.22,0.16 0.22,0.17 0.23,0.17 0.22,0.16 0.22,0.16 0.22,0.17 0.23,0.17 0.22,0.17 0.22,0.14 0.22,0.16 0.23,0.16 0.22,0.17 0.22,0.15 0.22,0.15 0.23,0.15 0.22,0.15 0.22,0.14 0.22,0.15 0.23,0.14 0.22,0.15 0.22,0.14 0.22,0.14 0.23,0.15 0.22,0.14 0.22,0.14 0.22,0.14 0.23,0.12 0.22,0.13 0.22,0.13 0.22,0.13 0.23,0.14 0.22,0.13 0.22,0.14 0.22,0.12 0.23,0.13 0.22,0.13 0.22,0.13 0.22,0.14 0.23,0.11 0.22,0.12 0.22,0.13 0.22,0.14 0.22,0.12 0.23,0.12 0.22,0.12 0.22,0.11 0.22,0.13 0.23,0.11 0.22,0.12 0.22,0.12 0.22,0.13 0.23,0.11 0.22,0.12 0.22,0.12 0.22,0.1 0.23,0.12 0.22,0.12 0.22,0.12 0.22,0.12 0.23,0.11 0.22,0.12 0.22,0.1 0.22,0.1 0.23,0.12 0.22,0.11 0.22,0.1 0.22,0.11 0.23,0.1 0.22,0.1 0.22,0.1 0.22,0.1 0.23,0.09 0.22,0.11 0.22,0.1 0.22,0.1 0.23,0.1 0.22,0.09 0.22,0.1 0.22,0.09 0.23,0.1 0.22,0.1 0.22,0.09 0.22,0.1 0.23,0.1 0.22,0.1 0.22,0.09 0.22,0.1 0.23,0.1 0.22,0.09 0.22,0.1 0.22,0.1 0.23,0.1 0.22,0.08 0.22,0.1 0.22,0.08 0.23,0.09 0.22,0.08 0.22,0.08 0.22,0.08 0.23,0.09 0.22,0.08 0.22,0.09 0.22,0.08 0.23,0.08 0.22,0.08 0.22,0.08 0.22,0.1 0.23,0.08 0.22,0.08 0.22,0.1 0.22,0.08 0.23,0.08 0.22,0.09 0.22,0.08 0.22,0.07 0.23,0.08 0.22,0.08 0.22,0.09 0.22,0.08 0.23,0.07 0.22,0.08 0.22,0.07 0.22,0.08 0.23,0.07 0.22,0.08 0.22,0.08 0.22,0.08 0.22,0.07 0.23,0.07 0.22,0.07 0.22,0.08 0.22,0.07 0.23,0.07 0.22,0.08 0.22,0.07 0.22,0.07 0.23,0.07 0.22,0.07 0.22,0.08 0.22,0.07 0.23,0.07 0.22,0.07 0.22,0.07 0.22,0.07 0.23,0.07 0.22,0.07 0.22,0.07 0.22,0.07 0.23,0.08 0.22,0.07 0.22,0.06 0.22,0.08 0.23,0.06 0.22,0.08 0.22,0.06 0.22,0.07 0.23,0.06 0.22,0.06 0.22,0.07 0.22,0.06 0.23,0.06 0.22,0.07 0.22,0.06 0.22,0.06 0.23,0.06 0.22,0.07 0.22,0.05 0.22,0.07 0.23,0.06 0.22,0.06 0.22,0.07 0.22,0.05 0.23,0.06 0.22,0.06 0.22,0.07 0.22,0.06 0.23,0.06 0.22,0.07 0.22,0.05 0.22,0.07 0.23,0.06 0.22,0.06 0.22,0.07 0.22,0.06 0.23,0.06 0.22,0.06 0.22,0.07 0.22,0.06 0.23,0.06 0.22,0.06 0.22,0.06 0.22,0.05 0.23,0.07 0.22,0.06 0.22,0.05 0.22,0.07 0.23,0.05 0.22,0.06 0.22,0.05 0.22,0.06 0.23,0.05 0.22,0.06 0.22,0.05 0.22,0.05 0.23,0.06 0.22,0.06 0.22,0.05 0.22,0.06 0.22,0.05 0.23,0.06 0.22,0.05 0.22,0.05 0.22,0.06 0.23,0.05 0.22,0.05 0.22,0.05 0.22,0.06 0.23,0.05 0.22,0.06 0.22,0.05 0.22,0.05 0.23,0.05 0.22,0.06 0.22,0.05 0.22,0.05 0.23,0.05 0.22,0.05 0.22,0.06 0.22,0.04 0.23,0.06 0.22,0.06 0.22,0.04 0.22,0.05 0.23,0.05 0.22,0.05 0.22,0.05 0.22,0.05 0.23,0.05 0.22,0.05 0.22,0.05 0.22,0.05 0.23,0.05 0.22,0.04 0.22,0.05 0.22,0.05 0.23,0.05 0.22,0.04 0.22,0.05 0.22,0.05 0.23,0.05 0.22,0.05 0.22,0.05 0.22,0.05 0.23,0.04 0.22,0.05 0.22,0.05 0.22,0.05 0.23,0.04 0.22,0.04 0.22,0.05 0.22,0.05 0.23,0.04 0.22,0.04 0.22,0.04 0.22,0.06 0.23,0.04 0.22,0.05 0.22,0.05 0.22,0.04 0.23,0.04 0.22,0.04 0.22,0.05 0.22,0.04 0.23,0.04 0.22,0.05 0.22,0.04 0.22,0.05 0.23,0.04 0.22,0.05 0.22,0.04 0.22,0.04 0.23,0.04 0.22,0.04 0.22,0.05 0.22,0.05 0.23,0.04 0.22,0.04 0.22,0.05 0.22,0.03 0.22,0.05 0.23,0.04 0.22,0.04 0.22,0.04 0.22,0.04 0.23,0.05 0.22,0.04 0.22,0.04 0.22,0.04 0.23,0.05 0.22,0.04 0.22,0.03 0.22,0.04 0.23,0.05 0.22,0.04 0.22,0.05 0.22,0.04 0.23,0.04 0.22,0.05 0.22,0.03 0.22,0.04 0.23,0.04 0.22,0.04 0.22,0.04 0.22,0.04 0.23,0.04 0.22,0.03 0.22,0.04 0.22,0.04 0.23,0.04 0.22,0.04 0.22,0.03 0.22,0.04 0.23,0.04 0.22,0.04 0.22,0.05 0.22,0.04 0.23,0.04 0.22,0.03 0.22,0.04 0.22,0.03 0.23,0.04 0.22,0.04 0.22,0.04 0.22,0.04 0.23,0.04 0.22,0.04 0.22,0.03 0.22,0.04 0.23,0.04 0.22,0.04 0.22,0.04 0.22,0.04 0.23,0.03 0.22,0.04 0.22,0.04 0.22,0.03 0.23,0.03 0.22,0.04 0.22,0.04 0.22,0.04 0.23,0.04 0.22,0.03 0.22,0.05 0.22,0.04 0.23,0.04 0.22,0.03 0.22,0.04 0.22,0.03 0.23,0.04 0.22,0.04 0.22,0.04 0.22,0.03 0.23,0.04 0.22,0.04 0.22,0.04 0.22,0.03 0.23,0.03 0.22,0.04 0.22,0.03 0.22,0.03 0.22,0.04 0.23,0.03 0.22,0.04 0.22,0.03 0.22,0.03 0.23,0.04 0.22,0.03 0.22,0.04 0.22,0.03 0.23,0.03 0.22,0.04 0.22,0.03 0.22,0.03 0.23,0.04 0.22,0.03 0.22,0.03 0.22,0.03 0.23,0.03 0.22,0.03 0.22,0.03 0.22,0.04 0.23,0.03 0.22,0.03 0.22,0.03 0.22,0.03 0.23,0.04 0.22,0.03 0.22,0.03 0.22,0.03 0.23,0.03 0.22,0.03 0.22,0.03 0.22,0.03 0.23,0.04 0.22,0.03 0.22,0.03 0.22,0.03 0.23,0.03 0.22,0.03 0.22,0.03 0.22,0.03 0.23,0.03 0.22,0.03 0.22,0.03 0.22,0.03 0.23,0.03 0.22,0.04 0.22,0.03 0.22,0.03 0.23,0.02 0.22,0.03 0.22,0.03 0.22,0.03 0.23,0.03 0.22,0.02 0.22,0.03 0.22,0.04 0.23,0.03 0.22,0.03 0.22,0.03 0.22,0.02 0.23,0.03 0.22,0.03 0.22,0.02 0.22,0.03 0.23,0.03 0.22,0.03 0.22,0.02 0.22,0.03 0.23,0.03 0.22,0.03 0.22,0.03 0.22,0.02 0.23,0.03 0.22,0.03 0.22,0.03 0.22,0.03 0.23,0.02 0.22,0.03 0.22,0.02 0.22,0.03 0.22,0.03 0.23,0.02 0.22,0.02 0.22,0.03 0.22,0.02 0.23,0.03 0.22,0.02 0.22,0.02 0.22,0.03 0.23,0.04 0.22,0.02 0.22,0.02 0.22,0.02 0.23,0.03 0.22,0.03 0.22,0.02 0.22,0.03 0.23,0.02 0.22,0.03 0.22,0.02 0.22,0.03 0.23,0.02 0.22,0.03 0.22,0.02 0.22,0.03 0.23,0.02 0.22,0.02 0.22,0.02 0.22,0.02 0.23,0.02 0.22,0.03 0.22,0.02 0.22,0.02 0.23,0.03 0.22,0.02 0.22,0.02 0.22,0.02 0.23,0.02 0.22,0.02 0.22,0.03 0.22,0.02 0.23,0.02 0.22,0.03 0.22,0.02 0.22,0.02 0.23,0.02 0.22,0.03 0.22,0.02 0.22,0.02 0.23,0.02 0.22,0.02 0.22,0.03 0.22,0.02 0.23,0.02 0.22,0.02 0.22,0.03 0.22,0.02 0.23,0.02 0.22,0.02 0.22,0.02 0.22,0.02 0.23,0.02 0.22,0.01 0.22,0.02 0.22,0.02 0.23,0.03 0.22,0.02 0.22,0.02 0.22,0.02 0.23,0.02 0.22,0.02 0.22,0.01 0.22,0.02 0.23,0.02 0.22,0.02 0.22,0.02 0.22,0.01 0.23,0.03 0.22,0.01 0.22,0.02 0.22,0.02 0.22,0.02 0.23,0.01 0.22,0.02 0.22,0.02 0.22,0.02 0.23,0.01 0.22,0.02 0.22,0.02 0.22,0.01 0.23,0.02 0.22,0.02 0.22,0.02 0.22,0.01 0.23,0.02 0.22,0.01 0.22,0.02 0.22,0.01 0.23,0.02 0.22,0.02 0.22,0.01 0.22,0.02 0.23,0.01 0.22,0.01 0.22,0.02 0.22,0.01 0.23,0.02 0.22,0.01 0.22,0.02 0.22,0.01 0.23,0.02 0.22,0.01 0.22,0.02 0.22,0.01 0.23,0.02 0.22,0.02 0.22,0.01 0.22,0.01 0.23,0.02 0.22,0.01 0.22,0.01 0.22,0.01 0.23,0.01 0.22,0.01 0.22,0.01 0.22,0.01 0.23,0.02 0.22,0.01 0.22,0.01 0.22,0.02 0.23,0.01 0.22,0.01 0.22,0.01 0.22,0.02 0.23,0.01 0.22,0.01 0.22,0.01 0.22,0.01 0.23,0.01 0.22,0.01 0.22,0.01 0.22,0.01 0.23,0.01 0.22,0.01 0.22,0.01 0.22,0.01 0.23,0 0.22,0.01 0.22,0.01 0.22,0.01 0.23,0.01 0.22,0.01 0.22,0 0.22,0.01 0.23,0.01 0.22,0.01 0.22,0.01 0.22,0.01 0.23,0.01 0.22,0 0.22,0.01 0.22,0.01 0.23,0.01 0.22,0.01 0.22,0 0.22,0.01 0.22,0.01 0.23,0 0.22,0.01 0.22,0.01 0.22,0 0.23,0.01 0.22,0.01 0.22,0 0.22,0.01 0.23,0.01 0.22,0 0.22,0.01 0.22,0.01 0.23,0 0.22,0.01 0.22,0 0.22,0.01 0.23,0.01 0.22,0 0.22,0.01 0.22,0 0.23,0.01 0.22,0 0.22,0 0.22,0.01 0.23,0 0.22,0.01 0.22,0 0.22,0 0.23,0.01 0.22,0 0.22,0 0.22,0.01 0.23,0 0.22,0 0.22,0 0.22,0.01 0.23,0 0.22,0 0.22,0 0.22,0.01 0.23,0 0.22,0 0.22,0.01 0.22,0 0.23,0 0.22,0 0.22,0 0.22,0.01 0.23,0 0.22,0 0.22,0 0.22,0.01 0.23,0 0.22,0 0.22,0 0.22,0 0.23,0 0.22,0 0.22,0 0.22,0 0.23,0.01 0.22,0 0.22,0 0.22,0 0.23,0 0.22,0 0.22,0 0.22,0 0.23,0 0.22,0.01 0.22,0 0.22,0 0.23,0 0.22,0 0.22,0 0.22,0 0.23,0 0.22,0 0.22,0 0.22,0 0.22,0 0.23,0 0.22,0 0.22,0 0.22,0 0.23,0 0.22,0 0.22,0 0.22,0 0.23,0 0.22,0.01 0.22,0 0.22,0 0.23,0 0.22,0 0.22,0 0.22,0 0.23,0 0.22,0 0.22,0 0.22,0 0.23,0 0.22,0 0.22,0 0.22,0 0.23,0 0.22,0 0.22,0 0.22,0 0.23,0 0.22,0 0.22,0 0.22,0 0.23,0 0.22,0 0.22,0 0.22,0 0.23,0 0.22,0 0.22,0 0.22,0 0.23,0 0.22,0 0.22,0 0.22,0 0.23,0 0.22,0 0.22,0 0.22,0 0.23,0 0.22,0 0.22,0 0.22,0 0.23,0 0.22,0 0.22,0 0.22,0 0.23,0 0.22,0 0.22,0 0.22,0 0.23,0 0.22,0 0.22,0 0.22,0 0.23,0 0.22,0 0.22,0 0.22,0 0.23,0 0.22,0 0.22,0 0.22,0 0.23,0 0.22,0 0.22,0 0.22,0 0.23,0 0.22,0 0.22,0"
           style="fill:none;stroke:#000000;stroke-width:0.75;stroke-linecap:round;stroke-linejoin:round;stroke-miterlimit:10;stroke-dasharray:none;stroke-opacity:1"
           id="path32"
           inkscape:connector-curvature="0" /></g></g><path
       inkscape:connector-curvature="0"
       id="path38"
       style="fill:none;stroke:#000000;stroke-width:0.59686214;stroke-linecap:round;stroke-linejoin:round;stroke-miterlimit:10;stroke-dasharray:none;stroke-opacity:1"
       d="m 92.320874,608.40021 0,-5.72987" /><path
       inkscape:connector-curvature="0"
       id="path40"
       style="fill:none;stroke:#000000;stroke-width:0.59686214;stroke-linecap:round;stroke-linejoin:round;stroke-miterlimit:10;stroke-dasharray:none;stroke-opacity:1"
       d="m 136.57621,608.40021 0,-5.72987" /><path
       inkscape:connector-curvature="0"
       id="path42"
       style="fill:none;stroke:#000000;stroke-width:0.59686214;stroke-linecap:round;stroke-linejoin:round;stroke-miterlimit:10;stroke-dasharray:none;stroke-opacity:1"
       d="m 180.83951,608.40021 0,-5.72987" /><path
       inkscape:connector-curvature="0"
       id="path44"
       style="fill:none;stroke:#000000;stroke-width:0.59686214;stroke-linecap:round;stroke-linejoin:round;stroke-miterlimit:10;stroke-dasharray:none;stroke-opacity:1"
       d="m 225.1028,608.40021 0,-5.72987" /><path
       inkscape:connector-curvature="0"
       id="path64"
       style="fill:none;stroke:#000000;stroke-width:0.59686214;stroke-linecap:round;stroke-linejoin:round;stroke-miterlimit:10;stroke-dasharray:none;stroke-opacity:1"
       d="m 86.129424,613.49344 -5.72987,0" /><path
       inkscape:connector-curvature="0"
       id="path66"
       style="fill:none;stroke:#000000;stroke-width:0.59686214;stroke-linecap:round;stroke-linejoin:round;stroke-miterlimit:10;stroke-dasharray:none;stroke-opacity:1"
       d="m 86.129424,642.0712 -5.72987,0" /><path
       inkscape:connector-curvature="0"
       id="path68"
       style="fill:none;stroke:#000000;stroke-width:0.59686214;stroke-linecap:round;stroke-linejoin:round;stroke-miterlimit:10;stroke-dasharray:none;stroke-opacity:1"
       d="m 86.129424,670.64895 -5.72987,0" /><path
       inkscape:connector-curvature="0"
       id="path70"
       style="fill:none;stroke:#000000;stroke-width:0.59686214;stroke-linecap:round;stroke-linejoin:round;stroke-miterlimit:10;stroke-dasharray:none;stroke-opacity:1"
       d="m 86.129424,699.21876 -5.72987,0" /><path
       inkscape:connector-curvature="0"
       id="path72"
       style="fill:none;stroke:#000000;stroke-width:0.59686214;stroke-linecap:round;stroke-linejoin:round;stroke-miterlimit:10;stroke-dasharray:none;stroke-opacity:1"
       d="m 86.129424,727.79651 -5.72987,0" /><path
       inkscape:connector-curvature="0"
       id="path94"
       style="fill:none;stroke:#000000;stroke-width:0.59686214;stroke-linecap:round;stroke-linejoin:round;stroke-miterlimit:10;stroke-dasharray:none;stroke-opacity:1"
       d="m 86.129424,608.40021 171.896296,0 0,137.51704 -171.896296,0 0,-137.51704" /><path
       d="m 92.495956,613.49344 0.17508,0 0.175079,0.44565 0.183038,7.92633 0.175079,14.30082 0.17508,8.53911 0.17508,5.44338 0.183037,3.86767 0.17508,3.11164 0.175079,2.63415 0.17508,2.31582 0.183038,2.07708 0.175079,1.85426 0.17508,1.70304 0.175079,1.56776 0.183038,1.49614 0.17508,1.37676 0.175079,1.24943 0.17508,1.2176 0.183038,1.15393 0.175079,1.10619 0.17508,1.05843 0.175079,0.98681 0.183038,0.92315 0.175079,0.91519 0.17508,0.86744 0.17508,0.8356 0.183037,0.79582 0.17508,0.78786 0.175079,0.71623 0.17508,0.7242 0.183038,0.6844 0.175079,0.66848 0.17508,0.65257 0.175079,0.59687 0.183038,0.59686 0.17508,0.57299 0.175079,0.57298 0.17508,0.55707 0.183038,0.54912 0.175079,0.50932 0.17508,0.51728 0.175079,0.50932 0.183041,0.46953 0.17508,0.46158 0.17508,0.45361 0.17508,0.45362 0.18303,0.42974 0.17508,0.44566 0.17508,0.43769 0.17508,0.40587 0.18304,0.39791 0.17508,0.40587 0.17508,0.38199 0.17508,0.3979 0.18304,0.37404 0.17508,0.35016 0.17508,0.3422 0.17507,0.32628 0.18304,0.35016 0.17508,0.33425 0.17508,0.33424 0.17508,0.32628 0.18304,0.32629 0.17508,0.30241 0.17508,0.30241 0.17508,0.29445 0.18304,0.30241 0.17507,0.28649 0.17508,0.2865 0.17508,0.28649 0.18304,0.26262 0.17508,0.26262 0.17508,0.25466 0.17508,0.27854 0.18304,0.25466 0.17508,0.2467 0.17508,0.23875 0.17508,0.25466 0.18303,0.22283 0.17508,0.23874 0.17508,0.23079 0.17508,0.23078 0.17508,0.22283 0.18304,0.21487 0.17508,0.21487 0.17508,0.21487 0.17508,0.22283 0.18304,0.20691 0.17508,0.20692 0.17508,0.21487 0.17508,0.21487 0.18303,0.19099 0.17508,0.19896 0.17508,0.19895 0.17508,0.19895 0.18304,0.19896 0.17508,0.18304 0.17508,0.19895 0.17508,0.17508 0.18304,0.191 0.17508,0.19099 0.17508,0.191 0.17507,0.18304 0.18304,0.18303 0.17508,0.16712 0.17508,0.17508 0.17508,0.17508 0.18304,0.16713 0.17508,0.16712 0.17508,0.1512 0.17508,0.18304 0.18304,0.15916 0.17507,0.16712 0.17508,0.15917 0.17508,0.15916 0.18304,0.14325 0.17508,0.15916 0.17508,0.14325 0.17508,0.15916 0.18304,0.15121 0.17508,0.14324 0.17508,0.15917 0.17508,0.15916 0.18303,0.1512 0.17508,0.15121 0.17508,0.12733 0.17508,0.15121 0.18304,0.12733 0.17508,0.12733 0.17508,0.13529 0.17508,0.12733 0.18304,0.14324 0.17508,0.12733 0.17508,0.12733 0.17508,0.12733 0.18303,0.13529 0.17508,0.12733 0.17508,0.11938 0.17508,0.11937 0.18304,0.11937 0.17508,0.12733 0.17508,0.12733 0.17508,0.11142 0.18304,0.11937 0.17508,0.11937 0.17508,0.11142 0.17508,0.11937 0.18303,0.11141 0.17508,0.11142 0.17508,0.11141 0.17508,0.13529 0.18304,0.11141 0.17508,0.11938 0.17508,0.11141 0.17508,0.11937 0.18304,0.11142 0.17508,0.10345 0.17507,0.10346 0.17508,0.11937 0.18304,0.10346 0.17508,0.11141 0.17508,0.10346 0.17508,0.10345 0.17508,0.11142 0.18304,0.0955 0.17508,0.0955 0.17508,0.10346 0.17508,0.11141 0.18303,0.0955 0.17508,0.0955 0.17508,0.0796 0.17508,0.10346 0.18304,0.10345 0.17508,0.0875 0.17508,0.10346 0.17508,0.10346 0.18304,0.0955 0.17508,0.10346 0.17508,0.0875 0.17508,0.0955 0.18303,0.0955 0.17508,0.10345 0.17508,0.0875 0.17508,0.0955 0.18304,0.0875 0.17508,0.0875 0.17508,0.0955 0.17508,0.0796 0.18304,0.0955 0.17508,0.0875 0.17508,0.0955 0.17508,0.0875 0.18303,0.0875 0.17508,0.0796 0.17508,0.0875 0.17508,0.0955 0.18304,0.0875 0.17508,0.0796 0.17508,0.0796 0.17508,0.0875 0.18304,0.0716 0.17508,0.0716 0.17507,0.0875 0.17508,0.0716 0.18304,0.0796 0.17508,0.0796 0.17508,0.0716 0.17508,0.0875 0.18304,0.0796 0.17508,0.0716 0.17508,0.0716 0.17508,0.0796 0.18303,0.0716 0.17508,0.0716 0.17508,0.0716 0.17508,0.0716 0.18304,0.0796 0.17508,0.0796 0.17508,0.0637 0.17508,0.0796 0.18304,0.0716 0.17508,0.0796 0.17508,0.0716 0.17508,0.0796 0.18303,0.0716 0.17508,0.0716 0.17508,0.0716 0.17508,0.0796 0.18304,0.0637 0.17508,0.0637 0.17508,0.0716 0.17508,0.0716 0.18304,0.0716 0.17508,0.0716 0.17508,0.0637 0.17508,0.0716 0.18303,0.0637 0.17508,0.0637 0.17508,0.0716 0.17508,0.0716 0.18304,0.0637 0.17508,0.0637 0.17508,0.0716 0.17508,0.0637 0.18304,0.0716 0.17508,0.0637 0.17508,0.0716 0.17507,0.0637 0.17508,0.0637 0.18304,0.0637 0.17508,0.0637 0.17508,0.0637 0.17508,0.0637 0.18304,0.0557 0.17508,0.0716 0.17508,0.0557 0.17508,0.0637 0.18303,0.0557 0.17508,0.0716 0.17508,0.0637 0.17508,0.0637 0.18304,0.0557 0.17508,0.0557 0.17508,0.0557 0.17508,0.0637 0.18304,0.0637 0.17508,0.0637 0.17508,0.0557 0.17508,0.0637 0.18303,0.0557 0.17508,0.0557 0.17508,0.0557 0.17508,0.0557 0.18304,0.0637 0.17508,0.0557 0.17508,0.0557 0.17508,0.0637 0.18304,0.0557 0.17508,0.0557 0.17508,0.0477 0.17508,0.0557 0.18303,0.0557 0.17508,0.0557 0.17508,0.0477 0.17508,0.0557 0.18304,0.0557 0.17508,0.0557 0.17508,0.0477 0.17508,0.0557 0.18304,0.0477 0.17508,0.0716 0.17508,0.0477 0.17507,0.0478 0.18304,0.0557 0.17508,0.0557 0.17508,0.0478 0.17508,0.0557 0.18304,0.0557 0.17508,0.0477 0.17508,0.0557 0.17508,0.0477 0.18304,0.0557 0.17507,0.0557 0.17508,0.0478 0.17508,0.0477 0.18304,0.0477 0.17508,0.0557 0.17508,0.0478 0.17508,0.0637 0.18304,0.0557 0.17508,0.0398 0.17508,0.0477 0.17508,0.0477 0.18303,0.0478 0.17508,0.0477 0.17508,0.0557 0.17508,0.0478 0.18304,0.0477 0.17508,0.0478 0.17508,0.0477 0.17508,0.0557 0.18304,0.0478 0.17508,0.0477 0.17508,0.0477 0.17508,0.0398 0.18303,0.0478 0.17508,0.0477 0.17508,0.0477 0.17508,0.0477 0.17508,0.0477 0.18304,0.0557 0.17508,0.0318 0.17508,0.0478 0.17508,0.0318 0.18304,0.0398 0.17508,0.0478 0.17508,0.0398 0.17507,0.0477 0.18304,0.0398 0.17508,0.0477 0.17508,0.0477 0.17508,0.0398 0.18304,0.0398 0.17508,0.0477 0.17508,0.0398 0.17508,0.0477 0.18304,0.0477 0.17507,0.0398 0.17508,0.0477 0.17508,0.0398 0.18304,0.0398 0.17508,0.0477 0.17508,0.0318 0.17508,0.0477 0.18304,0.0477 0.17508,0.0398 0.17508,0.0398 0.17508,0.0477 0.18303,0.0477 0.17508,0.0398 0.17508,0.0477 0.17508,0.0398 0.18304,0.0477 0.17508,0.0398 0.17508,0.0477 0.17508,0.0398 0.18304,0.0318 0.17508,0.0478 0.17508,0.0398 0.17508,0.0398 0.18303,0.0398 0.17508,0.0398 0.17508,0.0398 0.17508,0.0398 0.18304,0.0398 0.17508,0.0398 0.17508,0.0477 0.17508,0.0318 0.18304,0.0398 0.17508,0.0398 0.17508,0.0398 0.17508,0.0477 0.18303,0.0398 0.17508,0.0398 0.17508,0.0318 0.17508,0.0398 0.18304,0.0398 0.17508,0.0398 0.17508,0.0398 0.17508,0.0398 0.18304,0.0398 0.17508,0.0318 0.17507,0.0398 0.17508,0.0318 0.18304,0.0398 0.17508,0.0318 0.17508,0.0318 0.17508,0.0398 0.18304,0.0398 0.17508,0.0398 0.17508,0.0318 0.17508,0.0398 0.18303,0.0318 0.17508,0.0398 0.17508,0.0318 0.17508,0.0318 0.18304,0.0398 0.17508,0.0398 0.17508,0.0318 0.17508,0.0398 0.17508,0.0398 0.18304,0.0318 0.17508,0.0398 0.17508,0.0318 0.17508,0.0398 0.18303,0.0318 0.17508,0.0398 0.17508,0.0398 0.17508,0.0318 0.18304,0.0398 0.17508,0.0477 0.17508,0.0318 0.17508,0.0318 0.18304,0.0318 0.17508,0.0318 0.17508,0.0318 0.17508,0.0398 0.18303,0.0398 0.17508,0.0398 0.17508,0.0398 0.17508,0.0398 0.18304,0.0318 0.17508,0.0318 0.17508,0.0398 0.17508,0.0318 0.18304,0.0318 0.17508,0.0318 0.17507,0.0398 0.17508,0.0398 0.18304,0.0239 0.17508,0.0318 0.17508,0.0318 0.17508,0.0398 0.18304,0.0318 0.17508,0.0318 0.17508,0.0318 0.17508,0.0318 0.18303,0.0318 0.17508,0.0239 0.17508,0.0318 0.17508,0.0398 0.18304,0.0239 0.17508,0.0477 0.17508,0.0318 0.17508,0.0318 0.18304,0.0318 0.17508,0.0318 0.17508,0.0398 0.17508,0.0318 0.18303,0.0239 0.17508,0.0318 0.17508,0.0318 0.17508,0.0239 0.18304,0.0318 0.17508,0.0398 0.17508,0.0239 0.17508,0.0318 0.18304,0.0398 0.17508,0.0318 0.17508,0.0239 0.17508,0.0398 0.18303,0.0318 0.17508,0.0239 0.17508,0.0318 0.17508,0.0318 0.18304,0.0318 0.17508,0.0239 0.17508,0.0318 0.17508,0.0318 0.18304,0.0318 0.17508,0.0239 0.17508,0.0318 0.17507,0.0239 0.18304,0.0318 0.17508,0.0239 0.17508,0.0318 0.17508,0.0318 0.18304,0.0318 0.17508,0.0239 0.17508,0.0318 0.17508,0.0318 0.17508,0.0239 0.18303,0.0318 0.17508,0.0318 0.17508,0.0318 0.17508,0.0318 0.18304,0.0239 0.17508,0.0318 0.17508,0.0318 0.17508,0.0318 0.18304,0.0239 0.17508,0.0318 0.17508,0.0239 0.17508,0.0239 0.18303,0.0318 0.17508,0.0318 0.17508,0.0239 0.17508,0.0318 0.18304,0.0239 0.17508,0.0239 0.17508,0.0318 0.17508,0.0239 0.18304,0.0318 0.17508,0.0239 0.17508,0.0239 0.17508,0.0318 0.18303,0.0239 0.17508,0.0239 0.17508,0.0239 0.17508,0.0239 0.18304,0.0239 0.17508,0.0239 0.17508,0.0318 0.17508,0.0239 0.18304,0.0318 0.17508,0.0318 0.17508,0.0239 0.17507,0.0318 0.18304,0.0239 0.17508,0.0239 0.17508,0.0318 0.17508,0.0239 0.18304,0.0239 0.17508,0.0239 0.17508,0.0239 0.17508,0.0239 0.18304,0.0318 0.17507,0.0318 0.17508,0.0239 0.17508,0.0239 0.18304,0.0318 0.17508,0.0239 0.17508,0.0318 0.17508,0.0239 0.18304,0.0239 0.17508,0.0239 0.17508,0.0239 0.17508,0.0318 0.18303,0.0239 0.17508,0.0239 0.17508,0.0239 0.17508,0.0318 0.18304,0.0239 0.17508,0.0239 0.17508,0.0239 0.17508,0.0239 0.18304,0.0318 0.17508,0.0239 0.17508,0.0239 0.17508,0.0318 0.18303,0.0239 0.17508,0.0239 0.17508,0.0239 0.17508,0.0239 0.18304,0.0239 0.17508,0.0239 0.17508,0.0239 0.17508,0.0239 0.18304,0.0239 0.17508,0.0239 0.17508,0.0239 0.17507,0.0159 0.17508,0.0318 0.18304,0.0239 0.17508,0.0239 0.17508,0.0239 0.17508,0.0239 0.18304,0.0239 0.17508,0.0239 0.17508,0.0239 0.17508,0.0239 0.18304,0.0239 0.17507,0.0318 0.17508,0.0239 0.17508,0.0239 0.18304,0.0318 0.17508,0.0239 0.17508,0.0159 0.17508,0.0239 0.18304,0.0318 0.17508,0.0239 0.17508,0.0239 0.17508,0.0239 0.18303,0.0239 0.17508,0.0239 0.17508,0.0239 0.17508,0.008 0.18304,0.0239 0.17508,0.0159 0.17508,0.0159 0.17508,0.0239 0.18304,0.0239 0.17508,0.0239 0.17508,0.0239 0.17508,0.0159 0.18303,0.0159 0.17508,0.0239 0.17508,0.0239 0.17508,0.0159 0.18304,0.0239 0.17508,0.0239 0.17508,0.0159 0.17508,0.0239 0.18304,0.0239 0.17508,0.0159 0.17508,0.0239 0.17507,0.0159 0.18304,0.0239 0.17508,0.0159 0.17508,0.0239 0.17508,0.0239 0.18304,0.0159 0.17508,0.0239 0.17508,0.0239 0.17508,0.0239 0.18304,0.0159 0.17508,0.0239 0.17507,0.0159 0.17508,0.0239 0.18304,0.0239 0.17508,0.0159 0.17508,0.0159 0.17508,0.0239 0.18304,0.0159 0.17508,0.0239 0.17508,0.0159 0.17508,0.0239 0.18303,0.0159 0.17508,0.0239 0.17508,0.0239 0.17508,0.0159 0.18304,0.0239 0.17508,0.0159 0.17508,0.0239 0.17508,0.0159 0.18304,0.0239 0.17508,0.0159 0.17508,0.0159 0.17508,0.0239 0.18303,0.0159 0.17508,0.0159 0.17508,0.0239 0.17508,0.0159 0.17508,0.0239 0.18304,0.0159 0.17508,0.0159 0.17508,0.0159 0.17508,0.0159 0.18304,0.0239 0.17508,0.0159 0.17508,0.0159 0.17507,0.0159 0.18304,0.0239 0.17508,0.0159 0.17508,0.0159 0.17508,0.0239 0.18304,0.0159 0.17508,0.0159 0.17508,0.0239 0.17508,0.008 0.18304,0.0239 0.17507,0.0159 0.17508,0.0159 0.17508,0.0159 0.18304,0.0159 0.17508,0.0159 0.17508,0.0159 0.17508,0.0159 0.18304,0.0159 0.17508,0.0159 0.17508,0.0159 0.17508,0.0159 0.18303,0.0159 0.17508,0.0159 0.17508,0.0159 0.17508,0.0159 0.18304,0.0159 0.17508,0.0159 0.17508,0.0159 0.17508,0.008 0.18304,0.0159 0.17508,0.0159 0.17508,0.0159 0.17508,0.008 0.18303,0.0159 0.17508,0.0159 0.17508,0.008 0.17508,0.0159 0.18304,0.0159 0.17508,0.008 0.17508,0.0159 0.17508,0.0159 0.18304,0.008 0.17508,0.0159 0.17508,0.0159 0.17508,0.0159 0.18303,0.008 0.17508,0.0159 0.17508,0.008 0.17508,0.0159 0.18304,0.008 0.17508,0.0159 0.17508,0.008 0.17508,0.0159 0.18304,0.008 0.17508,0.0159 0.17507,0.008 0.17508,0.0159 0.18304,0.008 0.17508,0.0159 0.17508,0.0159 0.17508,0.008 0.18304,0.0159 0.17508,0 0.17508,0.0159 0.17508,0.008 0.18304,0.008 0.17507,0.0159 0.17508,0.008 0.17508,0.0159 0.18304,0.008 0.17508,0.0159 0.17508,0.008 0.17508,0.008 0.18304,0.008 0.17508,0.008 0.17508,0.008 0.17508,0.0159 0.17508,0.008 0.18303,0.008 0.17508,0.008 0.17508,0.0159 0.17508,0.008 0.18304,0.008 0.17508,0.008 0.17508,0.008 0.17508,0.008 0.18304,0.008 0.17508,0.008 0.17508,0.008 0.17508,0.008 0.18303,0.008 0.17508,0.008 0.17508,0.008 0.17508,0.008 0.18304,0.008 0.17508,0.008 0.17508,0 0.17508,0.008 0.18304,0.008 0.17508,0.008 0.17507,0.008 0.17508,0 0.18304,0.008 0.17508,0.008 0.17508,0.008 0.17508,0.008 0.18304,0 0.17508,0.008 0.17508,0 0.17508,0.008 0.18303,0 0.17508,0.008 0.17508,0.008 0.17508,0 0.18304,0.008 0.17508,0.008 0.17508,0 0.17508,0.008 0.18304,0 0.17508,0.008 0.17508,0 0.17508,0.008 0.18303,0 0.17508,0.008 0.17508,0.008 0.17508,0 0.18304,0 0.17508,0.008 0.17508,0 0.17508,0 0.18304,0.008 0.17508,0 0.17508,0 0.17508,0.008 0.18303,0 0.17508,0.008 0.17508,0 0.17508,0 0.18304,0.008 0.17508,0 0.17508,0 0.17508,0.008 0.18304,0 0.17508,0 0.17508,0 0.17507,0.008 0.18304,0 0.17508,0 0.17508,0 0.17508,0 0.18304,0 0.17508,0.008 0.17508,0 0.17508,0 0.18304,0 0.17507,0 0.17508,0 0.17508,0 0.17508,0 0.18304,0.008 0.17508,0 0.17508,0 0.17508,0 0.18304,0 0.17508,0 0.17508,0 0.17508,0 0.18303,0 0.17508,0 0.17508,0 0.17508,0 0.18304,0 0.17508,0.008 0.17508,0 0.17508,0 0.18304,0 0.17508,0 0.17508,0 0.17508,0 0.18303,0 0.17508,0 0.17508,0 0.17508,0 0.18304,0 0.17508,0 0.17508,0 0.17508,0 0.18304,0 0.17508,0 0.17508,0 0.17507,0 0.18304,0 0.17508,0 0.17508,0 0.17508,0 0.18304,0 0.17508,0 0.17508,0 0.17508,0 0.18304,0 0.17507,0 0.17508,0 0.17508,0 0.18304,0 0.17508,0 0.17508,0 0.17508,0 0.18304,0 0.17508,0 0.17508,0 0.17508,0 0.18303,0 0.17508,0 0.17508,0 0.17508,0 0.18304,0 0.17508,0 0.17508,0 0.17508,0 0.18304,0 0.17508,0 0.17508,0 0.17508,0 0.18303,0 0.17508,0 0.17508,0 0.17508,0 0.18304,0 0.17508,0 0.17508,0 0.17508,0 0.18304,0 0.17508,0 0.17508,0 0.17508,0 0.18303,0 0.17508,0 0.17508,0"
       style="fill:none;stroke:#ff0000;stroke-width:0.59686213;stroke-linecap:round;stroke-linejoin:round;stroke-miterlimit:10;stroke-dasharray:3.58117275,3.58117275;stroke-dashoffset:0;stroke-opacity:1"
       id="path120"
       inkscape:connector-curvature="0" /><path
       d="m 92.495956,613.49344 0.17508,0 0.175079,0.0796 0.183038,9.10414 0.175079,12.70122 0.17508,9.05639 0.17508,5.706 0.183037,3.95521 0.17508,3.07981 0.175079,2.65006 0.17508,2.26808 0.183038,2.02933 0.175079,1.87017 0.17508,1.66326 0.175079,1.57571 0.183038,1.43247 0.17508,1.3688 0.175079,1.27331 0.17508,1.22556 0.183038,1.1221 0.175079,1.09822 0.17508,1.02661 0.175079,1.00273 0.183038,0.9311 0.175079,0.8754 0.17508,0.85948 0.17508,0.85152 0.183037,0.79582 0.17508,0.76398 0.175079,0.70828 0.17508,0.67644 0.183038,0.70828 0.175079,0.66053 0.17508,0.5889 0.175079,0.61278 0.183038,0.58095 0.17508,0.57298 0.175079,0.56503 0.17508,0.52524 0.183038,0.52524 0.175079,0.50932 0.17508,0.5332 0.175079,0.47749 0.183041,0.50136 0.17508,0.46158 0.17508,0.46157 0.17508,0.44566 0.18303,0.44565 0.17508,0.42974 0.17508,0.42975 0.17508,0.40586 0.18304,0.37404 0.17508,0.38199 0.17508,0.36607 0.17508,0.36608 0.18304,0.37403 0.17508,0.35812 0.17508,0.33424 0.17507,0.33424 0.18304,0.34221 0.17508,0.32628 0.17508,0.31833 0.17508,0.30241 0.18304,0.30241 0.17508,0.30241 0.17508,0.29445 0.17508,0.29445 0.18304,0.27854 0.17507,0.28649 0.17508,0.26262 0.17508,0.28649 0.18304,0.27058 0.17508,0.27058 0.17508,0.25466 0.17508,0.25466 0.18304,0.26262 0.17508,0.25466 0.17508,0.26262 0.17508,0.23079 0.18303,0.22283 0.17508,0.23874 0.17508,0.23875 0.17508,0.22282 0.17508,0.22283 0.18304,0.21487 0.17508,0.22283 0.17508,0.22283 0.17508,0.21487 0.18304,0.20691 0.17508,0.19896 0.17508,0.19895 0.17508,0.19895 0.18303,0.21488 0.17508,0.19895 0.17508,0.191 0.17508,0.19895 0.18304,0.19895 0.17508,0.191 0.17508,0.17508 0.17508,0.18304 0.18304,0.18303 0.17508,0.191 0.17508,0.18304 0.17507,0.16712 0.18304,0.16712 0.17508,0.16712 0.17508,0.18304 0.17508,0.16712 0.18304,0.16712 0.17508,0.15917 0.17508,0.17508 0.17508,0.15916 0.18304,0.16712 0.17507,0.14325 0.17508,0.15916 0.17508,0.15916 0.18304,0.15917 0.17508,0.1512 0.17508,0.15121 0.17508,0.15916 0.18304,0.14325 0.17508,0.13529 0.17508,0.14324 0.17508,0.14325 0.18303,0.1512 0.17508,0.14325 0.17508,0.13529 0.17508,0.12733 0.18304,0.13529 0.17508,0.13529 0.17508,0.12733 0.17508,0.14325 0.18304,0.11937 0.17508,0.13529 0.17508,0.12733 0.17508,0.12733 0.18303,0.13529 0.17508,0.11937 0.17508,0.11937 0.17508,0.11937 0.18304,0.13529 0.17508,0.12733 0.17508,0.11938 0.17508,0.11141 0.18304,0.12733 0.17508,0.11141 0.17508,0.11938 0.17508,0.11937 0.18303,0.11141 0.17508,0.10346 0.17508,0.11937 0.17508,0.11937 0.18304,0.11142 0.17508,0.11141 0.17508,0.11142 0.17508,0.11141 0.18304,0.11937 0.17508,0.10346 0.17507,0.10346 0.17508,0.10345 0.18304,0.11142 0.17508,0.10345 0.17508,0.10346 0.17508,0.10346 0.17508,0.10345 0.18304,0.0955 0.17508,0.0875 0.17508,0.10346 0.17508,0.10345 0.18303,0.10346 0.17508,0.0955 0.17508,0.0955 0.17508,0.0875 0.18304,0.10346 0.17508,0.0875 0.17508,0.10346 0.17508,0.0955 0.18304,0.10346 0.17508,0.0875 0.17508,0.0955 0.17508,0.0955 0.18303,0.0875 0.17508,0.0875 0.17508,0.0875 0.17508,0.0955 0.18304,0.0955 0.17508,0.0875 0.17508,0.0955 0.17508,0.0875 0.18304,0.0955 0.17508,0.0796 0.17508,0.0875 0.17508,0.0875 0.18303,0.0796 0.17508,0.0796 0.17508,0.0796 0.17508,0.0875 0.18304,0.0796 0.17508,0.0716 0.17508,0.0796 0.17508,0.0796 0.18304,0.0875 0.17508,0.0796 0.17507,0.0796 0.17508,0.0875 0.18304,0.0796 0.17508,0.0796 0.17508,0.0716 0.17508,0.0875 0.18304,0.0716 0.17508,0.0796 0.17508,0.0716 0.17508,0.0796 0.18303,0.0716 0.17508,0.0796 0.17508,0.0716 0.17508,0.0716 0.18304,0.0716 0.17508,0.0716 0.17508,0.0796 0.17508,0.0716 0.18304,0.0716 0.17508,0.0716 0.17508,0.0796 0.17508,0.0716 0.18303,0.0796 0.17508,0.0557 0.17508,0.0637 0.17508,0.0796 0.18304,0.0637 0.17508,0.0637 0.17508,0.0716 0.17508,0.0796 0.18304,0.0637 0.17508,0.0796 0.17508,0.0637 0.17508,0.0637 0.18303,0.0557 0.17508,0.0716 0.17508,0.0637 0.17508,0.0637 0.18304,0.0716 0.17508,0.0637 0.17508,0.0637 0.17508,0.0637 0.18304,0.0637 0.17508,0.0637 0.17508,0.0557 0.17507,0.0716 0.17508,0.0557 0.18304,0.0716 0.17508,0.0557 0.17508,0.0716 0.17508,0.0637 0.18304,0.0557 0.17508,0.0557 0.17508,0.0637 0.17508,0.0637 0.18303,0.0637 0.17508,0.0557 0.17508,0.0637 0.17508,0.0637 0.18304,0.0557 0.17508,0.0557 0.17508,0.0557 0.17508,0.0557 0.18304,0.0637 0.17508,0.0557 0.17508,0.0557 0.17508,0.0557 0.18303,0.0557 0.17508,0.0637 0.17508,0.0637 0.17508,0.0557 0.18304,0.0477 0.17508,0.0557 0.17508,0.0557 0.17508,0.0637 0.18304,0.0557 0.17508,0.0477 0.17508,0.0557 0.17508,0.0557 0.18303,0.0637 0.17508,0.0557 0.17508,0.0557 0.17508,0.0557 0.18304,0.0477 0.17508,0.0477 0.17508,0.0557 0.17508,0.0637 0.18304,0.0477 0.17508,0.0557 0.17508,0.0477 0.17507,0.0557 0.18304,0.0557 0.17508,0.0557 0.17508,0.0557 0.17508,0.0557 0.18304,0.0557 0.17508,0.0478 0.17508,0.0557 0.17508,0.0557 0.18304,0.0477 0.17507,0.0477 0.17508,0.0398 0.17508,0.0477 0.18304,0.0557 0.17508,0.0477 0.17508,0.0478 0.17508,0.0477 0.18304,0.0478 0.17508,0.0398 0.17508,0.0557 0.17508,0.0398 0.18303,0.0557 0.17508,0.0478 0.17508,0.0557 0.17508,0.0398 0.18304,0.0477 0.17508,0.0477 0.17508,0.0478 0.17508,0.0477 0.18304,0.0478 0.17508,0.0477 0.17508,0.0557 0.17508,0.0398 0.18303,0.0398 0.17508,0.0478 0.17508,0.0477 0.17508,0.0478 0.17508,0.0398 0.18304,0.0478 0.17508,0.0398 0.17508,0.0398 0.17508,0.0478 0.18304,0.0398 0.17508,0.0478 0.17508,0.0398 0.17507,0.0478 0.18304,0.0477 0.17508,0.0398 0.17508,0.0477 0.17508,0.0398 0.18304,0.0318 0.17508,0.0477 0.17508,0.0398 0.17508,0.0477 0.18304,0.0478 0.17507,0.0398 0.17508,0.0478 0.17508,0.0318 0.18304,0.0477 0.17508,0.0478 0.17508,0.0318 0.17508,0.0478 0.18304,0.0318 0.17508,0.0398 0.17508,0.0398 0.17508,0.0478 0.18303,0.0398 0.17508,0.0398 0.17508,0.0477 0.17508,0.0398 0.18304,0.0398 0.17508,0.0477 0.17508,0.0318 0.17508,0.0478 0.18304,0.0318 0.17508,0.0478 0.17508,0.0398 0.17508,0.0398 0.18303,0.0398 0.17508,0.0398 0.17508,0.0398 0.17508,0.0398 0.18304,0.0477 0.17508,0.0398 0.17508,0.0398 0.17508,0.0398 0.18304,0.0398 0.17508,0.0398 0.17508,0.0398 0.17508,0.0398 0.18303,0.0318 0.17508,0.0318 0.17508,0.0398 0.17508,0.0398 0.18304,0.0318 0.17508,0.0398 0.17508,0.0318 0.17508,0.0398 0.18304,0.0318 0.17508,0.0318 0.17507,0.0318 0.17508,0.0398 0.18304,0.0318 0.17508,0.0477 0.17508,0.0318 0.17508,0.0398 0.18304,0.0398 0.17508,0.0318 0.17508,0.0398 0.17508,0.0318 0.18303,0.0398 0.17508,0.0398 0.17508,0.0318 0.17508,0.0318 0.18304,0.0318 0.17508,0.0318 0.17508,0.0318 0.17508,0.0318 0.17508,0.0398 0.18304,0.0398 0.17508,0.0318 0.17508,0.0477 0.17508,0.0318 0.18303,0.0318 0.17508,0.0318 0.17508,0.0398 0.17508,0.0318 0.18304,0.0398 0.17508,0.0318 0.17508,0.0398 0.17508,0.0398 0.18304,0.0318 0.17508,0.0318 0.17508,0.0318 0.17508,0.0318 0.18303,0.0318 0.17508,0.0318 0.17508,0.0398 0.17508,0.0318 0.18304,0.0318 0.17508,0.0318 0.17508,0.0318 0.17508,0.0318 0.18304,0.0398 0.17508,0.0398 0.17507,0.0239 0.17508,0.0318 0.18304,0.0398 0.17508,0.0239 0.17508,0.0318 0.17508,0.0318 0.18304,0.0398 0.17508,0.0239 0.17508,0.0318 0.17508,0.0318 0.18303,0.0398 0.17508,0.0318 0.17508,0.0318 0.17508,0.0398 0.18304,0.0318 0.17508,0.0318 0.17508,0.0318 0.17508,0.0318 0.18304,0.0318 0.17508,0.0318 0.17508,0.0239 0.17508,0.0318 0.18303,0.0318 0.17508,0.0398 0.17508,0.0239 0.17508,0.0318 0.18304,0.0318 0.17508,0.0318 0.17508,0.0239 0.17508,0.0318 0.18304,0.0318 0.17508,0.0318 0.17508,0.0318 0.17508,0.0239 0.18303,0.0318 0.17508,0.0239 0.17508,0.0318 0.17508,0.0318 0.18304,0.0239 0.17508,0.0318 0.17508,0.0318 0.17508,0.0239 0.18304,0.0318 0.17508,0.0398 0.17508,0.0318 0.17507,0.0239 0.18304,0.0318 0.17508,0.0239 0.17508,0.0318 0.17508,0.0239 0.18304,0.0318 0.17508,0.0239 0.17508,0.0318 0.17508,0.0318 0.17508,0.0318 0.18303,0.0239 0.17508,0.0318 0.17508,0.0239 0.17508,0.0318 0.18304,0.0239 0.17508,0.0239 0.17508,0.0239 0.17508,0.0318 0.18304,0.0239 0.17508,0.0318 0.17508,0.0239 0.17508,0.0318 0.18303,0.0239 0.17508,0.0318 0.17508,0.0239 0.17508,0.0318 0.18304,0.0318 0.17508,0.0239 0.17508,0.0239 0.17508,0.0239 0.18304,0.0239 0.17508,0.0318 0.17508,0.0239 0.17508,0.0318 0.18303,0.0239 0.17508,0.0318 0.17508,0.0239 0.17508,0.0239 0.18304,0.0239 0.17508,0.0239 0.17508,0.0239 0.17508,0.0239 0.18304,0.0318 0.17508,0.0159 0.17508,0.0318 0.17507,0.0239 0.18304,0.0318 0.17508,0.0239 0.17508,0.0239 0.17508,0.0239 0.18304,0.0239 0.17508,0.0318 0.17508,0.0239 0.17508,0.0239 0.18304,0.0239 0.17507,0.0318 0.17508,0.0239 0.17508,0.0159 0.18304,0.0239 0.17508,0.0239 0.17508,0.0239 0.17508,0.0239 0.18304,0.0239 0.17508,0.0239 0.17508,0.0239 0.17508,0.0239 0.18303,0.0239 0.17508,0.0318 0.17508,0.0239 0.17508,0.0159 0.18304,0.0239 0.17508,0.0239 0.17508,0.0318 0.17508,0.0239 0.18304,0.0159 0.17508,0.0239 0.17508,0.0318 0.17508,0.0239 0.18303,0.0239 0.17508,0.0239 0.17508,0.0239 0.17508,0.0239 0.18304,0.0239 0.17508,0.0239 0.17508,0.0239 0.17508,0.0318 0.18304,0.0159 0.17508,0.0239 0.17508,0.0239 0.17507,0.0239 0.17508,0.0159 0.18304,0.0318 0.17508,0.0239 0.17508,0.0239 0.17508,0.0239 0.18304,0.0159 0.17508,0.0239 0.17508,0.0239 0.17508,0.0159 0.18304,0.0239 0.17507,0.0239 0.17508,0.0239 0.17508,0.0159 0.18304,0.0239 0.17508,0.0239 0.17508,0.0159 0.17508,0.0239 0.18304,0.0239 0.17508,0.0159 0.17508,0.0239 0.17508,0.0239 0.18303,0.0159 0.17508,0.0239 0.17508,0.0239 0.17508,0.0159 0.18304,0.0239 0.17508,0.0239 0.17508,0.0159 0.17508,0.0239 0.18304,0.0159 0.17508,0.0239 0.17508,0.0159 0.17508,0.0239 0.18303,0.0159 0.17508,0.0239 0.17508,0.0239 0.17508,0.0239 0.18304,0.0239 0.17508,0.0159 0.17508,0.0159 0.17508,0.0318 0.18304,0.0159 0.17508,0.0239 0.17508,0.0239 0.17507,0.0159 0.18304,0.0239 0.17508,0.0159 0.17508,0.0159 0.17508,0.0239 0.18304,0.0159 0.17508,0.0239 0.17508,0.0159 0.17508,0.0159 0.18304,0.0239 0.17508,0.0159 0.17507,0.0239 0.17508,0.0159 0.18304,0.0159 0.17508,0.0159 0.17508,0.0239 0.17508,0.0159 0.18304,0.0239 0.17508,0.0159 0.17508,0.0159 0.17508,0.0239 0.18303,0.0159 0.17508,0.0239 0.17508,0.0239 0.17508,0.0159 0.18304,0.0239 0.17508,0.0159 0.17508,0.0239 0.17508,0.0159 0.18304,0.0159 0.17508,0.0159 0.17508,0.0159 0.17508,0.0239 0.18303,0.0159 0.17508,0.0159 0.17508,0.0159 0.17508,0.0159 0.17508,0.0239 0.18304,0.0159 0.17508,0.0159 0.17508,0.0159 0.17508,0.0159 0.18304,0.0159 0.17508,0.0159 0.17508,0.0159 0.17507,0.0159 0.18304,0.0239 0.17508,0.0159 0.17508,0.008 0.17508,0.0239 0.18304,0.008 0.17508,0.0159 0.17508,0.0159 0.17508,0.0239 0.18304,0.008 0.17507,0.0239 0.17508,0.008 0.17508,0.008 0.18304,0.0159 0.17508,0.0159 0.17508,0.0159 0.17508,0.0159 0.18304,0.0159 0.17508,0.0159 0.17508,0.008 0.17508,0.0159 0.18303,0.0159 0.17508,0.008 0.17508,0.0239 0.17508,0.008 0.18304,0.0159 0.17508,0.0159 0.17508,0.008 0.17508,0.0159 0.18304,0.0159 0.17508,0.008 0.17508,0.0159 0.17508,0.0159 0.18303,0.008 0.17508,0.0159 0.17508,0.0159 0.17508,0.008 0.18304,0.0159 0.17508,0.008 0.17508,0.0159 0.17508,0.008 0.18304,0.008 0.17508,0.0159 0.17508,0.008 0.17508,0.0159 0.18303,0.008 0.17508,0.0159 0.17508,0.0159 0.17508,0.008 0.18304,0.008 0.17508,0.0159 0.17508,0.0159 0.17508,0.008 0.18304,0.008 0.17508,0.008 0.17507,0.0159 0.17508,0.008 0.18304,0.0159 0.17508,0.008 0.17508,0.0159 0.17508,0.008 0.18304,0.008 0.17508,0.008 0.17508,0.008 0.17508,0.008 0.18304,0.0159 0.17507,0.008 0.17508,0.008 0.17508,0.008 0.18304,0.008 0.17508,0.0159 0.17508,0.008 0.17508,0.008 0.18304,0.008 0.17508,0.008 0.17508,0.008 0.17508,0.008 0.17508,0.0159 0.18303,0 0.17508,0.008 0.17508,0.008 0.17508,0.008 0.18304,0.008 0.17508,0.008 0.17508,0.008 0.17508,0.008 0.18304,0.008 0.17508,0 0.17508,0.008 0.17508,0.008 0.18303,0.008 0.17508,0 0.17508,0.008 0.17508,0.008 0.18304,0.008 0.17508,0.008 0.17508,0 0.17508,0.008 0.18304,0.008 0.17508,0 0.17507,0.008 0.17508,0.008 0.18304,0 0.17508,0.008 0.17508,0.008 0.17508,0 0.18304,0.008 0.17508,0 0.17508,0.008 0.17508,0 0.18303,0.008 0.17508,0 0.17508,0.008 0.17508,0.008 0.18304,0 0.17508,0.008 0.17508,0 0.17508,0 0.18304,0.008 0.17508,0.008 0.17508,0 0.17508,0 0.18303,0.008 0.17508,0 0.17508,0 0.17508,0.008 0.18304,0 0.17508,0 0.17508,0.008 0.17508,0 0.18304,0 0.17508,0 0.17508,0 0.17508,0.008 0.18303,0 0.17508,0 0.17508,0.008 0.17508,0 0.18304,0 0.17508,0 0.17508,0 0.17508,0.008 0.18304,0 0.17508,0 0.17508,0 0.17507,0.008 0.18304,0 0.17508,0 0.17508,0 0.17508,0 0.18304,0 0.17508,0 0.17508,0 0.17508,0 0.18304,0 0.17507,0.008 0.17508,0 0.17508,0 0.17508,0 0.18304,0 0.17508,0 0.17508,0 0.17508,0 0.18304,0 0.17508,0 0.17508,0 0.17508,0 0.18303,0 0.17508,0 0.17508,0 0.17508,0 0.18304,0 0.17508,0 0.17508,0 0.17508,0 0.18304,0 0.17508,0 0.17508,0 0.17508,0 0.18303,0 0.17508,0 0.17508,0 0.17508,0 0.18304,0 0.17508,0 0.17508,0.008 0.17508,0 0.18304,0 0.17508,0 0.17508,0 0.17507,0 0.18304,0 0.17508,0 0.17508,0 0.17508,0 0.18304,0 0.17508,0 0.17508,0 0.17508,0 0.18304,0 0.17507,0 0.17508,0 0.17508,0 0.18304,0 0.17508,0 0.17508,0 0.17508,0 0.18304,0 0.17508,0 0.17508,0 0.17508,0 0.18303,0 0.17508,0 0.17508,0 0.17508,0 0.18304,0 0.17508,0 0.17508,0 0.17508,0 0.18304,0 0.17508,0 0.17508,0 0.17508,0 0.18303,0 0.17508,0 0.17508,0 0.17508,0 0.18304,0 0.17508,0 0.17508,0 0.17508,0 0.18304,0 0.17508,0 0.17508,0 0.17508,0 0.18303,0 0.17508,0 0.17508,0"
       style="fill:none;stroke:#00cd00;stroke-width:0.59680004;stroke-linecap:round;stroke-linejoin:round;stroke-miterlimit:10;stroke-dasharray:0.59680004,1.79040012;stroke-dashoffset:0;stroke-opacity:1"
       id="path122"
       inkscape:connector-curvature="0" /><path
       d="m 130.99082,658.15456 119.76897,0 0,-39.68031 -119.76897,0 0,39.68031 z"
       style="fill:#ffffff;fill-opacity:1;fill-rule:nonzero;stroke:#000000;stroke-width:0.51119685;stroke-linecap:round;stroke-linejoin:round;stroke-miterlimit:10;stroke-dasharray:none;stroke-opacity:1"
       id="path124"
       inkscape:connector-curvature="0" /><path
       d="m 138.43256,637.15438 14.87809,0"
       style="fill:none;stroke:#000000;stroke-width:0.51660025;stroke-linecap:round;stroke-linejoin:round;stroke-miterlimit:10;stroke-dasharray:none;stroke-opacity:1"
       id="path126"
       inkscape:connector-curvature="0" /><path
       d="m 138.43256,648.0083 14.87809,0"
       style="fill:none;stroke:#ff0000;stroke-width:0.51660025;stroke-linecap:round;stroke-linejoin:round;stroke-miterlimit:10;stroke-dasharray:3.09960146, 3.09960146;stroke-dashoffset:0;stroke-opacity:1"
       id="path128"
       inkscape:connector-curvature="0" /><path
       d="m 138.43256,628.39568 14.87809,0"
       style="fill:none;stroke:#00cd00;stroke-width:0.51660025;stroke-linecap:round;stroke-linejoin:round;stroke-miterlimit:10;stroke-dasharray:0.51660025, 1.54980074;stroke-dashoffset:0;stroke-opacity:1"
       id="path130"
       inkscape:connector-curvature="0" /><g
       id="g144"><g
         id="g146"
         clip-path="url(#clipPath148)" /></g><g
       id="g152"
       transform="matrix(0.79581618,0,0,0.79581618,-71.442177,331.1861)"><g
         id="g154"
         clip-path="url(#clipPath156)"><path
           d="m 206.65,792 0.02,-761.73 0.22,284.48 0.22,-62.32 0.22,-19.7 0.23,-4.61 0.22,1.83 0.22,-0.91 0.22,2.43 0.23,2.21 0.22,-0.7 0.22,1.48 0.22,-0.25 0.23,2.31 0.22,0.24 0.22,-0.73 0.22,-0.49 0.23,1.05 0.22,0.27 0.22,1.2 0.22,-0.75 0.23,-0.24 0.22,1.15 0.22,0.2 0.22,-0.74 0.23,0.26 0.22,0.61 0.22,0.12 0.22,1.52 0.23,-0.77 0.22,0.22 0.22,1.67 0.22,-0.45 0.23,0.46 0.22,-0.24 0.22,0.44 0.22,0.82 0.23,0.59 0.22,0.08 0.22,-0.68 0.22,0.88 0.23,-1.12 0.22,-0.11 0.22,-0.15 0.22,0.02 0.23,-0.26 0.22,0.34 0.22,0.15 0.22,0.01 0.23,0.58 0.22,0.39 0.22,0.54 0.22,0.86 0.23,-0.15 0.22,-0.14 0.22,0.1 0.22,-0.19 0.23,0.1 0.22,0.09 0.22,0.34 0.22,0.76 0.23,0.6 0.22,-0.25 0.22,0.28 0.22,0.12 0.23,0.38 0.22,0.02 0.22,0.58 0.22,0.01 0.23,-0.23 0.22,-0.29 0.22,-0.14 0.22,0.66 0.23,-0.45 0.22,-0.07 0.22,-0.53 0.22,0.45 0.23,-0.03 0.22,0.02 0.22,-0.23 0.22,0.1 0.22,-0.01 0.23,-0.12 0.22,-0.08 0.22,-0.17 0.22,-0.05 0.23,0.03 0.22,0.31 0.22,0.26 0.22,0.31 0.23,-0.53 0.22,-0.06 0.22,0.02 0.22,0.18 0.23,-0.19 0.22,-0.07 0.22,0.44 0.22,-0.22 0.23,0.13 0.22,0 0.22,0.17 0.22,0.29 0.23,0.37 0.22,0.06 0.22,-0.19 0.22,0.11 0.23,0.05 0.22,-0.04 0.22,-0.32 0.22,0.33 0.23,-0.09 0.22,0.39 0.22,0.02 0.22,-0.03 0.23,-0.3 0.22,0.07 0.22,-0.18 0.22,0 0.23,0.16 0.22,0.2 0.22,0.22 0.22,0.29 0.23,0.17 0.22,0.02 0.22,-0.05 0.22,0.42 0.23,-0.21 0.22,-0.03 0.22,-0.06 0.22,-0.22 0.23,0.31 0.22,0.08 0.22,-0.08 0.22,-0.08 0.23,-0.04 0.22,0.09 0.22,0.04 0.22,-0.07 0.23,-0.22 0.22,-0.04 0.22,0.08 0.22,-0.03 0.23,-0.19 0.22,0.14 0.22,-0.08 0.22,-0.19 0.23,0.13 0.22,0.1 0.22,-0.12 0.22,0.31 0.23,-0.04 0.22,0.18 0.22,-0.03 0.22,0.09 0.23,-0.18 0.22,-0.09 0.22,0.08 0.22,0.31 0.23,-0.05 0.22,0.04 0.22,-0.02 0.22,-0.06 0.22,0.07 0.23,0.13 0.22,0.14 0.22,-0.04 0.22,0.13 0.23,-0.09 0.22,-0.06 0.22,-0.27 0.22,0.28 0.23,-0.07 0.22,0.03 0.22,-0.12 0.22,0.08 0.23,0.1 0.22,0.22 0.22,-0.23 0.22,-0.06 0.23,0.35 0.22,0.2 0.22,-0.06 0.22,-0.08 0.23,-0.08 0.22,-0.05 0.22,0.14 0.22,-0.4 0.23,0.1 0.22,0.13 0.22,0.18 0.22,-0.07 0.23,0.12 0.22,0.21 0.22,0.01 0.22,0.03 0.23,0.19 0.22,0.39 0.22,-0.16 0.22,0.11 0.23,-0.36 0.22,-0.1 0.22,0.06 0.22,-0.13 0.23,-0.18 0.22,0.06 0.22,-0.12 0.22,0 0.23,0.2 0.22,-0.03 0.22,-0.21 0.22,0.05 0.23,-0.01 0.22,-0.11 0.22,-0.03 0.22,-0.04 0.23,0 0.22,0.19 0.22,-0.16 0.22,0.12 0.23,0.02 0.22,0.02 0.22,-0.13 0.22,0.08 0.23,-0.13 0.22,0.37 0.22,0.16 0.22,-0.09 0.23,-0.03 0.22,0.03 0.22,-0.1 0.22,-0.08 0.23,0.18 0.22,-0.19 0.22,-0.01 0.22,0.15 0.23,0.14 0.22,0 0.22,0.02 0.22,0.2 0.23,-0.21 0.22,0.01 0.22,0.06 0.22,0.06 0.23,0.11 0.22,0.03 0.22,0.24 0.22,-0.19 0.22,0.25 0.23,-0.13 0.22,0 0.22,-0.13 0.22,-0.05 0.23,0.09 0.22,0.21 0.22,-0.04 0.22,-0.13 0.23,0.06 0.22,0.18 0.22,-0.05 0.22,-0.01 0.23,0.05 0.22,-0.05 0.22,0.02 0.22,0.04 0.23,0.02 0.22,0.18 0.22,0.16 0.22,0.02 0.23,0.04 0.22,-0.07 0.22,-0.21 0.22,-0.03 0.23,0.35 0.22,-0.02 0.22,-0.12 0.22,-0.05 0.23,-0.06 0.22,0.1 0.22,-0.04 0.22,-0.03 0.23,-0.03 0.22,-0.08 0.22,-0.15 0.22,-0.06 0.23,0.06 0.22,0.21 0.22,-0.12 0.22,-0.07 0.23,-0.13 0.22,0.26 0.22,0.03 0.22,-0.1 0.23,-0.06 0.22,-0.09 0.22,-0.11 0.22,0.07 0.23,-0.03 0.22,-0.01 0.22,0.03 0.22,-0.29 0.23,0.22 0.22,0.09 0.22,0.13 0.22,-0.04 0.23,-0.07 0.22,0.13 0.22,0.12 0.22,0.28 0.23,0.07 0.22,-0.03 0.22,-0.1 0.22,0 0.23,0 0.22,-0.03 0.22,-0.01 0.22,-0.01 0.23,0.05 0.22,0.09 0.22,0.11 0.22,0.06 0.23,-0.09 0.22,-0.05 0.22,-0.08 0.22,-0.02 0.23,0.1 0.22,-0.01 0.22,-0.01 0.22,0.12 0.22,0.04 0.23,0.18 0.22,-0.1 0.22,0.01 0.22,-0.22 0.23,-0.05 0.22,0.02 0.22,0.06 0.22,-0.1 0.23,-0.12 0.22,0.2 0.22,0 0.22,-0.08 0.23,0.12 0.22,0.1 0.22,-0.01 0.22,0.01 0.23,-0.1 0.22,0.02 0.22,-0.05 0.22,0.17 0.23,-0.18 0.22,0.01 0.22,0.02 0.22,0 0.23,0.24 0.22,0.03 0.22,0.11 0.22,-0.15 0.23,0.2 0.22,0.05 0.22,-0.17 0.22,0.09 0.23,0.03 0.22,-0.04 0.22,0.17 0.22,-0.06 0.23,-0.02 0.22,0.06 0.22,-0.08 0.22,0.01 0.23,0.03 0.22,0.02 0.22,0.03 0.22,-0.1 0.23,-0.07 0.22,-0.03 0.22,0.11 0.22,-0.18 0.23,-0.02 0.22,-0.04 0.22,0.11 0.22,0.09 0.23,0.1 0.22,0.11 0.22,-0.13 0.22,-0.05 0.23,0.13 0.22,0.13 0.22,0.07 0.22,0.09 0.23,0.07 0.22,0.11 0.22,0.06 0.22,-0.07 0.23,-0.01 0.22,-0.15 0.22,-0.15 0.22,-0.01 0.23,0.07 0.22,0.03 0.22,0.02 0.22,-0.01 0.23,0.02 0.22,-0.11 0.22,0.05 0.22,-0.02 0.23,0.04 0.22,0.13 0.22,0.11 0.22,0.06 0.22,0.04 0.23,-0.04 0.22,-0.02 0.22,-0.12 0.22,0.01 0.23,0.07 0.22,0.09 0.22,0 0.22,-0.06 0.23,0.08 0.22,0.12 0.22,-0.07 0.22,-0.08 0.23,-0.05 0.22,0.08 0.22,-0.03 0.22,0.07 0.23,0.18 0.22,0.07 0.22,0.11 0.22,0.09 0.23,0.02 0.22,0.02 0.22,0.03 0.22,0.07 0.23,-0.07 0.22,-0.15 0.22,0.24 0.22,0.03 0.23,-0.18 0.22,0.09 0.22,0.05 0.22,-0.02 0.23,-0.03 0.22,0.15 0.22,-0.01 0.22,0.06 0.23,-0.23 0.22,-0.09 0.22,-0.03 0.22,-0.06 0.23,-0.13 0.22,0.27 0.22,0.08 0.22,-0.18 0.23,0.04 0.22,0.14 0.22,0.09 0.22,0.02 0.23,-0.1 0.22,-0.04 0.22,-0.03 0.22,-0.11 0.23,0.1 0.22,0.02 0.22,0.07 0.22,-0.02 0.23,0.05 0.22,0.07 0.22,-0.05 0.22,0.15 0.23,0.05 0.22,0.03 0.22,-0.03 0.22,0 0.23,0.1 0.22,-0.07 0.22,0.06 0.22,0.01 0.23,-0.04 0.22,-0.16 0.22,-0.03 0.22,0 0.23,-0.03 0.22,-0.04 0.22,0.09 0.22,0.06 0.23,0.01 0.22,0 0.22,-0.08 0.22,0.04 0.22,-0.04 0.23,-0.01 0.22,0.11 0.22,0 0.22,0.1 0.23,0.04 0.22,0.09 0.22,0.13 0.22,-0.04 0.23,0.02 0.22,0.01 0.22,-0.01 0.22,-0.04 0.23,0.08 0.22,-0.01 0.22,-0.03 0.22,-0.02 0.23,-0.15 0.22,0.02 0.22,0.17 0.22,0.03 0.23,-0.01 0.22,0 0.22,-0.11 0.22,0.01 0.23,-0.03 0.22,-0.05 0.22,-0.02 0.22,0.03 0.23,-0.06 0.22,-0.01 0.22,0.13 0.22,-0.01 0.23,0.11 0.22,0.12 0.22,-0.06 0.22,0.06 0.23,-0.17 0.22,0.1 0.22,0.03 0.22,0.01 0.23,-0.04 0.22,-0.05 0.22,-0.03 0.22,0.01 0.23,0.11 0.22,0.06 0.22,-0.01 0.22,0.1 0.23,0.11 0.22,0.07 0.22,0.06 0.22,0.05 0.23,0.05 0.22,-0.03 0.22,0.05 0.22,-0.02 0.23,0.03 0.22,-0.05 0.22,0.03 0.22,0.07 0.23,0.06 0.22,-0.03 0.22,-0.01 0.22,0.09 0.23,0.07 0.22,0.01 0.22,0.02 0.22,0.06 0.23,0 0.22,-0.05 0.22,0.01 0.22,0.07 0.23,0 0.22,-0.06 0.22,-0.1 0.22,0 0.23,-0.01 0.22,0.04 0.22,-0.05 0.22,0.04 0.22,0.07 0.23,-0.07 0.22,0 0.22,0.1 0.22,-0.01 0.23,0.01 0.22,-0.06 0.22,0.15 0.22,0.11 0.23,0.09 0.22,0.05 0.22,0.08 0.22,0.09 0.23,0.04 0.22,0.07 0.22,0.05 0.22,0 0.23,0.05 0.22,0.15 0.22,0.06 0.22,-0.07 0.23,0.16 0.22,-0.05 0.22,0.03 0.22,-0.1 0.23,-0.1 0.22,-0.03 0.22,-0.04 0.22,0.11 0.23,-0.01 0.22,0.05 0.22,0.09 0.22,-0.09 0.23,0.04 0.22,-0.13 0.22,-0.02 0.22,-0.06 0.23,0.08 0.22,0.05 0.22,0 0.22,-0.06 0.23,-0.01 0.22,-0.02 0.22,-0.04 0.22,-0.01 0.23,0.01 0.22,0.04 0.22,0.05 0.22,0 0.23,0.05 0.22,-0.03 0.22,0.09 0.22,0.11 0.23,-0.01 0.22,0 0.22,-0.09 0.22,0.17 0.23,0.08 0.22,-0.08 0.22,0 0.22,0 0.23,-0.02 0.22,0.15 0.22,-0.02 0.22,-0.05 0.23,-0.03 0.22,-0.02 0.22,0.1 0.22,-0.04 0.23,-0.02 0.22,0.02 0.22,0 0.22,0.06 0.23,0.06 0.22,-0.01 0.22,0.02 0.22,0.01 0.23,-0.03 0.22,-0.02 0.22,0.07 0.22,0.04 0.22,0.07 0.23,0.03 0.22,-0.06 0.22,-0.02 0.22,0.05 0.23,0.01 0.22,0.09 0.22,0.08 0.22,-0.09 0.23,0.05 0.22,0.02 0.22,0.05 0.22,0 0.23,0.12 0.22,0.05 0.22,0.02 0.22,-0.06 0.23,0.05 0.22,0.01 0.22,0.11 0.22,0.05 0.23,0.11 0.22,0.07 0.22,-0.06 0.22,-0.06 0.23,0.07 0.22,0.02 0.22,0.08 0.22,0.06 0.23,-0.03 0.22,0.08 0.22,-0.1 0.22,0.03 0.23,0.17 0.22,-0.04 0.22,0.04 0.22,0.01 0.23,-0.08 0.22,0.06 0.22,0.03 0.22,-0.02 0.23,-0.01 0.22,-0.05 0.22,0.01 0.22,0.08 0.23,0.02 0.22,-0.03 0.22,0.02 0.22,0.07 0.23,0.04 0.22,0.03 0.22,0.06 0.22,0.07 0.23,0 0.22,-0.06 0.22,-0.01 0.22,0.07 0.23,-0.04 0.22,0 0.22,-0.02 0.22,0.02 0.23,0.02 0.22,0.07 0.22,0.02 0.22,0.07 0.23,-0.11 0.22,0.06 0.22,0 0.22,0.08 0.23,0.01 0.22,0 0.22,0 0.22,0.02 0.23,0.01 0.22,-0.02 0.22,0.1 0.22,0.04 0.23,0.05 0.22,0 0.22,0.02 0.22,0.03 0.23,0 0.22,0 0.22,-0.01 0.22,0.02 0.22,-0.01 0.23,0 0.22,0.05 0.22,0.04 0.22,0.03 0.23,0.04 0.22,-0.01 0.22,-0.04 0.22,0.09 0.23,0.02 0.22,0.08 0.22,0.04 0.22,-0.01 0.23,0.05 0.22,0.06 0.22,-0.06 0.22,0.04 0.23,0.04 0.22,-0.01 0.22,0.04 0.22,0.06 0.23,0.04 0.22,-0.05 0.22,0.01 0.22,0.03 0.23,0.04 0.22,0.02 0.22,-0.01 0.22,0.05 0.23,0.01 0.22,0.02 0.22,-0.04 0.22,0.04 0.23,0.01 0.22,0.02 0.22,-0.03 0.22,-0.02 0.23,0.02 0.22,0.05 0.22,0.04 0.22,0.05 0.23,0 0.22,-0.07 0.22,0.04 0.22,0 0.23,0.02 0.22,0.01 0.22,0.06 0.22,0.01 0.23,0.03 0.22,0 0.22,0.03 0.22,-0.02 0.23,0.01 0.22,0.03 0.22,0.03 0.22,-0.01 0.23,0.05 0.22,0.01 0.22,0.02 0.22,0 0.23,0.01 0.22,0.01 0.22,0.04 0.22,0.02 0.23,-0.02 0.22,0.01 0.22,-0.01 0.22,0.01 0.23,0.02 0.22,-0.04 0.22,0.02 0.22,0.01 0.23,0.01 0.22,0.02 0.22,0.02 0.22,0.01 0.23,0 0.22,0 0.22,0.01 0.22,0 0.22,0 0.23,0.03 0.22,0 0.22,0.01 0.22,0 0.23,0.01 0.22,0.01 0.22,0.02 0.22,0.01 0.23,-0.01 0.22,-0.01 0.22,0.01 0.22,-0.01 0.23,0.01 0.22,0.01 0.22,0 0.22,0.02 0.23,0 0.22,0 0.22,0.01 0.22,0 0.23,0 0.22,0 0.22,0.01 0.22,0 0.23,0 0.22,-0.01 0.22,-0.01 0.22,0 0.23,0.01 0.22,0 0.22,0 0.22,0 0.23,0 0.22,0 0.22,0 0.22,0 0.23,0 0.22,0 0.22,0 0.22,0 0.23,0 0.22,0.01 0.22,0 0.22,0 0.23,0 0.22,0 0.22,0 0.22,0 0.23,0 0.22,0 0.22,0 0.22,0 0.23,0 0.22,0 0.22,0 0.22,0 0.23,0 0.22,0 0.22,0 0.22,0 0.23,0 0.22,0 0.22,0 0.22,0 0.23,0 0.22,0 0.22,0 0.22,0 0.23,0 0.22,0 0.22,0 0.22,0 0.23,0 0.22,0 0.22,0 0.22,0 0.23,0 0.22,0 0.22,0"
           style="fill:none;stroke:#ff0000;stroke-width:0.75;stroke-linecap:round;stroke-linejoin:round;stroke-miterlimit:10;stroke-dasharray:2.25, 3.75;stroke-dashoffset:0;stroke-opacity:1"
           id="path160"
           inkscape:connector-curvature="0" /></g></g><path
       inkscape:connector-curvature="0"
       id="path166"
       style="fill:none;stroke:#000000;stroke-width:0.59686214;stroke-linecap:round;stroke-linejoin:round;stroke-miterlimit:10;stroke-dasharray:none;stroke-opacity:1"
       d="m 92.320874,419.99919 0,-5.72988" /><path
       inkscape:connector-curvature="0"
       id="path168"
       style="fill:none;stroke:#000000;stroke-width:0.59686214;stroke-linecap:round;stroke-linejoin:round;stroke-miterlimit:10;stroke-dasharray:none;stroke-opacity:1"
       d="m 136.57621,419.99919 0,-5.72988" /><path
       inkscape:connector-curvature="0"
       id="path170"
       style="fill:none;stroke:#000000;stroke-width:0.59686214;stroke-linecap:round;stroke-linejoin:round;stroke-miterlimit:10;stroke-dasharray:none;stroke-opacity:1"
       d="m 180.83951,419.99919 0,-5.72988" /><path
       inkscape:connector-curvature="0"
       id="path172"
       style="fill:none;stroke:#000000;stroke-width:0.59686214;stroke-linecap:round;stroke-linejoin:round;stroke-miterlimit:10;stroke-dasharray:none;stroke-opacity:1"
       d="m 225.1028,419.99919 0,-5.72988" /><text
       id="text174"
       style="font-variant:normal;font-weight:normal;font-size:9.5497942px;font-family:Helvetica;-inkscape-font-specification:Helvetica;writing-mode:lr-tb;fill:#000000;fill-opacity:1;fill-rule:nonzero;stroke:none"
       transform="scale(1,-1)"
       x="89.662857"
       y="-399.37155"><tspan
         id="tspan176"
         y="-399.37155"
         x="89.662857">0</tspan></text>
<text
       id="text178"
       style="font-variant:normal;font-weight:normal;font-size:9.5497942px;font-family:Helvetica;-inkscape-font-specification:Helvetica;writing-mode:lr-tb;fill:#000000;fill-opacity:1;fill-rule:nonzero;stroke:none"
       transform="scale(1,-1)"
       x="131.26813"
       y="-399.37155"><tspan
         id="tspan180"
         sodipodi:role="line"
         y="-399.37155"
         x="131.26813 136.5778">50</tspan></text>
<text
       id="text182"
       style="font-variant:normal;font-weight:normal;font-size:9.5497942px;font-family:Helvetica;-inkscape-font-specification:Helvetica;writing-mode:lr-tb;fill:#000000;fill-opacity:1;fill-rule:nonzero;stroke:none"
       transform="scale(1,-1)"
       x="172.8734"
       y="-399.37155"><tspan
         id="tspan184"
         sodipodi:role="line"
         y="-399.37155"
         x="172.8734 178.18309 183.49275">100</tspan></text>
<text
       id="text186"
       style="font-variant:normal;font-weight:normal;font-size:9.5497942px;font-family:Helvetica;-inkscape-font-specification:Helvetica;writing-mode:lr-tb;fill:#000000;fill-opacity:1;fill-rule:nonzero;stroke:none"
       transform="scale(1,-1)"
       x="217.13667"
       y="-399.37155"><tspan
         id="tspan188"
         sodipodi:role="line"
         y="-399.37155"
         x="217.13667 222.44637 227.75606">150</tspan></text>
<path
       inkscape:connector-curvature="0"
       id="path192"
       style="fill:none;stroke:#000000;stroke-width:0.59686214;stroke-linecap:round;stroke-linejoin:round;stroke-miterlimit:10;stroke-dasharray:none;stroke-opacity:1"
       d="m 86.129424,425.09241 -5.72987,0" /><path
       inkscape:connector-curvature="0"
       id="path194"
       style="fill:none;stroke:#000000;stroke-width:0.59686214;stroke-linecap:round;stroke-linejoin:round;stroke-miterlimit:10;stroke-dasharray:none;stroke-opacity:1"
       d="m 86.129424,443.28477 -5.72987,0" /><path
       inkscape:connector-curvature="0"
       id="path196"
       style="fill:none;stroke:#000000;stroke-width:0.59686214;stroke-linecap:round;stroke-linejoin:round;stroke-miterlimit:10;stroke-dasharray:none;stroke-opacity:1"
       d="m 86.129424,461.46917 -5.72987,0" /><path
       inkscape:connector-curvature="0"
       id="path198"
       style="fill:none;stroke:#000000;stroke-width:0.59686214;stroke-linecap:round;stroke-linejoin:round;stroke-miterlimit:10;stroke-dasharray:none;stroke-opacity:1"
       d="m 86.129424,479.66152 -5.72987,0" /><path
       inkscape:connector-curvature="0"
       id="path200"
       style="fill:none;stroke:#000000;stroke-width:0.59686214;stroke-linecap:round;stroke-linejoin:round;stroke-miterlimit:10;stroke-dasharray:none;stroke-opacity:1"
       d="m 86.129424,497.85388 -5.72987,0" /><path
       inkscape:connector-curvature="0"
       id="path202"
       style="fill:none;stroke:#000000;stroke-width:0.59686214;stroke-linecap:round;stroke-linejoin:round;stroke-miterlimit:10;stroke-dasharray:none;stroke-opacity:1"
       d="m 86.129424,516.04624 -5.72987,0" /><path
       inkscape:connector-curvature="0"
       id="path204"
       style="fill:none;stroke:#000000;stroke-width:0.59686214;stroke-linecap:round;stroke-linejoin:round;stroke-miterlimit:10;stroke-dasharray:none;stroke-opacity:1"
       d="m 86.129424,534.23064 -5.72987,0" /><path
       inkscape:connector-curvature="0"
       id="path206"
       style="fill:none;stroke:#000000;stroke-width:0.59686214;stroke-linecap:round;stroke-linejoin:round;stroke-miterlimit:10;stroke-dasharray:none;stroke-opacity:1"
       d="m 86.129424,552.423 -5.72987,0" /><text
       id="text208"
       style="font-variant:normal;font-weight:normal;font-size:9.5497942px;font-family:Helvetica;-inkscape-font-specification:Helvetica;writing-mode:lr-tb;fill:#000000;fill-opacity:1;fill-rule:nonzero;stroke:none"
       transform="matrix(0,1,1,0,0,0)"
       x="415.79721"
       y="72.377731"><tspan
         id="tspan210"
         sodipodi:role="line"
         y="72.377731"
         x="415.79721 421.10687 423.76172 429.07141">0.95</tspan></text>
<text
       id="text212"
       style="font-variant:normal;font-weight:normal;font-size:9.5497942px;font-family:Helvetica;-inkscape-font-specification:Helvetica;writing-mode:lr-tb;fill:#000000;fill-opacity:1;fill-rule:nonzero;stroke:none"
       transform="matrix(0,1,1,0,0,0)"
       x="452.18192"
       y="72.377731"><tspan
         id="tspan214"
         sodipodi:role="line"
         y="72.377731"
         x="452.18192 457.49161 460.14645 465.45612">0.97</tspan></text>
<text
       id="text216"
       style="font-variant:normal;font-weight:normal;font-size:9.5497942px;font-family:Helvetica;-inkscape-font-specification:Helvetica;writing-mode:lr-tb;fill:#000000;fill-opacity:1;fill-rule:nonzero;stroke:none"
       transform="matrix(0,1,1,0,0,0)"
       x="488.55865"
       y="72.377731"><tspan
         id="tspan218"
         sodipodi:role="line"
         y="72.377731"
         x="488.55865 493.86835 496.52319 501.83289">0.99</tspan></text>
<text
       id="text220"
       style="font-variant:normal;font-weight:normal;font-size:9.5497942px;font-family:Helvetica;-inkscape-font-specification:Helvetica;writing-mode:lr-tb;fill:#000000;fill-opacity:1;fill-rule:nonzero;stroke:none"
       transform="matrix(0,1,1,0,0,0)"
       x="524.94342"
       y="72.377731"><tspan
         id="tspan222"
         sodipodi:role="line"
         y="72.377731"
         x="524.94342 530.25311 532.9079 538.21759">1.01</tspan></text>
<path
       inkscape:connector-curvature="0"
       id="path224"
       style="fill:none;stroke:#000000;stroke-width:0.59686214;stroke-linecap:round;stroke-linejoin:round;stroke-miterlimit:10;stroke-dasharray:none;stroke-opacity:1"
       d="m 86.129424,418.39919 171.896296,0 0,137.51703 -171.896296,0 0,-137.51704" /><g
       id="g226"
       transform="matrix(0.79581618,0,0,0.79581618,-71.442177,331.1861)"><g
         id="g228"
         clip-path="url(#clipPath230)"><text
           transform="matrix(1,0,0,-1,294.67,56.88)"
           style="font-variant:normal;font-weight:normal;font-size:12px;font-family:Helvetica;-inkscape-font-specification:Helvetica;writing-mode:lr-tb;fill:#000000;fill-opacity:1;fill-rule:nonzero;stroke:none"
           id="text234"><tspan
             x="0 3.336 6 15.996"
             y="0"
             sodipodi:role="line"
             id="tspan236">time</tspan></text>
<text
           transform="matrix(0,1,1,0,151.92,149.8)"
           style="font-variant:normal;font-weight:normal;font-size:12px;font-family:Helvetica;-inkscape-font-specification:Helvetica;writing-mode:lr-tb;fill:#000000;fill-opacity:1;fill-rule:nonzero;stroke:none"
           id="text238"><tspan
             x="0 8.6639996 15.336 18 24.672001 28.007999 30.672001 36.372002 43.043999 46.380001 53.051998 56.388 59.723999 62.388 68.388 71.052002 77.723999 84.396004 90.396004"
             y="0"
             sodipodi:role="line"
             id="tspan240">Relative efficiency</tspan></text>
</g></g><g
       id="g242"
       transform="matrix(0.79581618,0,0,0.79581618,-71.442177,331.1861)"><g
         id="g244"
         clip-path="url(#clipPath246)"><path
           d="m 206.84,792 0.05,-325.7 0.22,-310.92 0.22,-59.09 0.23,0.74 0.22,12.93 0.22,6.88 0.22,7.75 0.23,4.1 0.22,4.32 0.22,4.05 0.22,1.98 0.23,2.38 0.22,0.25 0.22,0.12 0.22,-0.13 0.23,0.76 0.22,-0.06 0.22,0.44 0.22,-1.36 0.23,0.18 0.22,1.25 0.22,0.34 0.22,-1.61 0.23,-0.25 0.22,-0.01 0.22,-0.02 0.22,0.81 0.23,-1.22 0.22,-0.68 0.22,1.01 0.22,-0.53 0.23,-0.05 0.22,-0.31 0.22,-0.03 0.22,0.74 0.23,0.22 0.22,-0.14 0.22,-1.16 0.22,0.98 0.23,-1.07 0.22,-0.17 0.22,-0.16 0.22,-0.16 0.23,0.25 0.22,-0.61 0.22,-0.86 0.22,-0.09 0.23,0.07 0.22,-0.36 0.22,0.16 0.22,-0.13 0.23,-0.9 0.22,-0.34 0.22,0.19 0.22,-0.13 0.23,0.1 0.22,0.11 0.22,-0.18 0.22,0.16 0.23,0.46 0.22,-0.07 0.22,0.04 0.22,0.23 0.23,0.22 0.22,0.22 0.22,0.95 0.22,0.12 0.23,-0.23 0.22,-0.11 0.22,-0.01 0.22,-0.17 0.23,-0.29 0.22,-0.13 0.22,-0.42 0.22,0.48 0.23,0.2 0.22,-0.45 0.22,-0.2 0.22,-0.16 0.22,0.01 0.23,0.3 0.22,-0.09 0.22,-0.1 0.22,-0.17 0.23,0.28 0.22,-0.08 0.22,0.03 0.22,0.26 0.23,-0.13 0.22,0.05 0.22,0.42 0.22,-0.14 0.23,-0.19 0.22,-0.07 0.22,-0.02 0.22,0.05 0.23,-0.14 0.22,-0.21 0.22,-0.06 0.22,0.19 0.23,-0.07 0.22,0.04 0.22,-0.22 0.22,-0.1 0.23,0.05 0.22,-0.21 0.22,-0.34 0.22,0.02 0.23,-0.36 0.22,-0.14 0.22,-0.13 0.22,-0.29 0.23,0.16 0.22,0.09 0.22,0.12 0.22,-0.18 0.23,0 0.22,-0.05 0.22,-0.23 0.22,-0.06 0.23,-0.13 0.22,-0.24 0.22,0 0.22,0.19 0.23,0.1 0.22,0.18 0.22,-0.22 0.22,-0.18 0.23,0.09 0.22,0.32 0.22,-0.1 0.22,-0.09 0.23,-0.25 0.22,0.07 0.22,0.01 0.22,0.07 0.23,-0.25 0.22,-0.08 0.22,-0.07 0.22,-0.05 0.23,-0.05 0.22,0.08 0.22,0.03 0.22,-0.01 0.23,-0.25 0.22,0.05 0.22,-0.24 0.22,-0.28 0.23,0.08 0.22,0.09 0.22,0.04 0.22,-0.23 0.23,-0.31 0.22,0.11 0.22,0.2 0.22,0.17 0.23,-0.46 0.22,-0.02 0.22,0.11 0.22,0.22 0.22,-0.09 0.23,0.06 0.22,0.24 0.22,-0.21 0.22,0.11 0.23,-0.22 0.22,0.15 0.22,0.08 0.22,0.41 0.23,-0.32 0.22,0.26 0.22,-0.06 0.22,-0.32 0.23,-0.03 0.22,0.26 0.22,0.11 0.22,0.13 0.23,0.08 0.22,0.22 0.22,-0.27 0.22,-0.18 0.23,0.06 0.22,0.07 0.22,-0.13 0.22,-0.05 0.23,-0.04 0.22,-0.08 0.22,-0.01 0.22,-0.16 0.23,-0.03 0.22,0.29 0.22,-0.08 0.22,-0.11 0.23,0.09 0.22,0.26 0.22,-0.15 0.22,0.01 0.23,-0.08 0.22,0.1 0.22,-0.06 0.22,-0.02 0.23,-0.1 0.22,0.2 0.22,-0.01 0.22,-0.02 0.23,0.25 0.22,-0.05 0.22,0.03 0.22,0.18 0.23,0.04 0.22,-0.02 0.22,0.1 0.22,-0.07 0.23,-0.06 0.22,0.06 0.22,-0.27 0.22,-0.1 0.23,0.02 0.22,-0.08 0.22,-0.06 0.22,-0.18 0.23,-0.22 0.22,0.18 0.22,0.08 0.22,0.04 0.23,0.05 0.22,0.08 0.22,0.19 0.22,-0.22 0.23,0.09 0.22,-0.16 0.22,0.08 0.22,0 0.23,0.1 0.22,0.03 0.22,0 0.22,0.13 0.23,-0.18 0.22,-0.08 0.22,0.03 0.22,-0.03 0.23,-0.03 0.22,0.07 0.22,0.17 0.22,-0.2 0.22,0.1 0.23,-0.09 0.22,-0.09 0.22,-0.1 0.22,-0.23 0.23,0.12 0.22,0.14 0.22,-0.08 0.22,-0.07 0.23,0.08 0.22,-0.03 0.22,0.03 0.22,-0.09 0.23,0.02 0.22,0.08 0.22,0.02 0.22,-0.03 0.23,-0.01 0.22,0.06 0.22,0.03 0.22,0.07 0.23,0.12 0.22,-0.06 0.22,-0.22 0.22,0.12 0.23,0.18 0.22,0.11 0.22,-0.11 0.22,-0.15 0.23,-0.11 0.22,0.04 0.22,-0.02 0.22,-0.04 0.23,-0.21 0.22,0.04 0.22,-0.2 0.22,-0.05 0.23,0.03 0.22,0.12 0.22,-0.19 0.22,-0.08 0.23,0.01 0.22,-0.12 0.22,0.13 0.22,-0.13 0.23,-0.2 0.22,-0.04 0.22,0.03 0.22,-0.01 0.23,-0.14 0.22,0.03 0.22,-0.1 0.22,0 0.23,-0.02 0.22,0.11 0.22,0.19 0.22,0.02 0.23,-0.02 0.22,0.12 0.22,0.24 0.22,0.01 0.23,0.04 0.22,0.19 0.22,-0.09 0.22,-0.02 0.23,0.08 0.22,0.05 0.22,-0.21 0.22,0.12 0.23,0.04 0.22,-0.04 0.22,0.03 0.22,-0.06 0.23,-0.2 0.22,0.07 0.22,-0.15 0.22,-0.05 0.23,0.19 0.22,0.03 0.22,-0.01 0.22,-0.02 0.22,-0.02 0.23,0.12 0.22,-0.01 0.22,-0.05 0.22,0.06 0.23,0.05 0.22,-0.03 0.22,0 0.22,0.06 0.23,-0.06 0.22,0.05 0.22,-0.07 0.22,0.11 0.23,0.07 0.22,0.04 0.22,0.09 0.22,-0.12 0.23,-0.08 0.22,0.05 0.22,-0.05 0.22,0.09 0.23,0.03 0.22,0.02 0.22,0.03 0.22,-0.03 0.23,0.09 0.22,0.02 0.22,0.09 0.22,-0.18 0.23,0.1 0.22,0.08 0.22,-0.18 0.22,-0.07 0.23,0.04 0.22,-0.09 0.22,0.03 0.22,-0.02 0.23,0.03 0.22,-0.19 0.22,0.02 0.22,0.02 0.23,0.07 0.22,0.1 0.22,-0.03 0.22,-0.05 0.23,-0.08 0.22,-0.01 0.22,-0.02 0.22,-0.1 0.23,0.01 0.22,-0.15 0.22,0.05 0.22,0.03 0.23,-0.06 0.22,0.13 0.22,-0.15 0.22,0.14 0.23,0.03 0.22,0.16 0.22,0.12 0.22,-0.11 0.23,-0.05 0.22,0.12 0.22,0.04 0.22,0 0.23,0 0.22,-0.12 0.22,0.03 0.22,0.02 0.23,0.02 0.22,-0.02 0.22,-0.07 0.22,-0.03 0.23,0.05 0.22,-0.08 0.22,0.1 0.22,0.06 0.23,0.06 0.22,0.02 0.22,0.17 0.22,-0.07 0.22,-0.02 0.23,-0.01 0.22,-0.1 0.22,-0.16 0.22,-0.01 0.23,0.17 0.22,-0.08 0.22,0.05 0.22,-0.09 0.23,0.07 0.22,-0.04 0.22,-0.26 0.22,0.08 0.23,0.05 0.22,0.03 0.22,0.15 0.22,0.02 0.23,0.06 0.22,0.07 0.22,-0.05 0.22,-0.02 0.23,-0.05 0.22,0.05 0.22,-0.05 0.22,0.07 0.23,-0.07 0.22,-0.23 0.22,0.09 0.22,0.03 0.23,-0.12 0.22,0.1 0.22,0.02 0.22,-0.07 0.23,-0.04 0.22,0.22 0.22,0.1 0.22,-0.01 0.23,-0.06 0.22,-0.11 0.22,-0.01 0.22,-0.17 0.23,-0.05 0.22,0 0.22,0.1 0.22,-0.14 0.23,0.06 0.22,0.08 0.22,-0.03 0.22,0.05 0.23,0.01 0.22,-0.01 0.22,0.08 0.22,0.01 0.23,-0.05 0.22,0.03 0.22,0.01 0.22,-0.07 0.23,-0.07 0.22,-0.01 0.22,0.1 0.22,0.08 0.23,0.01 0.22,0.08 0.22,0.13 0.22,0.1 0.23,0.11 0.22,-0.04 0.22,-0.02 0.22,0.04 0.23,0 0.22,-0.17 0.22,0.06 0.22,0.06 0.23,0.05 0.22,0.12 0.22,0.03 0.22,-0.02 0.23,0.04 0.22,0.01 0.22,-0.07 0.22,-0.12 0.22,0 0.23,-0.03 0.22,0.09 0.22,-0.03 0.22,-0.03 0.23,0.11 0.22,0.04 0.22,0.04 0.22,0.02 0.23,-0.01 0.22,-0.01 0.22,-0.04 0.22,0.03 0.23,0.02 0.22,0 0.22,0.01 0.22,-0.1 0.23,-0.11 0.22,-0.04 0.22,0.11 0.22,0.04 0.23,0 0.22,-0.08 0.22,-0.08 0.22,-0.03 0.23,0.17 0.22,-0.07 0.22,0 0.22,0.06 0.23,-0.01 0.22,-0.06 0.22,0.1 0.22,-0.02 0.23,0.01 0.22,0.11 0.22,-0.03 0.22,-0.02 0.23,-0.1 0.22,0.1 0.22,-0.07 0.22,-0.01 0.23,-0.05 0.22,-0.02 0.22,0 0.22,-0.02 0.23,0.08 0.22,0.06 0.22,-0.02 0.22,0.08 0.23,0.02 0.22,-0.02 0.22,-0.1 0.22,0.06 0.23,0.03 0.22,-0.08 0.22,0.08 0.22,0.08 0.23,-0.03 0.22,-0.03 0.22,-0.01 0.22,0 0.23,-0.06 0.22,-0.03 0.22,-0.05 0.22,-0.03 0.23,0.04 0.22,0 0.22,-0.03 0.22,0.01 0.23,-0.02 0.22,-0.12 0.22,-0.03 0.22,0.06 0.23,0 0.22,-0.12 0.22,-0.03 0.22,-0.01 0.23,-0.07 0.22,-0.02 0.22,-0.04 0.22,0.07 0.22,0.03 0.23,-0.14 0.22,-0.12 0.22,0.02 0.22,-0.09 0.23,-0.02 0.22,-0.04 0.22,-0.06 0.22,0.08 0.23,0.15 0.22,-0.15 0.22,0.05 0.22,-0.08 0.23,-0.03 0.22,0.08 0.22,0.02 0.22,0.07 0.23,-0.15 0.22,0.04 0.22,-0.07 0.22,-0.05 0.23,0.1 0.22,-0.02 0.22,-0.01 0.22,-0.01 0.23,-0.13 0.22,-0.04 0.22,0.01 0.22,-0.08 0.23,-0.07 0.22,0.03 0.22,-0.07 0.22,0.03 0.23,0.03 0.22,-0.11 0.22,-0.16 0.22,-0.08 0.23,-0.06 0.22,0.06 0.22,-0.04 0.22,-0.18 0.23,0 0.22,0.04 0.22,-0.07 0.22,-0.04 0.23,0 0.22,0.03 0.22,-0.06 0.22,0 0.23,-0.02 0.22,-0.06 0.22,0.03 0.22,0.02 0.23,-0.08 0.22,0.05 0.22,0.03 0.22,-0.03 0.23,-0.04 0.22,-0.04 0.22,-0.07 0.22,-0.04 0.23,-0.03 0.22,-0.08 0.22,-0.02 0.22,-0.08 0.23,-0.01 0.22,-0.11 0.22,-0.02 0.22,-0.1 0.23,-0.06 0.22,-0.06 0.22,-0.09 0.22,-0.01 0.23,-0.04 0.22,-0.05 0.22,-0.06 0.22,-0.05 0.23,-0.01 0.22,-0.05 0.22,-0.03 0.22,-0.02 0.22,-0.08 0.23,-0.04 0.22,-0.06 0.22,-0.05 0.22,-0.04 0.23,-0.06 0.22,0.03 0.22,-0.03 0.22,-0.1 0.23,-0.03 0.22,-0.01 0.22,-0.02 0.22,-0.07 0.23,0.05 0.22,-0.13 0.22,0.01 0.22,-0.13 0.23,0 0.22,-0.13 0.22,0.03 0.22,0.06 0.23,-0.05 0.22,0 0.22,-0.11 0.22,-0.04 0.23,-0.04 0.22,-0.03 0.22,-0.03 0.22,0 0.23,-0.07 0.22,0.01 0.22,-0.12 0.22,0 0.23,0.05 0.22,-0.04 0.22,0.01 0.22,0 0.23,-0.13 0.22,-0.07 0.22,-0.05 0.22,-0.1 0.23,-0.07 0.22,-0.07 0.22,-0.08 0.22,-0.01 0.23,0.01 0.22,-0.07 0.22,-0.03 0.22,-0.03 0.23,0.04 0.22,0 0.22,-0.04 0.22,0.03 0.23,-0.05 0.22,-0.15 0.22,-0.07 0.22,-0.03 0.23,-0.05 0.22,-0.03 0.22,-0.12 0.22,-0.09 0.23,0.03 0.22,-0.03 0.22,-0.01 0.22,-0.08 0.23,-0.15 0.22,-0.06 0.22,-0.12 0.22,-0.04 0.23,-0.02 0.22,0.01 0.22,-0.05 0.22,-0.02 0.23,-0.1 0.22,-0.05 0.22,0 0.22,0 0.23,-0.07 0.22,-0.07 0.22,-0.07 0.22,0 0.23,-0.02 0.22,-0.01 0.22,-0.1 0.22,-0.06 0.22,-0.07 0.23,-0.04 0.22,-0.03 0.22,-0.03 0.22,-0.03 0.23,-0.03 0.22,-0.04 0.22,-0.07 0.22,-0.01 0.23,0.01 0.22,0.02 0.22,0.01 0.22,-0.04 0.23,-0.02 0.22,-0.02 0.22,-0.05 0.22,-0.03 0.23,0 0.22,-0.02 0.22,0 0.22,-0.02 0.23,-0.03 0.22,-0.04 0.22,-0.05 0.22,-0.06 0.23,-0.02 0.22,-0.01 0.22,-0.06 0.22,0 0.23,-0.03 0.22,0.02 0.22,-0.07 0.22,0 0.23,-0.05 0.22,-0.04 0.22,-0.09 0.22,-0.05 0.23,-0.03 0.22,0.01 0.22,-0.03 0.22,-0.01 0.23,-0.02 0.22,-0.09 0.22,0.03 0.22,-0.02 0.23,-0.03 0.22,-0.04 0.22,-0.01 0.22,0 0.23,-0.01 0.22,-0.03 0.22,0.02 0.22,0 0.23,-0.02 0.22,0 0.22,-0.01 0.22,-0.06 0.23,-0.01 0.22,-0.02 0.22,-0.03 0.22,-0.01 0.23,-0.04 0.22,0.02 0.22,-0.01 0.22,-0.02 0.23,0 0.22,-0.02 0.22,-0.03 0.22,-0.01 0.23,0.01 0.22,-0.03 0.22,0.01 0.22,-0.01 0.23,0 0.22,0 0.22,0 0.22,0.02 0.23,0 0.22,-0.01 0.22,-0.01 0.22,-0.02 0.22,-0.01 0.23,0 0.22,0 0.22,-0.01 0.22,-0.01 0.23,0 0.22,0 0.22,0.01 0.22,0.02 0.23,-0.01 0.22,-0.01 0.22,0.01 0.22,-0.01 0.23,0 0.22,0 0.22,-0.01 0.22,0 0.23,0 0.22,0 0.22,0 0.22,0 0.23,0 0.22,0 0.22,0 0.22,0 0.23,-0.01 0.22,0 0.22,-0.01 0.22,0 0.23,0 0.22,0 0.22,0 0.22,0 0.23,0 0.22,0 0.22,0 0.22,0 0.23,0 0.22,0 0.22,0 0.22,0 0.23,0 0.22,0 0.22,0 0.22,0 0.23,0 0.22,0 0.22,0 0.22,0 0.23,0 0.22,0 0.22,0 0.22,0 0.23,0 0.22,0 0.22,0 0.22,0 0.23,0 0.22,0 0.22,0 0.22,0 0.23,0 0.22,0 0.22,0 0.22,0 0.23,0 0.22,0 0.22,0 0.22,0 0.23,0 0.22,0 0.22,0 0.22,0 0.23,0 0.22,0 0.22,0 0.22,0 0.23,0 0.22,0 0.22,0"
           style="fill:none;stroke:#000000;stroke-width:0.75;stroke-linecap:round;stroke-linejoin:round;stroke-miterlimit:10;stroke-dasharray:none;stroke-opacity:1"
           id="path250"
           inkscape:connector-curvature="0" /><path
           d="m 205.78,232.29 200.22,0"
           style="fill:none;stroke:#00cd00;stroke-width:0.75;stroke-linecap:round;stroke-linejoin:round;stroke-miterlimit:10;stroke-dasharray:0, 3;stroke-dashoffset:0;stroke-opacity:1"
           id="path252"
           inkscape:connector-curvature="0" /></g></g><text
       xml:space="preserve"
       style="font-style:normal;font-weight:normal;font-size:15.57948494px;line-height:125%;font-family:sans-serif;text-align:center;letter-spacing:0px;word-spacing:0px;text-anchor:middle;fill:#000000;fill-opacity:1;stroke:none;stroke-width:1px;stroke-linecap:butt;stroke-linejoin:miter;stroke-opacity:1"
       x="190.24034"
       y="-634.81531"
       id="text4466"
       sodipodi:linespacing="125%"
       transform="scale(1,-1)"><tspan
         sodipodi:role="line"
         id="tspan4468"
         x="190.24034"
         y="-634.81531"
         style="font-style:normal;font-variant:normal;font-weight:normal;font-stretch:normal;font-size:8.65526962px;font-family:Arial;-inkscape-font-specification:Arial">Without pauses</tspan></text>
<text
       xml:space="preserve"
       style="font-style:normal;font-weight:normal;font-size:15.57948494px;line-height:125%;font-family:sans-serif;text-align:center;letter-spacing:0px;word-spacing:0px;text-anchor:middle;fill:#000000;fill-opacity:1;stroke:none;stroke-width:1px;stroke-linecap:butt;stroke-linejoin:miter;stroke-opacity:1"
       x="201.67387"
       y="-644.87756"
       id="text4466-5"
       sodipodi:linespacing="125%"
       transform="scale(1,-1)"><tspan
         sodipodi:role="line"
         id="tspan4468-0"
         x="201.67387"
         y="-644.87756"
         style="font-style:normal;font-variant:normal;font-weight:normal;font-stretch:normal;font-size:8.65526962px;font-family:Arial;-inkscape-font-specification:Arial">Termite (Lvy pause)</tspan></text>
<text
       xml:space="preserve"
       style="font-style:normal;font-weight:normal;font-size:15.57948494px;line-height:125%;font-family:sans-serif;text-align:center;letter-spacing:0px;word-spacing:0px;text-anchor:middle;fill:#000000;fill-opacity:1;stroke:none;stroke-width:1px;stroke-linecap:butt;stroke-linejoin:miter;stroke-opacity:1"
       x="175.50359"
       y="-624.5564"
       id="text4466-5-2"
       sodipodi:linespacing="125%"
       transform="scale(1,-1)"><tspan
         sodipodi:role="line"
         id="tspan4468-0-1"
         x="175.50359"
         y="-624.5564"
         style="font-style:normal;font-variant:normal;font-weight:normal;font-stretch:normal;font-size:8.65526962px;font-family:Arial;-inkscape-font-specification:Arial">Control</tspan></text>
<text
       xml:space="preserve"
       style="font-style:normal;font-weight:normal;font-size:18px;line-height:125%;font-family:sans-serif;text-align:center;letter-spacing:0px;word-spacing:0px;text-anchor:middle;fill:#000000;fill-opacity:1;stroke:none;stroke-width:1px;stroke-linecap:butt;stroke-linejoin:miter;stroke-opacity:1"
       x="683.4646"
       y="49.373993"
       id="text4309"
       sodipodi:linespacing="125%"
       transform="matrix(0,1,1,0,0,0)"><tspan
         sodipodi:role="line"
         id="tspan4311"
         x="683.4646"
         y="49.373993"
         style="font-style:normal;font-variant:normal;font-weight:normal;font-stretch:normal;font-size:11px;font-family:Arial;-inkscape-font-specification:Arial">Encounter rate</tspan></text>
<text
       xml:space="preserve"
       style="font-style:normal;font-weight:normal;font-size:18px;line-height:125%;font-family:sans-serif;text-align:center;letter-spacing:0px;word-spacing:0px;text-anchor:middle;fill:#000000;fill-opacity:1;stroke:none;stroke-width:1px;stroke-linecap:butt;stroke-linejoin:miter;stroke-opacity:1"
       x="182.1344"
       y="-575.35864"
       id="text4309-0"
       sodipodi:linespacing="125%"
       transform="scale(1,-1)"><tspan
         sodipodi:role="line"
         id="tspan4311-2"
         x="182.1344"
         y="-575.35864"
         style="font-style:normal;font-variant:normal;font-weight:normal;font-stretch:normal;font-size:11px;font-family:Arial;-inkscape-font-specification:Arial">Time (sec)</tspan></text>
<text
       xml:space="preserve"
       style="font-style:normal;font-weight:normal;font-size:18px;line-height:125%;font-family:sans-serif;text-align:center;letter-spacing:0px;word-spacing:0px;text-anchor:middle;fill:#000000;fill-opacity:1;stroke:none;stroke-width:1px;stroke-linecap:butt;stroke-linejoin:miter;stroke-opacity:1"
       x="65.259827"
       y="-744.62299"
       id="text4364"
       sodipodi:linespacing="125%"
       transform="scale(1,-1)"><tspan
         sodipodi:role="line"
         id="tspan4366"
         x="65.259827"
         y="-744.62299"
         style="font-style:normal;font-variant:normal;font-weight:normal;font-stretch:normal;font-size:9px;font-family:Arial;-inkscape-font-specification:Arial">0.4</tspan></text>
<text
       xml:space="preserve"
       style="font-style:normal;font-weight:normal;font-size:18px;line-height:125%;font-family:sans-serif;text-align:center;letter-spacing:0px;word-spacing:0px;text-anchor:middle;fill:#000000;fill-opacity:1;stroke:none;stroke-width:1px;stroke-linecap:butt;stroke-linejoin:miter;stroke-opacity:1"
       x="65.233459"
       y="-709.91003"
       id="text4364-7"
       sodipodi:linespacing="125%"
       transform="scale(1,-1)"><tspan
         sodipodi:role="line"
         id="tspan4366-3"
         x="65.233459"
         y="-709.91003"
         style="font-style:normal;font-variant:normal;font-weight:normal;font-stretch:normal;font-size:9px;font-family:Arial;-inkscape-font-specification:Arial">0.3</tspan></text>
<text
       xml:space="preserve"
       style="font-style:normal;font-weight:normal;font-size:18px;line-height:125%;font-family:sans-serif;text-align:center;letter-spacing:0px;word-spacing:0px;text-anchor:middle;fill:#000000;fill-opacity:1;stroke:none;stroke-width:1px;stroke-linecap:butt;stroke-linejoin:miter;stroke-opacity:1"
       x="65.299377"
       y="-675.19263"
       id="text4364-4"
       sodipodi:linespacing="125%"
       transform="scale(1,-1)"><tspan
         sodipodi:role="line"
         id="tspan4366-7"
         x="65.299377"
         y="-675.19263"
         style="font-style:normal;font-variant:normal;font-weight:normal;font-stretch:normal;font-size:9px;font-family:Arial;-inkscape-font-specification:Arial">0.2</tspan></text>
<text
       xml:space="preserve"
       style="font-style:normal;font-weight:normal;font-size:18px;line-height:125%;font-family:sans-serif;text-align:center;letter-spacing:0px;word-spacing:0px;text-anchor:middle;fill:#000000;fill-opacity:1;stroke:none;stroke-width:1px;stroke-linecap:butt;stroke-linejoin:miter;stroke-opacity:1"
       x="66.477112"
       y="-640.47748"
       id="text4364-6"
       sodipodi:linespacing="125%"
       transform="scale(1,-1)"><tspan
         sodipodi:role="line"
         id="tspan4366-1"
         x="66.477112"
         y="-640.47748"
         style="font-style:normal;font-variant:normal;font-weight:normal;font-stretch:normal;font-size:9px;font-family:Arial;-inkscape-font-specification:Arial">0.1</tspan></text>
<text
       xml:space="preserve"
       style="font-style:normal;font-weight:normal;font-size:18px;line-height:125%;font-family:sans-serif;text-align:center;letter-spacing:0px;word-spacing:0px;text-anchor:middle;fill:#000000;fill-opacity:1;stroke:none;stroke-width:1px;stroke-linecap:butt;stroke-linejoin:miter;stroke-opacity:1"
       x="69.008362"
       y="-605.76227"
       id="text4364-8"
       sodipodi:linespacing="125%"
       transform="scale(1,-1)"><tspan
         sodipodi:role="line"
         id="tspan4366-0"
         x="69.008362"
         y="-605.76227"
         style="font-style:normal;font-variant:normal;font-weight:normal;font-stretch:normal;font-size:9px;font-family:Arial;-inkscape-font-specification:Arial">0</tspan></text>
<text
       xml:space="preserve"
       style="font-style:normal;font-weight:normal;font-size:18px;line-height:125%;font-family:sans-serif;text-align:center;letter-spacing:0px;word-spacing:0px;text-anchor:middle;fill:#000000;fill-opacity:1;stroke:none;stroke-width:1px;stroke-linecap:butt;stroke-linejoin:miter;stroke-opacity:1"
       x="86.427704"
       y="-588.47565"
       id="text4364-8-9"
       sodipodi:linespacing="125%"
       transform="scale(1,-1)"><tspan
         sodipodi:role="line"
         id="tspan4366-0-8"
         x="86.427704"
         y="-588.47565"
         style="font-style:normal;font-variant:normal;font-weight:normal;font-stretch:normal;font-size:9px;font-family:Arial;-inkscape-font-specification:Arial">0</tspan></text>
<text
       xml:space="preserve"
       style="font-style:normal;font-weight:normal;font-size:18px;line-height:125%;font-family:sans-serif;text-align:center;letter-spacing:0px;word-spacing:0px;text-anchor:middle;fill:#000000;fill-opacity:1;stroke:none;stroke-width:1px;stroke-linecap:butt;stroke-linejoin:miter;stroke-opacity:1"
       x="140.0061"
       y="-588.47565"
       id="text4364-8-7"
       sodipodi:linespacing="125%"
       transform="scale(1,-1)"><tspan
         sodipodi:role="line"
         id="tspan4366-0-0"
         x="140.0061"
         y="-588.47565"
         style="font-style:normal;font-variant:normal;font-weight:normal;font-stretch:normal;font-size:9px;font-family:Arial;-inkscape-font-specification:Arial">50</tspan></text>
<text
       xml:space="preserve"
       style="font-style:normal;font-weight:normal;font-size:18px;line-height:125%;font-family:sans-serif;text-align:center;letter-spacing:0px;word-spacing:0px;text-anchor:middle;fill:#000000;fill-opacity:1;stroke:none;stroke-width:1px;stroke-linecap:butt;stroke-linejoin:miter;stroke-opacity:1"
       x="193.28107"
       y="-588.47565"
       id="text4364-8-3"
       sodipodi:linespacing="125%"
       transform="scale(1,-1)"><tspan
         sodipodi:role="line"
         id="tspan4366-0-3"
         x="193.28107"
         y="-588.47565"
         style="font-style:normal;font-variant:normal;font-weight:normal;font-stretch:normal;font-size:9px;font-family:Arial;-inkscape-font-specification:Arial">100</tspan></text>
<text
       xml:space="preserve"
       style="font-style:normal;font-weight:normal;font-size:18px;line-height:125%;font-family:sans-serif;text-align:center;letter-spacing:0px;word-spacing:0px;text-anchor:middle;fill:#000000;fill-opacity:1;stroke:none;stroke-width:1px;stroke-linecap:butt;stroke-linejoin:miter;stroke-opacity:1"
       x="246.85925"
       y="-588.47565"
       id="text4364-8-70"
       sodipodi:linespacing="125%"
       transform="scale(1,-1)"><tspan
         sodipodi:role="line"
         id="tspan4366-0-00"
         x="246.85925"
         y="-588.47565"
         style="font-style:normal;font-variant:normal;font-weight:normal;font-stretch:normal;font-size:9px;font-family:Arial;-inkscape-font-specification:Arial">150</tspan></text>
</g></svg>