<?xml version="1.0" encoding="UTF-8" standalone="no"?>
<!-- Created with Inkscape (http://www.inkscape.org/) -->

<svg
   xmlns:dc="http://purl.org/dc/elements/1.1/"
   xmlns:cc="http://creativecommons.org/ns#"
   xmlns:rdf="http://www.w3.org/1999/02/22-rdf-syntax-ns#"
   xmlns:svg="http://www.w3.org/2000/svg"
   xmlns="http://www.w3.org/2000/svg"
   xmlns:sodipodi="http://sodipodi.sourceforge.net/DTD/sodipodi-0.dtd"
   xmlns:inkscape="http://www.inkscape.org/namespaces/inkscape"
   id="svg2"
   version="1.1"
   inkscape:version="0.91 r13725"
   xml:space="preserve"
   width="765"
   height="990"
   viewBox="0 0 765 990"
   sodipodi:docname="170829_sim1.svg"><metadata
     id="metadata8"><rdf:RDF><cc:Work
         rdf:about=""><dc:format>image/svg+xml</dc:format><dc:type
           rdf:resource="http://purl.org/dc/dcmitype/StillImage" /><dc:title /></cc:Work></rdf:RDF></metadata><defs
     id="defs6"><clipPath
       clipPathUnits="userSpaceOnUse"
       id="clipPath20"><path
         d="m 133.2,266.4 345.6,0 0,259.2 -345.6,0 0,-259.2 z"
         id="path22"
         inkscape:connector-curvature="0" /></clipPath><clipPath
       clipPathUnits="userSpaceOnUse"
       id="clipPath28"><path
         d="m 133.2,266.4 345.6,0 0,259.2 -345.6,0 0,-259.2 z"
         id="path30"
         inkscape:connector-curvature="0" /></clipPath><clipPath
       clipPathUnits="userSpaceOnUse"
       id="clipPath128"><path
         d="m 133.2,266.4 345.6,0 0,259.2 -345.6,0 0,-259.2 z"
         id="path130"
         inkscape:connector-curvature="0" /></clipPath></defs><sodipodi:namedview
     pagecolor="#ffffff"
     bordercolor="#666666"
     borderopacity="1"
     objecttolerance="10"
     gridtolerance="10"
     guidetolerance="10"
     inkscape:pageopacity="0"
     inkscape:pageshadow="2"
     inkscape:window-width="1920"
     inkscape:window-height="1017"
     id="namedview4"
     showgrid="false"
     inkscape:zoom="0.67425131"
     inkscape:cx="75.836534"
     inkscape:cy="494.88328"
     inkscape:window-x="-8"
     inkscape:window-y="-8"
     inkscape:window-maximized="1"
     inkscape:current-layer="g10" /><g
     id="g10"
     inkscape:groupmode="layer"
     inkscape:label="170829_sim1"
     transform="matrix(1.25,0,0,-1.25,0,990)"><rect
       style="opacity:1;fill:#ffffff;fill-opacity:1;stroke:#000000;stroke-width:0;stroke-linecap:square;stroke-miterlimit:10;stroke-dasharray:none;stroke-dashoffset:0;stroke-opacity:1"
       id="rect4406"
       width="473.18643"
       height="344.82205"
       x="52.568039"
       y="-768.24524"
       transform="scale(1,-1)"
       inkscape:export-filename="E:\Dropbox\research\with_dropbox\papers and projects\2017\Sex movement after separation\170829_Sim1.png"
       inkscape:export-xdpi="1000"
       inkscape:export-ydpi="1000" /><g
       id="g16"><g
         id="g18"
         clip-path="url(#clipPath20)" /></g><g
       id="g24"
       style="stroke-width:1;stroke-miterlimit:10;stroke-dasharray:none"
       inkscape:export-filename="E:\Dropbox\research\with_dropbox\papers and projects\2017\Sex movement after separation\170829_Sim1.png"
       inkscape:export-xdpi="1000"
       inkscape:export-ydpi="1000"
       transform="translate(4.7460049,223.06223)"><g
         id="g26"
         clip-path="url(#clipPath28)"
         style="stroke-width:1;stroke-miterlimit:10;stroke-dasharray:none"><path
           d="m 146.18,276 0.18,0 0.17,0 0.18,0 0.18,0 0.18,0 0.17,0 0.18,0 0.18,0 0.18,0 0.18,0 0.17,0 0.18,0 0.18,0 0.18,0 0.17,0 0.18,0.53 0.18,0.99 0.18,1.28 0.18,1.38 0.17,1.31 0.18,1.39 0.18,1.33 0.18,1.23 0.17,1.31 0.18,1.35 0.18,1.27 0.18,1.3 0.18,1.07 0.17,1.27 0.18,1.37 0.18,1.24 0.18,1.1 0.17,1.07 0.18,1.02 0.18,1.06 0.18,1.04 0.18,1.22 0.17,0.83 0.18,0.83 0.18,0.87 0.18,1.13 0.17,1.01 0.18,1.05 0.18,0.95 0.18,0.88 0.18,0.9 0.17,0.95 0.18,0.87 0.18,0.92 0.18,0.9 0.17,0.9 0.18,0.9 0.18,0.8 0.18,0.91 0.18,0.82 0.17,0.91 0.18,0.76 0.18,0.89 0.18,0.83 0.17,0.74 0.18,0.65 0.18,0.72 0.18,0.86 0.18,0.72 0.17,0.61 0.18,0.72 0.18,0.89 0.18,0.62 0.17,0.76 0.18,0.67 0.18,0.74 0.18,0.74 0.18,0.62 0.17,0.65 0.18,0.66 0.18,0.69 0.18,0.53 0.17,0.55 0.18,0.56 0.18,0.68 0.18,0.65 0.18,0.61 0.17,0.73 0.18,0.49 0.18,0.63 0.18,0.51 0.17,0.63 0.18,0.42 0.18,0.61 0.18,0.51 0.18,0.51 0.17,0.57 0.18,0.71 0.18,0.51 0.18,0.57 0.17,0.52 0.18,0.49 0.18,0.48 0.18,0.56 0.18,0.44 0.17,0.5 0.18,0.48 0.18,0.42 0.18,0.43 0.17,0.48 0.18,0.48 0.18,0.4 0.18,0.42 0.18,0.51 0.17,0.52 0.18,0.5 0.18,0.49 0.18,0.43 0.17,0.4 0.18,0.51 0.18,0.47 0.18,0.45 0.18,0.53 0.17,0.51 0.18,0.36 0.18,0.46 0.18,0.43 0.17,0.38 0.18,0.44 0.18,0.33 0.18,0.38 0.18,0.37 0.17,0.54 0.18,0.51 0.18,0.38 0.18,0.39 0.17,0.36 0.18,0.33 0.18,0.36 0.18,0.38 0.18,0.44 0.17,0.24 0.18,0.36 0.18,0.52 0.18,0.37 0.17,0.39 0.18,0.37 0.18,0.38 0.18,0.34 0.18,0.29 0.17,0.33 0.18,0.51 0.18,0.36 0.18,0.41 0.17,0.27 0.18,0.42 0.18,0.27 0.18,0.36 0.18,0.34 0.17,0.41 0.18,0.26 0.18,0.31 0.18,0.34 0.17,0.38 0.18,0.28 0.18,0.34 0.18,0.34 0.18,0.32 0.17,0.31 0.18,0.37 0.18,0.26 0.18,0.29 0.17,0.28 0.18,0.26 0.18,0.28 0.18,0.42 0.18,0.25 0.17,0.35 0.18,0.31 0.18,0.37 0.18,0.33 0.17,0.31 0.18,0.23 0.18,0.25 0.18,0.31 0.18,0.31 0.17,0.26 0.18,0.23 0.18,0.25 0.18,0.27 0.17,0.26 0.18,0.29 0.18,0.22 0.18,0.26 0.18,0.18 0.17,0.28 0.18,0.21 0.18,0.23 0.18,0.3 0.17,0.31 0.18,0.29 0.18,0.29 0.18,0.23 0.18,0.27 0.17,0.26 0.18,0.29 0.18,0.17 0.18,0.18 0.17,0.22 0.18,0.21 0.18,0.29 0.18,0.2 0.18,0.22 0.17,0.26 0.18,0.26 0.18,0.22 0.18,0.24 0.17,0.24 0.18,0.26 0.18,0.23 0.18,0.2 0.18,0.27 0.17,0.28 0.18,0.22 0.18,0.2 0.18,0.2 0.17,0.21 0.18,0.23 0.18,0.19 0.18,0.21 0.18,0.21 0.17,0.21 0.18,0.29 0.18,0.27 0.18,0.21 0.17,0.23 0.18,0.24 0.18,0.24 0.18,0.19 0.18,0.2 0.17,0.16 0.18,0.21 0.18,0.24 0.18,0.25 0.17,0.21 0.18,0.2 0.18,0.17 0.18,0.14 0.18,0.2 0.17,0.23 0.18,0.18 0.18,0.21 0.18,0.16 0.17,0.17 0.18,0.25 0.18,0.25 0.18,0.24 0.18,0.22 0.17,0.22 0.18,0.22 0.18,0.17 0.18,0.13 0.17,0.16 0.18,0.21 0.18,0.21 0.18,0.23 0.18,0.24 0.17,0.2 0.18,0.25 0.18,0.23 0.18,0.16 0.17,0.22 0.18,0.16 0.18,0.24 0.18,0.11 0.18,0.18 0.17,0.16 0.18,0.19 0.18,0.19 0.18,0.18 0.17,0.15 0.18,0.17 0.18,0.17 0.18,0.16 0.18,0.17 0.17,0.16 0.18,0.17 0.18,0.15 0.18,0.22 0.17,0.23 0.18,0.18 0.18,0.16 0.18,0.16 0.18,0.15 0.17,0.24 0.18,0.15 0.18,0.15 0.18,0.2 0.17,0.16 0.18,0.19 0.18,0.2 0.18,0.17 0.18,0.15 0.17,0.11 0.18,0.17 0.18,0.13 0.18,0.17 0.17,0.16 0.18,0.26 0.18,0.18 0.18,0.17 0.18,0.18 0.17,0.11 0.18,0.22 0.18,0.16 0.18,0.21 0.17,0.17 0.18,0.13 0.18,0.17 0.18,0.16 0.18,0.21 0.17,0.14 0.18,0.16 0.18,0.21 0.18,0.15 0.17,0.17 0.18,0.2 0.18,0.22 0.18,0.14 0.18,0.13 0.17,0.12 0.18,0.14 0.18,0.19 0.18,0.19 0.17,0.17 0.18,0.19 0.18,0.2 0.18,0.15 0.18,0.15 0.17,0.12 0.18,0.14 0.18,0.13 0.18,0.19 0.17,0.21 0.18,0.17 0.18,0.11 0.18,0.18 0.18,0.17 0.17,0.16 0.18,0.2 0.18,0.14 0.18,0.17 0.17,0.2 0.18,0.14 0.18,0.12 0.18,0.2 0.18,0.14 0.17,0.18 0.18,0.16 0.18,0.16 0.18,0.16 0.17,0.12 0.18,0.14 0.18,0.19 0.18,0.1 0.18,0.16 0.17,0.1 0.18,0.14 0.18,0.13 0.18,0.12 0.17,0.19 0.18,0.07 0.18,0.16 0.18,0.2 0.18,0.1 0.17,0.19 0.18,0.12 0.18,0.13 0.18,0.09 0.17,0.13 0.18,0.09 0.18,0.12 0.18,0.1 0.18,0.1 0.17,0.11 0.18,0.11 0.18,0.14 0.18,0.12 0.17,0.21 0.18,0.1 0.18,0.07 0.18,0.13 0.18,0.1 0.17,0.2 0.18,0.17 0.18,0.11 0.18,0.11 0.17,0.11 0.18,0.11 0.18,0.13 0.18,0.13 0.18,0.11 0.17,0.11 0.18,0.13 0.18,0.11 0.18,0.16 0.17,0.15 0.18,0.13 0.18,0.08 0.18,0.14 0.18,0.11 0.17,0.11 0.18,0.07 0.18,0.15 0.18,0.14 0.17,0.17 0.18,0.1 0.18,0.15 0.18,0.11 0.18,0.09 0.17,0.13 0.18,0.14 0.18,0.17 0.18,0.14 0.17,0.11 0.18,0.13 0.18,0.09 0.18,0.15 0.18,0.11 0.17,0.12 0.18,0.13 0.18,0.1 0.18,0.12 0.17,0.12 0.18,0.1 0.18,0.14 0.18,0.13 0.18,0.11 0.17,0.13 0.18,0.18 0.18,0.09 0.18,0.08 0.17,0.08 0.18,0.05 0.18,0.08 0.18,0.12 0.18,0.11 0.17,0.11 0.18,0.07 0.18,0.1 0.18,0.11 0.17,0.08 0.18,0.1 0.18,0.06 0.18,0.1 0.18,0.1 0.17,0.11 0.18,0.13 0.18,0.11 0.18,0.11 0.17,0.11 0.18,0.08 0.18,0.11 0.18,0.12 0.18,0.06 0.17,0.08 0.18,0.1 0.18,0.1 0.18,0.12 0.17,0.16 0.18,0.16 0.18,0.13 0.18,0.13 0.18,0.11 0.17,0.15 0.18,0.11 0.18,0.08 0.18,0.12 0.17,0.06 0.18,0.11 0.18,0.1 0.18,0.1 0.18,0.06 0.17,0.14 0.18,0.11 0.18,0.06 0.18,0.09 0.17,0.08 0.18,0.11 0.18,0.09 0.18,0.11 0.18,0.11 0.17,0.11 0.18,0.04 0.18,0.13 0.18,0.1 0.17,0.11 0.18,0.1 0.18,0.08 0.18,0.1 0.18,0.11 0.17,0.13 0.18,0.1 0.18,0.06 0.18,0.08 0.17,0.12 0.18,0.11 0.18,0.09 0.18,0.09 0.18,0.13 0.17,0.13 0.18,0.09 0.18,0.08 0.18,0.11 0.17,0.09 0.18,0.08 0.18,0.08 0.18,0.15 0.18,0.12 0.17,0.12 0.18,0.11 0.18,0.09 0.18,0.05 0.17,0.07 0.18,0.1 0.18,0.08 0.18,0.06 0.18,0.09 0.17,0.11 0.18,0.08 0.18,0.05 0.18,0.11 0.17,0.04 0.18,0.1 0.18,0.1 0.18,0.11 0.18,0.07 0.17,0.12 0.18,0.11 0.18,0.09 0.18,0.11 0.17,0.08 0.18,0.14 0.18,0.09 0.18,0.1 0.18,0.12 0.17,0.1 0.18,0.07 0.18,0.1 0.18,0.08 0.17,0.08 0.18,0.08 0.18,0.08 0.18,0.09 0.18,0.11 0.17,0.07 0.18,0.05 0.18,0.06 0.18,0.09 0.17,0.1 0.18,0.18 0.18,0.08 0.18,0.03 0.18,0.13 0.17,0.04 0.18,0.06 0.18,0.11 0.18,0.15 0.17,0.1 0.18,0.09 0.18,0.08 0.18,0.05 0.18,0.07 0.17,0.09 0.18,0.09 0.18,0.11 0.18,0.1 0.17,0.06 0.18,0.05 0.18,0.11 0.18,0.13 0.18,0.06 0.17,0.08 0.18,0.07 0.18,0.09 0.18,0.07 0.17,0.09 0.18,0.09 0.18,0.11 0.18,0.06 0.18,0.09 0.17,0.05 0.18,0.05 0.18,0.08 0.18,0.09 0.17,0.11 0.18,0.07 0.18,0.09 0.18,0.11 0.18,0.08 0.17,0.08 0.18,0.04 0.18,0.06 0.18,0.07 0.17,0.09 0.18,0.08 0.18,0.06 0.18,0.09 0.18,0.09 0.17,0.07 0.18,0.07 0.18,0.09 0.18,0.1 0.17,0.08 0.18,0.16 0.18,0.05 0.18,0.09 0.18,0.08 0.17,0.08 0.18,0.05 0.18,0.07 0.18,0.1 0.17,0.07 0.18,0.08 0.18,0.11 0.18,0.06 0.18,0.11 0.17,0.07 0.18,0.05 0.18,0.06 0.18,0.05 0.17,0.08 0.18,0.1 0.18,0.1 0.18,0.12 0.18,0.1 0.17,0.06 0.18,0.07 0.18,0.05 0.18,0.05 0.17,0.06 0.18,0.05 0.18,0.09 0.18,0.11 0.18,0.09 0.17,0.07 0.18,0.04 0.18,0.08 0.18,0.06 0.17,0.07 0.18,0.12 0.18,0.09 0.18,0.04 0.18,0.11 0.17,0.03 0.18,0.07 0.18,0.11 0.18,0.06 0.17,0.06 0.18,0.1 0.18,0.05 0.18,0.05 0.18,0.08 0.17,0.06 0.18,0.03 0.18,0.06 0.18,0.08 0.17,0.07 0.18,0.06 0.18,0.07 0.18,0.04 0.18,0.05 0.17,0.04 0.18,0.08 0.18,0.06 0.18,0.06 0.17,0.05 0.18,0.08 0.18,0.07 0.18,0.03 0.18,0.08 0.17,0.09 0.18,0.06 0.18,0.05 0.18,0.06 0.17,0.11 0.18,0.1 0.18,0.06 0.18,0.08 0.18,0.05 0.17,0.1 0.18,0.02 0.18,0.1 0.18,0.06 0.17,0.08 0.18,0.05 0.18,0.11 0.18,0.06 0.18,0.08 0.17,0.07 0.18,0.06 0.18,0.08 0.18,0.11 0.17,0.08 0.18,0.07 0.18,0.06 0.18,0.03 0.18,0.04 0.17,0.04 0.18,0.07 0.18,0.08 0.18,0.05 0.17,0.07 0.18,0.1 0.18,0.05 0.18,0.08 0.18,0.05 0.17,0.08 0.18,0.06 0.18,0.06 0.18,0.05 0.17,0.07 0.18,0.07 0.18,0.07 0.18,0.05 0.18,0.06 0.17,0.1 0.18,0.08 0.18,0.06 0.18,0.02 0.17,0.08 0.18,0.05 0.18,0.04 0.18,0.05 0.18,0.04 0.17,0.06 0.18,0.04 0.18,0.1 0.18,0.05 0.17,0.07 0.18,0.09 0.18,0.07 0.18,0.03 0.18,0.03 0.17,0.07 0.18,0.04 0.18,0.05 0.18,0.05 0.17,0.05 0.18,0.05 0.18,0.03 0.18,0.08 0.18,0.05 0.17,0.08 0.18,0.09 0.18,0.06 0.18,0.05 0.17,0.08 0.18,0.06 0.18,0.04 0.18,0.06 0.18,0.06 0.17,0.04 0.18,0.07 0.18,0.06 0.18,0.06 0.17,0.05 0.18,0.05 0.18,0.07 0.18,0.08 0.18,0.04 0.17,0.06 0.18,0.07 0.18,0.04 0.18,0.02 0.17,0.06 0.18,0.07 0.18,0.09 0.18,0.07 0.18,0.05 0.17,0.05 0.18,0.08 0.18,0.04 0.18,0.06 0.17,0.07 0.18,0.06 0.18,0.05 0.18,0.04 0.18,0.06 0.17,0.02 0.18,0.03 0.18,0.07 0.18,0.07 0.17,0.06 0.18,0.09 0.18,0.06 0.18,0.03 0.18,0.05 0.17,0.06 0.18,0.04 0.18,0.1 0.18,0.04 0.17,0.05 0.18,0.07 0.18,0.04 0.18,0.07 0.18,0.04 0.17,0.11 0.18,0.05 0.18,0.06 0.18,0.04 0.17,0.05 0.18,0.05 0.18,0.05 0.18,0.06 0.18,0.06 0.17,0.06 0.18,0.04 0.18,0.05 0.18,0.04 0.17,0.09 0.18,0.04 0.18,0.09 0.18,0.04 0.18,0.06 0.17,0.04 0.18,0.06 0.18,0.05 0.18,0.08 0.17,0.06 0.18,0.05 0.18,0.04 0.18,0.05 0.18,0.06 0.17,0.04 0.18,0.04 0.18,0.05 0.18,0 0.17,0.05 0.18,0.07 0.18,0.06 0.18,0.02 0.18,0.08 0.17,0.04 0.18,0.03 0.18,0.06 0.18,0.05 0.17,0.08 0.18,0.05 0.18,0.07 0.18,0.08 0.18,0.04 0.17,0.03 0.18,0.06 0.18,0.07 0.18,0.06 0.17,0.03 0.18,0.06 0.18,0.02 0.18,0.05 0.18,0.05 0.17,0.05 0.18,0.04 0.18,0.04 0.18,0.05 0.17,0.09 0.18,0.03 0.18,0.04 0.18,0.04 0.18,0.06 0.17,0.08 0.18,0.04 0.18,0.01 0.18,0.04 0.17,0.07 0.18,0.03 0.18,0.04 0.18,0.09 0.18,0.06 0.17,0.07 0.18,0.04 0.18,0.06 0.18,0.04 0.17,0.05 0.18,0.09 0.18,0.06 0.18,0.07 0.18,0.04 0.17,0.07 0.18,0.05 0.18,0.04 0.18,0.07 0.17,0.03 0.18,0.05 0.18,0.04 0.18,0.03 0.18,0.06 0.17,0.08 0.18,0.07 0.18,0.08 0.18,0.04 0.17,0.01 0.18,0.03 0.18,0.07 0.18,0.03 0.18,0.07 0.17,0.05 0.18,0.03 0.18,0.06 0.18,0.09 0.17,0.08 0.18,0.07 0.18,0.04 0.18,0.05 0.18,0.02 0.17,0.04 0.18,0.05 0.18,0.06 0.18,0.04 0.17,0.05 0.18,0.03 0.18,0.08 0.18,0.04 0.18,0.06 0.17,0.04 0.18,0.03 0.18,0.04 0.18,0.06 0.17,0.05 0.18,0.04 0.18,0.03 0.18,0.05 0.18,0.03 0.17,0.01 0.18,0.02 0.18,0.03 0.18,0.06 0.17,0.06 0.18,0.04 0.18,0.03 0.18,0.05 0.18,0.06 0.17,0.06 0.18,0.08 0.18,0.05 0.18,0.07 0.17,0.03 0.18,0.03 0.18,0.03 0.18,0.1 0.18,0.07 0.17,0.06 0.18,0.05 0.18,0.04 0.18,0.02 0.17,0.05 0.18,0.08 0.18,0.07 0.18,0.05 0.18,0.07 0.17,0.04 0.18,0.06 0.18,0.03 0.18,0.09 0.17,0.06 0.18,0.04 0.18,0.04 0.18,0.07 0.18,0.05 0.17,0.07 0.18,0.05 0.18,0.05 0.18,0.04 0.17,0.06 0.18,0.04 0.18,0.07 0.18,0.04 0.18,0.06 0.17,0.03 0.18,0.02 0.18,0.02 0.18,0.02 0.17,0.03 0.18,0.02 0.18,0.02 0.18,0.05 0.18,0.06 0.17,0.05 0.18,0.05 0.18,0.06 0.18,0.03 0.17,0.05 0.18,0.05 0.18,0.04 0.18,0.03 0.18,0.05 0.17,0.05 0.18,0.04 0.18,0.07 0.18,0.04 0.17,0.05 0.18,0.05 0.18,0.05 0.18,0.05 0.18,0.01 0.17,0.08 0.18,0.05 0.18,0.05 0.18,0.06 0.17,0.06 0.18,0.02 0.18,0.06 0.18,0.03 0.18,0.02 0.17,0.04 0.18,0.03 0.18,0.04 0.18,0.03 0.17,0.05 0.18,0.04 0.18,0.02 0.18,0.05 0.18,0.05 0.17,0.04 0.18,0.07 0.18,0.1 0.18,0.06 0.17,0.03 0.18,0.04 0.18,0.03 0.18,0.06 0.18,0.02 0.17,0.09 0.18,0.04 0.18,0.06 0.18,0.05 0.17,0.05 0.18,0.02 0.18,0.03 0.18,0.07 0.18,0.03 0.17,0.06 0.18,0.02 0.18,0.03 0.18,0.06 0.17,0.03 0.18,0.02 0.18,0.05 0.18,0.04 0.18,0.02 0.17,0.06 0.18,0.01 0.18,0.04 0.18,0.04 0.17,0.03 0.18,0.04 0.18,0.05 0.18,0.07 0.18,0.05 0.17,0.04 0.18,0.05 0.18,0.04 0.18,0.09 0.17,0.04 0.18,0.09 0.18,0.06 0.18,0.04 0.18,0.03 0.17,0.01 0.18,0.08 0.18,0.06 0.18,0.06 0.17,0.02 0.18,0.03 0.18,0.05 0.18,0.04 0.18,0.04 0.17,0.02 0.18,0.04 0.18,0.01 0.18,0.05 0.17,0.03 0.18,0.03 0.18,0.04 0.18,0.03 0.18,0.02 0.17,0.03 0.18,0.03 0.18,0.06 0.18,0.04 0.17,0.05 0.18,0.07 0.18,0.04 0.18,0.03 0.18,0.04 0.17,0.04 0.18,0.02 0.18,0.05 0.18,0.04 0.17,0.04 0.18,0.03 0.18,0.04 0.18,0.02 0.18,0.04 0.17,0.06 0.18,0.04 0.18,0.03 0.18,0.03 0.17,0.03 0.18,0.08 0.18,0.04 0.18,0.02 0.18,0.04 0.17,0.04 0.18,0.03 0.18,0.01 0.18,0.05 0.17,0.07 0.18,0.06 0.18,0.01 0.18,0.04 0.18,0.06 0.17,0.03 0.18,0.03 0.18,0.05 0.18,0.05 0.17,0.02 0.18,0.01 0.18,0.03 0.18,0.05 0.18,0.06 0.17,0.06 0.18,0.05 0.18,0.02 0.18,0.05 0.17,0.05 0.18,0.04 0.18,0.03 0.18,0.05 0.18,0.05 0.17,0.05 0.18,0.03 0.18,0.05 0.18,0.04 0.17,0.04 0.18,0.03 0.18,0.05 0.18,0.01 0.18,0.05 0.17,0.06 0.18,0.07 0.18,0.04 0.18,0.04 0.17,0.07 0.18,0.02 0.18,0.01 0.18,0.04 0.18,0.05 0.17,0.03 0.18,0.02 0.18,0.03 0.18,0.04 0.17,0.02 0.18,0.05 0.18,0.06 0.18,0.03 0.18,0.05 0.17,0.05 0.18,0.04 0.18,0.02 0.18,0.03 0.17,0.02 0.18,0.06 0.18,0.03 0.18,0.02 0.18,0.01 0.17,0.02 0.18,0.03 0.18,0.04 0.18,0.05 0.17,0.04 0.18,0.02 0.18,0.03 0.18,0.05 0.18,0.04 0.17,0.02 0.18,0.05 0.18,0.06 0.18,0.03 0.17,0.03 0.18,0.04 0.18,0.03 0.18,0.02 0.18,0.04 0.17,0.04 0.18,0.04 0.18,0.03 0.18,0.04 0.17,0.03 0.18,0.03 0.18,0.01 0.18,0.06 0.18,0.01 0.17,0.04 0.18,0.06 0.18,0.05 0.18,0.02 0.17,0.04 0.18,0.04 0.18,0.05 0.18,0.04 0.18,0.04 0.17,0.03 0.18,0.04 0.18,0.03 0.18,0.07 0.17,0.05 0.18,0.03 0.18,0.04 0.18,0.03 0.18,0.05 0.17,0.03 0.18,0.03 0.18,0.04 0.18,0.04 0.17,0.05 0.18,0.02 0.18,0.03 0.18,0.05 0.18,0.01 0.17,0.04 0.18,0.04 0.18,0.02 0.18,0.02 0.17,0.04 0.18,0.02 0.18,0.03 0.18,0.06 0.18,0.01 0.17,0.06 0.18,0.04 0.18,0.03 0.18,0.04 0.17,0.06 0.18,0.03 0.18,0.02 0.18,0.02 0.18,0.04 0.17,0.03 0.18,0.05 0.18,0.01 0.18,0.02 0.17,0.01 0.18,0.08 0.18,0.03 0.18,0.03 0.18,0.02 0.17,0.05 0.18,0.04 0.18,0.03 0.18,0.05 0.17,0.03 0.18,0.03 0.18,0.01 0.18,0.04 0.18,0.01 0.17,0.03 0.18,0.01 0.18,0.03 0.18,0.02 0.17,0.03 0.18,0.05 0.18,0.02 0.18,0.03 0.18,0.02 0.17,0.03 0.18,0.04 0.18,0.07 0.18,0.03 0.17,0.04 0.18,0.02 0.18,0.02 0.18,0.03 0.18,0.03 0.17,0.03 0.18,0.02 0.18,0.05 0.18,0.03 0.17,0.04 0.18,0.05 0.18,0.07 0.18,0.06 0.18,0.02 0.17,0.01 0.18,0.04 0.18,0.07 0.18,0.06 0.17,0.03 0.18,0.03 0.18,0.02 0.18,0.02 0.18,0.01 0.17,0.01 0.18,0.03 0.18,0.01 0.18,0.01 0.17,0.03 0.18,0.04 0.18,0.04 0.18,0.02 0.18,0.04 0.17,0.03 0.18,0.03 0.18,0.01 0.18,0.02 0.17,0.03 0.18,0.02 0.18,0.03 0.18,0.04 0.18,0.06 0.17,0.02 0.18,0.03 0.18,0.02 0.18,0.06 0.17,0.02 0.18,0.01 0.18,0.02 0.18,0.03 0.18,0.05 0.17,0.03 0.18,0.04 0.18,0.01 0.18,0.01 0.17,0.04 0.18,0.02 0.18,0.04 0.18,0.01 0.18,0.02 0.17,0.04 0.18,0.02 0.18,0.04 0.18,0.02 0.17,0.05 0.18,0.03 0.18,0.05 0.18,0.01 0.18,0.02 0.17,0.04 0.18,0.01 0.18,0.04 0.18,0.02 0.17,0.01 0.18,0.05 0.18,0.03 0.18,0.04 0.18,0.02 0.17,0.02 0.18,0.03 0.18,0.05 0.18,0.02 0.17,0.03 0.18,0.01 0.18,0.05 0.18,0.01 0.18,0.06 0.17,0.01 0.18,0.03 0.18,0.03 0.18,0.03 0.17,0.03 0.18,0.03 0.18,0.02 0.18,0.04 0.18,0.03 0.17,0.02 0.18,0.03 0.18,0.03 0.18,0.04 0.17,0.01 0.18,0.04 0.18,0 0.18,0.04 0.18,0 0.17,0.03 0.18,0.03 0.18,0.03 0.18,0.02 0.17,0.02 0.18,0.04 0.18,0.05 0.18,0.05 0.18,0.04 0.17,0.03 0.18,0.01 0.18,0 0.18,0.04 0.17,0.01 0.18,0.01 0.18,0.02 0.18,0.02 0.18,0.03 0.17,0.03 0.18,0.02 0.18,0.02 0.18,0.03 0.17,0.04 0.18,0.02 0.18,0.06 0.18,0.02 0.18,0.03 0.17,0.04 0.18,0.04 0.18,0.05 0.18,0.02 0.17,0.04 0.18,0.02 0.18,0.02 0.18,0.05 0.18,0.02 0.17,0.04 0.18,0.03 0.18,0.03 0.18,0 0.17,0.03 0.18,0.01 0.18,0.05 0.18,0.03 0.18,0.04 0.17,0.02 0.18,0.05 0.18,0 0.18,0.04 0.17,0.06 0.18,0.03 0.18,0.04 0.18,0.01 0.18,0.05 0.17,0.01 0.18,0.02 0.18,0.03 0.18,0.01 0.17,0.01 0.18,0.02 0.18,0.03 0.18,0.02 0.18,0.01 0.17,0.04 0.18,0.03 0.18,0.02 0.18,0.02 0.17,0.02 0.18,0.02 0.18,0.02 0.18,0.01 0.18,0.02 0.17,0.02 0.18,0.03 0.18,0.01 0.18,0 0.17,0.02 0.18,0 0.18,0.01 0.18,0.04 0.18,0.02 0.17,0.02 0.18,0.02 0.18,0.03 0.18,0.03 0.17,0.03 0.18,0.04 0.18,0.02 0.18,0.04 0.18,0.03 0.17,0.02 0.18,0.03 0.18,0.03 0.18,0.01 0.17,0.02 0.18,0.03 0.18,0.06 0.18,0.02 0.18,0.02 0.17,0.02 0.18,0.04 0.18,0.02 0.18,0.01 0.17,0.01 0.18,0.03 0.18,0 0.18,0.01 0.18,0.02 0.17,0.02 0.18,0.03 0.18,0.02 0.18,0.01 0.17,0.02 0.18,0.04 0.18,0.02 0.18,0.01 0.18,0.01 0.17,0.01 0.18,0.02 0.18,0.04 0.18,0.01 0.17,0.01 0.18,0 0.18,0.02 0.18,0.03 0.18,0.02 0.17,0.01 0.18,0.02 0.18,0.02 0.18,0.03 0.17,0.01 0.18,0.02 0.18,0.02 0.18,0.03 0.18,0.01 0.17,0.01 0.18,0.02 0.18,0.02 0.18,0.04 0.17,0.02 0.18,0.02 0.18,0.04 0.18,0.02 0.18,0 0.17,0.01 0.18,0.03 0.18,0.02 0.18,0.03 0.17,0.02 0.18,0.06 0.18,0.03 0.18,0.01 0.18,0.02 0.17,0.03 0.18,0 0.18,0.02 0.18,0.02 0.17,0.02 0.18,0 0.18,0.03 0.18,0.01 0.18,0 0.17,0 0.18,0.01 0.18,0.02 0.18,0.01 0.17,0.02 0.18,0.01 0.18,0 0.18,0.02 0.18,0.03 0.17,0.02 0.18,0.04 0.18,0.01 0.18,0.02 0.17,0.03 0.18,0.03 0.18,0.01 0.18,0.03 0.18,0.01 0.17,0.02 0.18,0.03 0.18,0.02 0.18,0.03 0.17,0.01 0.18,0.02 0.18,0.03 0.18,0.02 0.18,0.01 0.17,0.02 0.18,0.02 0.18,0.02 0.18,0.01 0.17,0.01 0.18,0.01 0.18,0.01 0.18,0.01 0.18,0.04 0.17,0.02 0.18,0.01 0.18,0 0.18,0.02 0.17,0.01 0.18,0.02 0.18,0.02 0.18,0.01 0.18,0 0.17,0.01 0.18,0.01 0.18,0.03 0.18,0.02 0.17,0.01 0.18,0 0.18,0.01 0.18,0.01 0.18,0.01 0.17,0.01 0.18,0.01 0.18,0.01 0.18,0.01 0.17,0.02 0.18,0.02 0.18,0.01 0.18,0.03 0.18,0.01 0.17,0.03 0.18,0.01 0.18,0.02 0.18,0.04 0.17,0 0.18,0.01 0.18,0 0.18,0.02 0.18,0 0.17,0 0.18,0.01 0.18,0.01 0.18,0.01 0.17,0.01 0.18,0.03 0.18,0.02 0.18,0.02 0.18,0.01 0.17,0.01 0.18,0.01 0.18,0.01 0.18,0.02 0.17,0 0.18,0 0.18,0.01 0.18,0.01 0.18,0 0.17,0.04 0.18,0 0.18,0.01 0.18,0.02 0.17,0.02 0.18,0 0.18,0 0.18,0.01 0.18,0.02 0.17,0.01 0.18,0.01 0.18,0.01 0.18,0 0.17,0.01 0.18,0.02 0.18,0 0.18,0.02 0.18,0 0.17,0 0.18,0.01 0.18,0 0.18,0 0.17,0 0.18,0.01 0.18,0 0.18,0 0.18,0.01 0.17,0.01 0.18,0.01 0.18,0.02 0.18,0 0.17,0 0.18,0.01 0.18,0 0.18,0 0.18,0 0.17,0 0.18,0 0.18,0.01 0.18,0 0.17,0 0.18,0.01 0.18,0.01 0.18,0 0.18,0.02 0.17,0 0.18,0 0.18,0 0.18,0 0.17,0 0.18,0 0.18,0 0.18,0.02 0.18,0 0.17,0 0.18,0 0.18,0 0.18,0 0.17,0 0.18,0 0.18,0 0.18,0 0.18,0 0.17,0 0.18,0 0.18,0 0.18,0 0.17,0.01 0.18,0 0.18,0 0.18,0 0.18,0 0.17,0 0.18,0 0.18,0 0.18,0 0.17,0.01 0.18,0.01 0.18,0 0.18,0 0.18,0 0.17,0 0.18,0.01 0.18,0 0.18,0 0.17,0 0.18,0.01 0.18,0 0.18,0 0.18,0 0.17,0.01 0.18,0 0.18,0 0.18,0 0.17,0 0.18,0 0.18,0 0.18,0 0.18,0 0.17,0 0.18,0 0.18,0 0.18,0 0.17,0 0.18,0 0.18,0 0.18,0 0.18,0 0.17,0 0.18,0 0.18,0.01 0.18,0 0.17,0 0.18,0 0.18,0 0.18,0 0.18,0 0.17,0 0.18,0 0.18,0 0.18,0 0.17,0 0.18,0 0.18,0 0.18,0 0.18,0 0.17,0 0.18,0 0.18,0 0.18,0 0.17,0 0.18,0 0.18,0 0.18,0 0.18,0 0.17,0 0.18,0 0.18,0 0.18,0 0.17,0 0.18,0 0.18,0 0.18,0 0.18,0 0.17,0 0.18,0 0.18,0 0.18,0 0.17,0 0.18,0 0.18,0 0.18,0 0.18,0 0.17,0 0.18,0 0.18,0 0.18,0 0.17,0 0.18,0 0.18,0 0.18,0 0.18,0 0.17,0 0.18,0 0.18,0 0.18,0 0.17,0 0.18,0 0.18,0"
           style="fill:none;stroke:#000000;stroke-width:1;stroke-linecap:round;stroke-linejoin:round;stroke-miterlimit:10;stroke-dasharray:none;stroke-opacity:1"
           id="path32"
           inkscape:connector-curvature="0" /></g></g><path
       inkscape:connector-curvature="0"
       id="path38"
       style="fill:none;stroke:#000000;stroke-width:1;stroke-linecap:round;stroke-linejoin:round;stroke-miterlimit:10;stroke-dasharray:none;stroke-opacity:1"
       d="m 150.746,489.46223 0,-7.2"
       inkscape:export-filename="E:\Dropbox\research\with_dropbox\papers and projects\2017\Sex movement after separation\170829_Sim1.png"
       inkscape:export-xdpi="1000"
       inkscape:export-ydpi="1000" /><path
       inkscape:connector-curvature="0"
       id="path40"
       style="fill:none;stroke:#000000;stroke-width:1;stroke-linecap:round;stroke-linejoin:round;stroke-miterlimit:10;stroke-dasharray:none;stroke-opacity:1"
       d="m 239.636,489.46223 0,-7.2"
       inkscape:export-filename="E:\Dropbox\research\with_dropbox\papers and projects\2017\Sex movement after separation\170829_Sim1.png"
       inkscape:export-xdpi="1000"
       inkscape:export-ydpi="1000" /><path
       inkscape:connector-curvature="0"
       id="path42"
       style="fill:none;stroke:#000000;stroke-width:1;stroke-linecap:round;stroke-linejoin:round;stroke-miterlimit:10;stroke-dasharray:none;stroke-opacity:1"
       d="m 328.526,489.46223 0,-7.2"
       inkscape:export-filename="E:\Dropbox\research\with_dropbox\papers and projects\2017\Sex movement after separation\170829_Sim1.png"
       inkscape:export-xdpi="1000"
       inkscape:export-ydpi="1000" /><path
       inkscape:connector-curvature="0"
       id="path44"
       style="fill:none;stroke:#000000;stroke-width:1;stroke-linecap:round;stroke-linejoin:round;stroke-miterlimit:10;stroke-dasharray:none;stroke-opacity:1"
       d="m 417.416,489.46223 0,-7.2"
       inkscape:export-filename="E:\Dropbox\research\with_dropbox\papers and projects\2017\Sex movement after separation\170829_Sim1.png"
       inkscape:export-xdpi="1000"
       inkscape:export-ydpi="1000" /><text
       id="text46"
       style="font-variant:normal;font-weight:normal;font-size:12px;font-family:Helvetica;-inkscape-font-specification:Helvetica;writing-mode:lr-tb;fill:#000000;fill-opacity:1;fill-rule:nonzero;stroke:none;stroke-width:1;stroke-miterlimit:10;stroke-dasharray:none"
       transform="scale(1,-1)"
       x="147.40601"
       y="-463.54224"
       inkscape:export-filename="E:\Dropbox\research\with_dropbox\papers and projects\2017\Sex movement after separation\170829_Sim1.png"
       inkscape:export-xdpi="1000"
       inkscape:export-ydpi="1000"><tspan
         id="tspan48"
         y="-463.54224"
         x="147.40601"
         style="stroke-width:1;stroke-miterlimit:10;stroke-dasharray:none">0</tspan></text>
<text
       id="text50"
       style="font-variant:normal;font-weight:normal;font-size:12px;font-family:Helvetica;-inkscape-font-specification:Helvetica;writing-mode:lr-tb;fill:#000000;fill-opacity:1;fill-rule:nonzero;stroke:none;stroke-width:1;stroke-miterlimit:10;stroke-dasharray:none"
       transform="scale(1,-1)"
       x="232.966"
       y="-463.54224"
       inkscape:export-filename="E:\Dropbox\research\with_dropbox\papers and projects\2017\Sex movement after separation\170829_Sim1.png"
       inkscape:export-xdpi="1000"
       inkscape:export-ydpi="1000"><tspan
         id="tspan52"
         sodipodi:role="line"
         y="-463.54224"
         x="232.966 239.638">50</tspan></text>
<text
       id="text54"
       style="font-variant:normal;font-weight:normal;font-size:12px;font-family:Helvetica;-inkscape-font-specification:Helvetica;writing-mode:lr-tb;fill:#000000;fill-opacity:1;fill-rule:nonzero;stroke:none;stroke-width:1;stroke-miterlimit:10;stroke-dasharray:none"
       transform="scale(1,-1)"
       x="318.51599"
       y="-463.54224"
       inkscape:export-filename="E:\Dropbox\research\with_dropbox\papers and projects\2017\Sex movement after separation\170829_Sim1.png"
       inkscape:export-xdpi="1000"
       inkscape:export-ydpi="1000"><tspan
         id="tspan56"
         sodipodi:role="line"
         y="-463.54224"
         x="318.51599 325.18799 331.86002">100</tspan></text>
<text
       id="text58"
       style="font-variant:normal;font-weight:normal;font-size:12px;font-family:Helvetica;-inkscape-font-specification:Helvetica;writing-mode:lr-tb;fill:#000000;fill-opacity:1;fill-rule:nonzero;stroke:none;stroke-width:1;stroke-miterlimit:10;stroke-dasharray:none"
       transform="scale(1,-1)"
       x="407.40601"
       y="-463.54224"
       inkscape:export-filename="E:\Dropbox\research\with_dropbox\papers and projects\2017\Sex movement after separation\170829_Sim1.png"
       inkscape:export-xdpi="1000"
       inkscape:export-ydpi="1000"><tspan
         id="tspan60"
         sodipodi:role="line"
         y="-463.54224"
         x="407.40601 414.078 420.75">150</tspan></text>
<path
       inkscape:connector-curvature="0"
       id="path64"
       style="fill:none;stroke:#000000;stroke-width:1;stroke-linecap:round;stroke-linejoin:round;stroke-miterlimit:10;stroke-dasharray:none;stroke-opacity:1"
       d="m 137.946,499.06223 -7.2,0"
       inkscape:export-filename="E:\Dropbox\research\with_dropbox\papers and projects\2017\Sex movement after separation\170829_Sim1.png"
       inkscape:export-xdpi="1000"
       inkscape:export-ydpi="1000" /><path
       inkscape:connector-curvature="0"
       id="path66"
       style="fill:none;stroke:#000000;stroke-width:1;stroke-linecap:round;stroke-linejoin:round;stroke-miterlimit:10;stroke-dasharray:none;stroke-opacity:1"
       d="m 137.946,533.35223 -7.2,0"
       inkscape:export-filename="E:\Dropbox\research\with_dropbox\papers and projects\2017\Sex movement after separation\170829_Sim1.png"
       inkscape:export-xdpi="1000"
       inkscape:export-ydpi="1000" /><path
       inkscape:connector-curvature="0"
       id="path68"
       style="fill:none;stroke:#000000;stroke-width:1;stroke-linecap:round;stroke-linejoin:round;stroke-miterlimit:10;stroke-dasharray:none;stroke-opacity:1"
       d="m 137.946,567.63223 -7.2,0"
       inkscape:export-filename="E:\Dropbox\research\with_dropbox\papers and projects\2017\Sex movement after separation\170829_Sim1.png"
       inkscape:export-xdpi="1000"
       inkscape:export-ydpi="1000" /><path
       inkscape:connector-curvature="0"
       id="path70"
       style="fill:none;stroke:#000000;stroke-width:1;stroke-linecap:round;stroke-linejoin:round;stroke-miterlimit:10;stroke-dasharray:none;stroke-opacity:1"
       d="m 137.946,601.92223 -7.2,0"
       inkscape:export-filename="E:\Dropbox\research\with_dropbox\papers and projects\2017\Sex movement after separation\170829_Sim1.png"
       inkscape:export-xdpi="1000"
       inkscape:export-ydpi="1000" /><path
       inkscape:connector-curvature="0"
       id="path72"
       style="fill:none;stroke:#000000;stroke-width:1;stroke-linecap:round;stroke-linejoin:round;stroke-miterlimit:10;stroke-dasharray:none;stroke-opacity:1"
       d="m 137.946,636.20223 -7.2,0"
       inkscape:export-filename="E:\Dropbox\research\with_dropbox\papers and projects\2017\Sex movement after separation\170829_Sim1.png"
       inkscape:export-xdpi="1000"
       inkscape:export-ydpi="1000" /><path
       inkscape:connector-curvature="0"
       id="path74"
       style="fill:none;stroke:#000000;stroke-width:1;stroke-linecap:round;stroke-linejoin:round;stroke-miterlimit:10;stroke-dasharray:none;stroke-opacity:1"
       d="m 137.946,670.49223 -7.2,0"
       inkscape:export-filename="E:\Dropbox\research\with_dropbox\papers and projects\2017\Sex movement after separation\170829_Sim1.png"
       inkscape:export-xdpi="1000"
       inkscape:export-ydpi="1000" /><path
       inkscape:connector-curvature="0"
       id="path76"
       style="fill:none;stroke:#000000;stroke-width:1;stroke-linecap:round;stroke-linejoin:round;stroke-miterlimit:10;stroke-dasharray:none;stroke-opacity:1"
       d="m 137.946,704.77223 -7.2,0"
       inkscape:export-filename="E:\Dropbox\research\with_dropbox\papers and projects\2017\Sex movement after separation\170829_Sim1.png"
       inkscape:export-xdpi="1000"
       inkscape:export-ydpi="1000" /><path
       inkscape:connector-curvature="0"
       id="path78"
       style="fill:none;stroke:#000000;stroke-width:1;stroke-linecap:round;stroke-linejoin:round;stroke-miterlimit:10;stroke-dasharray:none;stroke-opacity:1"
       d="m 137.946,739.06223 -7.2,0"
       inkscape:export-filename="E:\Dropbox\research\with_dropbox\papers and projects\2017\Sex movement after separation\170829_Sim1.png"
       inkscape:export-xdpi="1000"
       inkscape:export-ydpi="1000" /><text
       id="text80"
       style="font-variant:normal;font-weight:normal;font-size:12px;font-family:Helvetica;-inkscape-font-specification:Helvetica;writing-mode:lr-tb;fill:#000000;fill-opacity:1;fill-rule:nonzero;stroke:none;stroke-width:1;stroke-miterlimit:10;stroke-dasharray:none"
       transform="scale(1,-1)"
       x="100.196"
       y="-494.75223"
       inkscape:export-filename="E:\Dropbox\research\with_dropbox\papers and projects\2017\Sex movement after separation\170829_Sim1.png"
       inkscape:export-xdpi="1000"
       inkscape:export-ydpi="1000"><tspan
         id="tspan82"
         sodipodi:role="line"
         y="-494.75223"
         x="100.196 106.868 110.204 116.876">0.00</tspan></text>
<text
       id="text88"
       style="font-variant:normal;font-weight:normal;font-size:12px;font-family:Helvetica;-inkscape-font-specification:Helvetica;writing-mode:lr-tb;fill:#000000;fill-opacity:1;fill-rule:nonzero;stroke:none;stroke-width:1;stroke-miterlimit:10;stroke-dasharray:none"
       transform="scale(1,-1)"
       x="100.196"
       y="-563.32227"
       inkscape:export-filename="E:\Dropbox\research\with_dropbox\papers and projects\2017\Sex movement after separation\170829_Sim1.png"
       inkscape:export-xdpi="1000"
       inkscape:export-ydpi="1000"><tspan
         id="tspan90"
         sodipodi:role="line"
         y="-563.32227"
         x="100.196 106.868 110.204 116.876">0.10</tspan></text>
<text
       id="text96"
       style="font-variant:normal;font-weight:normal;font-size:12px;font-family:Helvetica;-inkscape-font-specification:Helvetica;writing-mode:lr-tb;fill:#000000;fill-opacity:1;fill-rule:nonzero;stroke:none;stroke-width:1;stroke-miterlimit:10;stroke-dasharray:none"
       transform="scale(1,-1)"
       x="100.196"
       y="-631.89221"
       inkscape:export-filename="E:\Dropbox\research\with_dropbox\papers and projects\2017\Sex movement after separation\170829_Sim1.png"
       inkscape:export-xdpi="1000"
       inkscape:export-ydpi="1000"><tspan
         id="tspan98"
         sodipodi:role="line"
         y="-631.89221"
         x="100.196 106.868 110.204 116.876">0.20</tspan></text>
<text
       id="text104"
       style="font-variant:normal;font-weight:normal;font-size:12px;font-family:Helvetica;-inkscape-font-specification:Helvetica;writing-mode:lr-tb;fill:#000000;fill-opacity:1;fill-rule:nonzero;stroke:none;stroke-width:1;stroke-miterlimit:10;stroke-dasharray:none"
       transform="scale(1,-1)"
       x="100.196"
       y="-700.47223"
       inkscape:export-filename="E:\Dropbox\research\with_dropbox\papers and projects\2017\Sex movement after separation\170829_Sim1.png"
       inkscape:export-xdpi="1000"
       inkscape:export-ydpi="1000"><tspan
         id="tspan106"
         sodipodi:role="line"
         y="-700.47223"
         x="100.196 106.868 110.204 116.876">0.30</tspan></text>
<path
       inkscape:connector-curvature="0"
       id="path112"
       style="fill:none;stroke:#000000;stroke-width:1;stroke-linecap:round;stroke-linejoin:round;stroke-miterlimit:10;stroke-dasharray:none;stroke-opacity:1"
       d="m 137.946,489.46223 345.6,0 0,259.2 -345.6,0 0,-259.2"
       inkscape:export-filename="E:\Dropbox\research\with_dropbox\papers and projects\2017\Sex movement after separation\170829_Sim1.png"
       inkscape:export-xdpi="1000"
       inkscape:export-ydpi="1000" /><path
       d="m 150.926,499.06223 0.18,0 0.17,0 0.18,0 0.18,0 0.18,0 0.17,0 0.18,0 0.18,0 0.18,0 0.18,0 0.17,0 0.18,0 0.18,0 0.18,0 0.17,0 0.18,0 0.18,0 0.18,0 0.18,0 0.17,0 0.18,0 0.18,0 0.18,0 0.17,0 0.18,0 0.18,0.01 0.18,0.09 0.18,0.29 0.17,0.47 0.18,0.63 0.18,0.74 0.18,0.99 0.17,1.1 0.18,1.03 0.18,1.24 0.18,1.07 0.18,1.09 0.17,1.04 0.18,1.32 0.18,1.22 0.18,1.01 0.17,1.33 0.18,1.07 0.18,0.98 0.18,1.01 0.18,1 0.17,1.02 0.18,0.87 0.18,0.9 0.18,0.96 0.17,0.95 0.18,0.94 0.18,0.96 0.18,0.85 0.18,0.89 0.17,0.8 0.18,0.96 0.18,0.73 0.18,1.02 0.17,0.7 0.18,0.78 0.18,0.75 0.18,0.79 0.18,0.84 0.17,0.8 0.18,0.77 0.18,0.75 0.18,0.76 0.17,0.69 0.18,0.7 0.18,0.72 0.18,0.74 0.18,0.8 0.17,0.7 0.18,0.64 0.18,0.67 0.18,0.66 0.17,0.71 0.18,0.59 0.18,0.79 0.18,0.68 0.18,0.71 0.17,0.57 0.18,0.57 0.18,0.77 0.18,0.69 0.17,0.56 0.18,0.69 0.18,0.65 0.18,0.65 0.18,0.6 0.17,0.62 0.18,0.59 0.18,0.65 0.18,0.53 0.17,0.58 0.18,0.63 0.18,0.51 0.18,0.58 0.18,0.66 0.17,0.51 0.18,0.51 0.18,0.48 0.18,0.51 0.17,0.61 0.18,0.42 0.18,0.58 0.18,0.53 0.18,0.54 0.17,0.46 0.18,0.52 0.18,0.51 0.18,0.5 0.17,0.45 0.18,0.53 0.18,0.46 0.18,0.52 0.18,0.54 0.17,0.49 0.18,0.53 0.18,0.47 0.18,0.4 0.17,0.43 0.18,0.52 0.18,0.48 0.18,0.54 0.18,0.45 0.17,0.47 0.18,0.5 0.18,0.46 0.18,0.48 0.17,0.36 0.18,0.36 0.18,0.47 0.18,0.43 0.18,0.4 0.17,0.58 0.18,0.43 0.18,0.39 0.18,0.37 0.17,0.49 0.18,0.52 0.18,0.36 0.18,0.49 0.18,0.36 0.17,0.35 0.18,0.45 0.18,0.4 0.18,0.4 0.17,0.39 0.18,0.31 0.18,0.4 0.18,0.39 0.18,0.34 0.17,0.28 0.18,0.4 0.18,0.44 0.18,0.33 0.17,0.36 0.18,0.3 0.18,0.4 0.18,0.36 0.18,0.39 0.17,0.39 0.18,0.31 0.18,0.39 0.18,0.26 0.17,0.33 0.18,0.33 0.18,0.39 0.18,0.38 0.18,0.38 0.17,0.37 0.18,0.34 0.18,0.38 0.18,0.44 0.17,0.24 0.18,0.35 0.18,0.41 0.18,0.36 0.18,0.35 0.17,0.36 0.18,0.33 0.18,0.35 0.18,0.33 0.17,0.33 0.18,0.2 0.18,0.34 0.18,0.28 0.18,0.31 0.17,0.33 0.18,0.4 0.18,0.27 0.18,0.29 0.17,0.35 0.18,0.25 0.18,0.29 0.18,0.28 0.18,0.27 0.17,0.32 0.18,0.24 0.18,0.29 0.18,0.33 0.17,0.33 0.18,0.33 0.18,0.24 0.18,0.31 0.18,0.33 0.17,0.31 0.18,0.26 0.18,0.32 0.18,0.25 0.17,0.21 0.18,0.32 0.18,0.2 0.18,0.32 0.18,0.3 0.17,0.31 0.18,0.23 0.18,0.31 0.18,0.31 0.17,0.3 0.18,0.25 0.18,0.25 0.18,0.22 0.18,0.3 0.17,0.27 0.18,0.27 0.18,0.27 0.18,0.21 0.17,0.24 0.18,0.3 0.18,0.26 0.18,0.3 0.18,0.22 0.17,0.28 0.18,0.19 0.18,0.3 0.18,0.28 0.17,0.25 0.18,0.22 0.18,0.18 0.18,0.27 0.18,0.19 0.17,0.19 0.18,0.25 0.18,0.2 0.18,0.25 0.17,0.27 0.18,0.29 0.18,0.27 0.18,0.27 0.18,0.25 0.17,0.25 0.18,0.25 0.18,0.24 0.18,0.28 0.17,0.18 0.18,0.25 0.18,0.27 0.18,0.23 0.18,0.24 0.17,0.26 0.18,0.18 0.18,0.23 0.18,0.23 0.17,0.23 0.18,0.22 0.18,0.13 0.18,0.3 0.18,0.25 0.17,0.23 0.18,0.2 0.18,0.16 0.18,0.24 0.17,0.15 0.18,0.25 0.18,0.25 0.18,0.27 0.18,0.16 0.17,0.28 0.18,0.23 0.18,0.22 0.18,0.2 0.17,0.19 0.18,0.23 0.18,0.22 0.18,0.23 0.18,0.17 0.17,0.27 0.18,0.23 0.18,0.18 0.18,0.24 0.17,0.22 0.18,0.17 0.18,0.21 0.18,0.24 0.18,0.23 0.17,0.2 0.18,0.18 0.18,0.2 0.18,0.14 0.17,0.17 0.18,0.18 0.18,0.15 0.18,0.16 0.18,0.26 0.17,0.21 0.18,0.25 0.18,0.14 0.18,0.27 0.17,0.24 0.18,0.24 0.18,0.2 0.18,0.21 0.18,0.19 0.17,0.16 0.18,0.22 0.18,0.16 0.18,0.17 0.17,0.21 0.18,0.19 0.18,0.17 0.18,0.16 0.18,0.12 0.17,0.22 0.18,0.17 0.18,0.14 0.18,0.26 0.17,0.19 0.18,0.17 0.18,0.2 0.18,0.23 0.18,0.18 0.17,0.25 0.18,0.24 0.18,0.21 0.18,0.16 0.17,0.16 0.18,0.15 0.18,0.16 0.18,0.14 0.18,0.15 0.17,0.13 0.18,0.2 0.18,0.19 0.18,0.18 0.17,0.2 0.18,0.17 0.18,0.18 0.18,0.14 0.18,0.12 0.17,0.24 0.18,0.15 0.18,0.17 0.18,0.16 0.17,0.17 0.18,0.13 0.18,0.15 0.18,0.11 0.18,0.19 0.17,0.18 0.18,0.18 0.18,0.17 0.18,0.23 0.17,0.18 0.18,0.16 0.18,0.18 0.18,0.23 0.18,0.17 0.17,0.16 0.18,0.19 0.18,0.19 0.18,0.19 0.17,0.11 0.18,0.13 0.18,0.2 0.18,0.12 0.18,0.09 0.17,0.19 0.18,0.11 0.18,0.15 0.18,0.18 0.17,0.11 0.18,0.16 0.18,0.13 0.18,0.17 0.18,0.15 0.17,0.14 0.18,0.19 0.18,0.22 0.18,0.15 0.17,0.14 0.18,0.26 0.18,0.11 0.18,0.15 0.18,0.16 0.17,0.16 0.18,0.12 0.18,0.15 0.18,0.12 0.17,0.16 0.18,0.17 0.18,0.14 0.18,0.15 0.18,0.15 0.17,0.13 0.18,0.13 0.18,0.16 0.18,0.15 0.17,0.13 0.18,0.14 0.18,0.15 0.18,0.17 0.18,0.14 0.17,0.21 0.18,0.14 0.18,0.15 0.18,0.12 0.17,0.18 0.18,0.18 0.18,0.17 0.18,0.15 0.18,0.11 0.17,0.17 0.18,0.15 0.18,0.13 0.18,0.14 0.17,0.14 0.18,0.12 0.18,0.08 0.18,0.12 0.18,0.11 0.17,0.13 0.18,0.13 0.18,0.16 0.18,0.14 0.17,0.11 0.18,0.13 0.18,0.15 0.18,0.09 0.18,0.11 0.17,0.12 0.18,0.13 0.18,0.11 0.18,0.2 0.17,0.17 0.18,0.1 0.18,0.12 0.18,0.12 0.18,0.13 0.17,0.15 0.18,0.15 0.18,0.15 0.18,0.16 0.17,0.14 0.18,0.11 0.18,0.08 0.18,0.15 0.18,0.12 0.17,0.16 0.18,0.12 0.18,0.13 0.18,0.17 0.17,0.11 0.18,0.13 0.18,0.14 0.18,0.16 0.18,0.17 0.17,0.1 0.18,0.12 0.18,0.11 0.18,0.16 0.17,0.13 0.18,0.1 0.18,0.14 0.18,0.11 0.18,0.15 0.17,0.16 0.18,0.13 0.18,0.16 0.18,0.15 0.17,0.08 0.18,0.11 0.18,0.14 0.18,0.09 0.18,0.1 0.17,0.11 0.18,0.11 0.18,0.15 0.18,0.11 0.17,0.15 0.18,0.13 0.18,0.04 0.18,0.11 0.18,0.14 0.17,0.09 0.18,0.12 0.18,0.12 0.18,0.08 0.17,0.11 0.18,0.09 0.18,0.17 0.18,0.12 0.18,0.12 0.17,0.13 0.18,0.08 0.18,0.06 0.18,0.13 0.17,0.14 0.18,0.1 0.18,0.12 0.18,0.09 0.18,0.12 0.17,0.14 0.18,0.14 0.18,0.09 0.18,0.07 0.17,0.15 0.18,0.1 0.18,0.08 0.18,0.09 0.18,0.13 0.17,0.08 0.18,0.15 0.18,0.1 0.18,0.15 0.17,0.11 0.18,0.12 0.18,0.12 0.18,0.19 0.18,0.08 0.17,0.15 0.18,0.1 0.18,0.04 0.18,0.11 0.17,0.09 0.18,0.08 0.18,0.11 0.18,0.14 0.18,0.09 0.17,0.11 0.18,0.1 0.18,0.05 0.18,0.11 0.17,0.11 0.18,0.09 0.18,0.08 0.18,0.11 0.18,0.08 0.17,0.19 0.18,0.08 0.18,0.07 0.18,0.1 0.17,0.13 0.18,0.05 0.18,0.07 0.18,0.13 0.18,0.09 0.17,0.11 0.18,0.06 0.18,0.09 0.18,0.13 0.17,0.13 0.18,0.07 0.18,0.12 0.18,0.09 0.18,0.13 0.17,0.09 0.18,0.07 0.18,0.11 0.18,0.08 0.17,0.1 0.18,0.07 0.18,0.09 0.18,0.1 0.18,0.1 0.17,0.03 0.18,0.08 0.18,0.08 0.18,0.12 0.17,0.11 0.18,0.09 0.18,0.08 0.18,0.08 0.18,0.11 0.17,0.08 0.18,0.08 0.18,0.06 0.18,0.07 0.17,0.07 0.18,0.13 0.18,0.09 0.18,0.12 0.18,0.14 0.17,0.07 0.18,0.09 0.18,0.1 0.18,0.13 0.17,0.11 0.18,0.07 0.18,0.09 0.18,0.08 0.18,0.11 0.17,0.11 0.18,0.06 0.18,0.08 0.18,0.07 0.17,0.1 0.18,0.06 0.18,0.1 0.18,0.11 0.18,0.08 0.17,0.06 0.18,0.07 0.18,0.1 0.18,0.1 0.17,0.1 0.18,0.05 0.18,0.1 0.18,0.09 0.18,0.06 0.17,0.1 0.18,0.12 0.18,0.11 0.18,0.09 0.17,0.1 0.18,0.07 0.18,0.12 0.18,0.08 0.18,0.08 0.17,0.13 0.18,0.1 0.18,0.12 0.18,0.13 0.17,0.05 0.18,0.11 0.18,0.1 0.18,0.07 0.18,0.1 0.17,0.1 0.18,0.08 0.18,0.09 0.18,0.11 0.17,0.05 0.18,0.08 0.18,0.06 0.18,0.05 0.18,0.07 0.17,0.06 0.18,0.13 0.18,0.09 0.18,0.06 0.17,0.09 0.18,0.07 0.18,0.07 0.18,0.09 0.18,0.05 0.17,0.12 0.18,0.06 0.18,0.06 0.18,0.09 0.17,0.1 0.18,0.07 0.18,0.08 0.18,0.05 0.18,0.08 0.17,0.13 0.18,0.11 0.18,0.08 0.18,0.1 0.17,0.12 0.18,0.04 0.18,0.07 0.18,0.07 0.18,0.08 0.17,0.07 0.18,0.08 0.18,0.05 0.18,0.05 0.17,0.08 0.18,0.09 0.18,0.11 0.18,0.06 0.18,0.07 0.17,0.08 0.18,0.05 0.18,0.06 0.18,0.12 0.17,0.08 0.18,0.1 0.18,0.12 0.18,0.08 0.18,0.05 0.17,0.04 0.18,0.07 0.18,0.09 0.18,0.04 0.17,0.1 0.18,0.04 0.18,0.08 0.18,0.08 0.18,0.04 0.17,0.1 0.18,0.04 0.18,0.11 0.18,0.11 0.17,0.11 0.18,0.12 0.18,0.08 0.18,0.06 0.18,0.06 0.17,0.09 0.18,0.07 0.18,0.08 0.18,0.07 0.17,0.08 0.18,0.07 0.18,0.05 0.18,0.1 0.18,0.09 0.17,0.07 0.18,0.06 0.18,0.09 0.18,0.07 0.17,0.08 0.18,0.12 0.18,0.13 0.18,0.12 0.18,0.1 0.17,0.08 0.18,0.05 0.18,0.07 0.18,0.1 0.17,0.09 0.18,0.07 0.18,0.08 0.18,0.08 0.18,0.09 0.17,0.07 0.18,0.11 0.18,0.06 0.18,0.07 0.17,0.08 0.18,0.07 0.18,0.1 0.18,0.1 0.18,0.08 0.17,0.07 0.18,0.08 0.18,0.07 0.18,0.07 0.17,0.05 0.18,0.06 0.18,0.06 0.18,0.07 0.18,0.04 0.17,0.04 0.18,0.07 0.18,0.07 0.18,0.09 0.17,0.07 0.18,0.07 0.18,0.1 0.18,0.04 0.18,0.06 0.17,0.04 0.18,0.11 0.18,0.13 0.18,0.05 0.17,0.07 0.18,0.05 0.18,0.1 0.18,0.05 0.18,0.07 0.17,0.07 0.18,0.09 0.18,0.05 0.18,0.08 0.17,0.07 0.18,0.06 0.18,0.06 0.18,0.08 0.18,0.06 0.17,0.04 0.18,0.09 0.18,0.08 0.18,0.07 0.17,0.09 0.18,0.09 0.18,0.08 0.18,0.11 0.18,0.11 0.17,0.05 0.18,0.06 0.18,0.09 0.18,0.08 0.17,0.09 0.18,0.09 0.18,0.05 0.18,0.1 0.18,0.04 0.17,0.1 0.18,0.1 0.18,0.05 0.18,0.04 0.17,0.07 0.18,0.07 0.18,0.06 0.18,0.06 0.18,0.05 0.17,0.05 0.18,0.03 0.18,0.07 0.18,0.05 0.17,0.06 0.18,0.05 0.18,0.08 0.18,0.06 0.18,0.05 0.17,0.05 0.18,0.05 0.18,0.07 0.18,0.05 0.17,0.07 0.18,0.09 0.18,0.11 0.18,0.07 0.18,0.08 0.17,0.07 0.18,0.04 0.18,0.07 0.18,0.07 0.17,0.05 0.18,0.1 0.18,0.04 0.18,0.05 0.18,0.06 0.17,0.03 0.18,0.06 0.18,0.09 0.18,0.07 0.17,0.07 0.18,0.1 0.18,0.05 0.18,0.03 0.18,0.07 0.17,0.05 0.18,0.06 0.18,0.05 0.18,0.06 0.17,0.09 0.18,0.06 0.18,0.07 0.18,0.07 0.18,0.05 0.17,0.03 0.18,0.05 0.18,0.06 0.18,0.05 0.17,0.06 0.18,0.05 0.18,0.06 0.18,0.07 0.18,0.04 0.17,0.03 0.18,0.07 0.18,0.07 0.18,0.05 0.17,0.06 0.18,0.07 0.18,0.05 0.18,0.1 0.18,0.05 0.17,0.08 0.18,0.04 0.18,0.11 0.18,0.05 0.17,0.07 0.18,0.04 0.18,0.07 0.18,0.1 0.18,0.05 0.17,0.06 0.18,0.06 0.18,0.07 0.18,0.03 0.17,0.08 0.18,0.09 0.18,0.08 0.18,0.05 0.18,0.03 0.17,0.07 0.18,0.04 0.18,0.07 0.18,0.1 0.17,0.08 0.18,0.05 0.18,0.06 0.18,0.06 0.18,0.07 0.17,0.06 0.18,0.05 0.18,0.05 0.18,0.08 0.17,0.05 0.18,0.05 0.18,0.08 0.18,0.04 0.18,0.03 0.17,0.07 0.18,0.05 0.18,0.03 0.18,0.04 0.17,0.08 0.18,0.07 0.18,0.03 0.18,0.06 0.18,0.05 0.17,0.06 0.18,0.06 0.18,0.03 0.18,0.04 0.17,0.07 0.18,0.04 0.18,0.08 0.18,0.07 0.18,0.07 0.17,0.06 0.18,0.07 0.18,0.04 0.18,0.04 0.17,0.07 0.18,0.04 0.18,0.05 0.18,0.04 0.18,0.06 0.17,0.05 0.18,0.06 0.18,0.07 0.18,0.04 0.17,0.04 0.18,0.04 0.18,0.08 0.18,0.08 0.18,0.09 0.17,0.04 0.18,0.04 0.18,0.04 0.18,0.06 0.17,0.03 0.18,0.08 0.18,0.03 0.18,0.05 0.18,0.03 0.17,0.04 0.18,0.02 0.18,0.07 0.18,0.06 0.17,0.06 0.18,0.05 0.18,0.06 0.18,0.07 0.18,0.06 0.17,0.07 0.18,0.06 0.18,0.07 0.18,0.05 0.17,0.06 0.18,0.02 0.18,0.07 0.18,0.04 0.18,0.09 0.17,0.06 0.18,0.07 0.18,0.05 0.18,0.1 0.17,0.07 0.18,0.05 0.18,0.06 0.18,0.05 0.18,0.06 0.17,0.05 0.18,0.03 0.18,0.09 0.18,0.07 0.17,0.04 0.18,0.04 0.18,0.04 0.18,0.05 0.18,0.05 0.17,0.07 0.18,0.07 0.18,0.04 0.18,0.06 0.17,0.08 0.18,0.05 0.18,0.05 0.18,0.04 0.18,0.04 0.17,0.05 0.18,0.06 0.18,0.08 0.18,0.05 0.17,0.07 0.18,0.05 0.18,0.06 0.18,0.07 0.18,0.03 0.17,0.05 0.18,0.05 0.18,0.05 0.18,0.03 0.17,0.03 0.18,0.05 0.18,0.05 0.18,0.06 0.18,0.05 0.17,0.05 0.18,0.03 0.18,0.01 0.18,0.03 0.17,0.02 0.18,0.03 0.18,0.07 0.18,0.06 0.18,0.07 0.17,0.06 0.18,0.04 0.18,0.05 0.18,0.07 0.17,0.07 0.18,0.03 0.18,0.04 0.18,0.05 0.18,0.05 0.17,0.06 0.18,0.02 0.18,0.04 0.18,0.06 0.17,0.03 0.18,0.04 0.18,0.07 0.18,0.05 0.18,0.06 0.17,0.02 0.18,0.04 0.18,0.08 0.18,0.04 0.17,0.02 0.18,0.06 0.18,0.07 0.18,0.08 0.18,0.06 0.17,0.06 0.18,0.05 0.18,0.08 0.18,0.03 0.17,0.05 0.18,0.05 0.18,0.06 0.18,0.05 0.18,0.04 0.17,0.05 0.18,0.06 0.18,0.02 0.18,0.04 0.17,0.03 0.18,0.01 0.18,0.06 0.18,0.04 0.18,0.02 0.17,0.08 0.18,0.03 0.18,0.08 0.18,0.05 0.17,0.03 0.18,0.05 0.18,0.05 0.18,0.05 0.18,0.06 0.17,0.06 0.18,0.07 0.18,0.03 0.18,0.05 0.17,0.06 0.18,0.05 0.18,0.03 0.18,0.06 0.18,0.04 0.17,0.07 0.18,0.06 0.18,0.03 0.18,0.04 0.17,0.04 0.18,0.03 0.18,0.07 0.18,0.01 0.18,0.05 0.17,0.02 0.18,0.05 0.18,0.06 0.18,0.05 0.17,0.07 0.18,0.03 0.18,0.03 0.18,0.05 0.18,0.05 0.17,0.07 0.18,0.06 0.18,0.09 0.18,0.04 0.17,0.03 0.18,0.05 0.18,0.07 0.18,0.1 0.18,0.02 0.17,0.04 0.18,0.05 0.18,0.08 0.18,0.02 0.17,0.04 0.18,0.03 0.18,0.05 0.18,0.03 0.18,0.05 0.17,0.08 0.18,0.07 0.18,0.03 0.18,0.05 0.17,0.04 0.18,0.07 0.18,0.06 0.18,0.06 0.18,0.03 0.17,0.04 0.18,0.04 0.18,0.02 0.18,0.06 0.17,0.05 0.18,0.05 0.18,0.05 0.18,0.03 0.18,0.04 0.17,0.02 0.18,0.05 0.18,0.06 0.18,0.04 0.17,0.04 0.18,0.03 0.18,0.03 0.18,0.06 0.18,0.08 0.17,0.01 0.18,0.06 0.18,0.04 0.18,0.05 0.17,0.04 0.18,0.04 0.18,0.05 0.18,0.03 0.18,0.03 0.17,0.05 0.18,0.03 0.18,0.05 0.18,0.07 0.17,0.02 0.18,0.03 0.18,0.05 0.18,0.05 0.18,0.06 0.17,0.05 0.18,0.03 0.18,0.05 0.18,0.06 0.17,0.02 0.18,0.03 0.18,0.05 0.18,0 0.18,0.05 0.17,0.03 0.18,0.08 0.18,0.06 0.18,0.05 0.17,0.04 0.18,0.07 0.18,0.06 0.18,0.06 0.18,0.03 0.17,0.04 0.18,0.07 0.18,0.06 0.18,0.03 0.17,0.05 0.18,0.05 0.18,0.06 0.18,0.03 0.18,0.02 0.17,0.03 0.18,0.05 0.18,0.05 0.18,0.06 0.17,0.03 0.18,0.07 0.18,0.06 0.18,0.04 0.18,0.04 0.17,0.02 0.18,0.04 0.18,0.05 0.18,0.06 0.17,0.06 0.18,0.06 0.18,0.07 0.18,0.08 0.18,0.05 0.17,0.03 0.18,0.01 0.18,0.03 0.18,0.04 0.17,0.02 0.18,0.04 0.18,0.05 0.18,0.06 0.18,0.04 0.17,0.05 0.18,0.03 0.18,0.04 0.18,0.04 0.17,0.04 0.18,0.05 0.18,0.08 0.18,0.07 0.18,0.04 0.17,0.03 0.18,0.12 0.18,0.03 0.18,0.03 0.17,0.03 0.18,0.02 0.18,0.02 0.18,0.05 0.18,0.06 0.17,0.07 0.18,0.06 0.18,0.07 0.18,0.02 0.17,0.09 0.18,0.04 0.18,0.04 0.18,0.04 0.18,0.01 0.17,0.07 0.18,0.03 0.18,0.01 0.18,0.05 0.17,0.01 0.18,0.05 0.18,0.04 0.18,0.05 0.18,0.03 0.17,0.05 0.18,0.06 0.18,0.03 0.18,0.02 0.17,0.05 0.18,0.08 0.18,0.03 0.18,0.05 0.18,0.05 0.17,0 0.18,0.04 0.18,0.02 0.18,0.03 0.17,0.04 0.18,0.02 0.18,0.03 0.18,0.04 0.18,0.05 0.17,0.02 0.18,0.04 0.18,0.04 0.18,0.03 0.17,0.04 0.18,0.06 0.18,0.02 0.18,0.03 0.18,0.02 0.17,0.05 0.18,0.07 0.18,0.01 0.18,0.03 0.17,0.04 0.18,0.02 0.18,0.02 0.18,0.04 0.18,0.03 0.17,0.02 0.18,0.08 0.18,0.04 0.18,0.07 0.17,0.05 0.18,0.04 0.18,0.04 0.18,0.03 0.18,0.08 0.17,0.02 0.18,0.05 0.18,0.03 0.18,0.03 0.17,0.05 0.18,0.02 0.18,0.04 0.18,0.05 0.18,0.04 0.17,0.05 0.18,0.01 0.18,0.01 0.18,0.02 0.17,0.02 0.18,0.03 0.18,0.03 0.18,0.04 0.18,0.04 0.17,0.02 0.18,0.03 0.18,0.04 0.18,0.06 0.17,0.05 0.18,0.03 0.18,0.05 0.18,0.02 0.18,0.04 0.17,0.04 0.18,0.03 0.18,0.03 0.18,0.04 0.17,0.04 0.18,0.04 0.18,0.06 0.18,0.09 0.18,0.03 0.17,0.07 0.18,0.03 0.18,0.02 0.18,0.03 0.17,0.05 0.18,0.06 0.18,0.04 0.18,0.02 0.18,0.04 0.17,0.01 0.18,0.05 0.18,0.02 0.18,0.05 0.17,0.05 0.18,0.06 0.18,0.03 0.18,0.02 0.18,0.04 0.17,0.03 0.18,0.04 0.18,0.06 0.18,0.04 0.17,0.01 0.18,0.04 0.18,0.02 0.18,0.05 0.18,0.03 0.17,0.03 0.18,0.04 0.18,0.03 0.18,0.04 0.17,0.03 0.18,0.06 0.18,0.02 0.18,0.04 0.18,0.06 0.17,0.05 0.18,0.03 0.18,0.03 0.18,0.09 0.17,0.03 0.18,0 0.18,0.08 0.18,0.07 0.18,0.06 0.17,0.04 0.18,0.03 0.18,0.05 0.18,0.02 0.17,0.02 0.18,0.03 0.18,0.01 0.18,0.03 0.18,0.02 0.17,0.04 0.18,0.02 0.18,0.03 0.18,0.02 0.17,0.02 0.18,0.05 0.18,0.03 0.18,0.01 0.18,0.04 0.17,0.02 0.18,0.05 0.18,0.04 0.18,0.04 0.17,0.04 0.18,0.01 0.18,0.03 0.18,0.03 0.18,0.05 0.17,0.02 0.18,0.04 0.18,0.02 0.18,0.04 0.17,0.05 0.18,0.04 0.18,0.07 0.18,0.04 0.18,0.02 0.17,0.04 0.18,0.01 0.18,0.04 0.18,0.04 0.17,0.05 0.18,0.01 0.18,0.02 0.18,0.01 0.18,0.05 0.17,0.05 0.18,0.07 0.18,0.01 0.18,0.04 0.17,0.04 0.18,0.04 0.18,0.05 0.18,0.04 0.18,0.05 0.17,0.01 0.18,0.03 0.18,0.04 0.18,0.07 0.17,0.01 0.18,0.03 0.18,0.06 0.18,0.04 0.18,0.02 0.17,0.01 0.18,0.05 0.18,0.03 0.18,0.05 0.17,0.03 0.18,0.06 0.18,0.02 0.18,0.07 0.18,0.02 0.17,0.03 0.18,0.04 0.18,0.04 0.18,0.03 0.17,0.04 0.18,0.06 0.18,0.01 0.18,0.02 0.18,0.04 0.17,0.04 0.18,0.05 0.18,0.06 0.18,0.02 0.17,0.05 0.18,0.07 0.18,0.03 0.18,0.02 0.18,0.04 0.17,0.03 0.18,0.02 0.18,0.02 0.18,0.03 0.17,0.03 0.18,0.01 0.18,0.04 0.18,0.03 0.18,0.03 0.17,0.03 0.18,0.03 0.18,0.04 0.18,0.04 0.17,0.03 0.18,0.1 0.18,0.04 0.18,0.06 0.18,0.03 0.17,0.08 0.18,0.01 0.18,0.04 0.18,0.06 0.17,0.04 0.18,0.03 0.18,0.04 0.18,0.03 0.18,0.02 0.17,0.01 0.18,0.07 0.18,0.05 0.18,0 0.17,0.04 0.18,0 0.18,0.03 0.18,0.02 0.18,0.03 0.17,0.03 0.18,0.05 0.18,0.04 0.18,0.02 0.17,0.05 0.18,0.04 0.18,0 0.18,0.04 0.18,0.04 0.17,0.03 0.18,0.02 0.18,0.02 0.18,0.02 0.17,0.01 0.18,0.05 0.18,0.02 0.18,0.06 0.18,0.02 0.17,0.06 0.18,0.05 0.18,0.03 0.18,0.03 0.17,0.06 0.18,0.02 0.18,0.03 0.18,0.01 0.18,0.01 0.17,0.04 0.18,0.03 0.18,0.03 0.18,0.03 0.17,0.04 0.18,0.03 0.18,0.02 0.18,0.04 0.18,0.03 0.17,0.02 0.18,0.04 0.18,0.02 0.18,0.03 0.17,0.02 0.18,0.02 0.18,0.04 0.18,0.03 0.18,0.02 0.17,0.04 0.18,0.04 0.18,0.02 0.18,0.06 0.17,0.03 0.18,0.05 0.18,0.01 0.18,0.03 0.18,0.03 0.17,0.01 0.18,0.06 0.18,0.04 0.18,0.03 0.17,0 0.18,0.05 0.18,0.03 0.18,0.01 0.18,0.04 0.17,0.03 0.18,0.02 0.18,0.04 0.18,0.02 0.17,0.04 0.18,0.06 0.18,0.03 0.18,0.02 0.18,0.02 0.17,0.05 0.18,0.02 0.18,0.03 0.18,0.02 0.17,0.01 0.18,0.04 0.18,0.04 0.18,0.01 0.18,0.04 0.17,0.03 0.18,0.02 0.18,0.05 0.18,0.02 0.17,0.02 0.18,0.03 0.18,0.04 0.18,0.02 0.18,0.06 0.17,0.05 0.18,0.03 0.18,0.03 0.18,0.05 0.17,0.02 0.18,0.02 0.18,0.02 0.18,0.05 0.18,0.02 0.17,0.04 0.18,0.03 0.18,0.02 0.18,0.01 0.17,0.02 0.18,0.01 0.18,0.09 0.18,0.04 0.18,0.04 0.17,0.03 0.18,0.02 0.18,0.02 0.18,0.02 0.17,0.03 0.18,0.04 0.18,0.03 0.18,0.05 0.18,0.02 0.17,0.02 0.18,0 0.18,0.01 0.18,0.04 0.17,0.04 0.18,0.03 0.18,0.04 0.18,0.02 0.18,0.04 0.17,0.05 0.18,0.02 0.18,0.04 0.18,0.04 0.17,0.04 0.18,0.04 0.18,0.05 0.18,0.03 0.18,0.04 0.17,0.05 0.18,0.01 0.18,0.05 0.18,0.03 0.17,0.03 0.18,0.04 0.18,0.02 0.18,0.04 0.18,0.04 0.17,0.04 0.18,0.02 0.18,0.03 0.18,0.02 0.17,0.04 0.18,0.03 0.18,0.04 0.18,0.06 0.18,0.03 0.17,0.06 0.18,0.04 0.18,0.04 0.18,0.05 0.17,0.02 0.18,0.04 0.18,0.01 0.18,0 0.18,0.03 0.17,0.04 0.18,0.02 0.18,0.02 0.18,0.01 0.17,0.05 0.18,0.02 0.18,0.04 0.18,0.02 0.18,0.03 0.17,0.02 0.18,0.04 0.18,0.01 0.18,0.02 0.17,0.01 0.18,0.03 0.18,0.02 0.18,0.02 0.18,0.05 0.17,0.02 0.18,0.03 0.18,0.01 0.18,0.02 0.17,0.03 0.18,0.02 0.18,0.02 0.18,0.02 0.18,0.01 0.17,0.02 0.18,0.03 0.18,0.05 0.18,0.03 0.17,0.03 0.18,0.02 0.18,0.02 0.18,0.02 0.18,0.05 0.17,0.03 0.18,0.03 0.18,0.01 0.18,0.02 0.17,0.03 0.18,0.02 0.18,0.04 0.18,0.02 0.18,0.03 0.17,0.03 0.18,0.03 0.18,0.03 0.18,0.03 0.17,0.05 0.18,0.02 0.18,0.01 0.18,0.02 0.18,0.02 0.17,0.04 0.18,0.03 0.18,0.02 0.18,0.03 0.17,0.02 0.18,0.01 0.18,0.01 0.18,0.02 0.18,0.01 0.17,0.03 0.18,0.03 0.18,0 0.18,0.01 0.17,0.02 0.18,0.02 0.18,0.02 0.18,0.03 0.18,0.03 0.17,0.01 0.18,0 0.18,0 0.18,0.01 0.17,0.02 0.18,0.01 0.18,0.01 0.18,0.01 0.18,0 0.17,0.01 0.18,0.01 0.18,0.01 0.18,0.02 0.17,0.01 0.18,0.01 0.18,0.02 0.18,0.01 0.18,0.01 0.17,0.01 0.18,0.01 0.18,0 0.18,0.01 0.17,0 0.18,0 0.18,0 0.18,0.01 0.18,0.01 0.17,0 0.18,0 0.18,0 0.18,0 0.17,0 0.18,0 0.18,0 0.18,0 0.18,0 0.17,0 0.18,0 0.18,0 0.18,0 0.17,0 0.18,0 0.18,0 0.18,0 0.18,0 0.17,0 0.18,0 0.18,0 0.18,0 0.17,0 0.18,0 0.18,0"
       style="fill:none;stroke:#ff0000;stroke-width:1;stroke-linecap:round;stroke-linejoin:round;stroke-miterlimit:10;stroke-dasharray:none;stroke-opacity:1"
       id="path132"
       inkscape:connector-curvature="0"
       inkscape:export-filename="E:\Dropbox\research\with_dropbox\papers and projects\2017\Sex movement after separation\170829_Sim1.png"
       inkscape:export-xdpi="1000"
       inkscape:export-ydpi="1000" /><path
       d="m 150.926,499.06223 0.18,0 0.17,0 0.18,0 0.18,0 0.18,0 0.17,0 0.18,0 0.18,0 0.18,0 0.18,0 0.17,0 0.18,0 0.18,0 0.18,0.01 0.17,0.33 0.18,0.82 0.18,1.32 0.18,1.35 0.18,1.29 0.17,1.2 0.18,1.34 0.18,1.24 0.18,1.32 0.17,1.31 0.18,1.18 0.18,1.16 0.18,1.19 0.18,1.44 0.17,1.4 0.18,1.26 0.18,1.12 0.18,1.14 0.17,1.15 0.18,1.08 0.18,1.01 0.18,1.01 0.18,0.99 0.17,0.97 0.18,1.17 0.18,0.95 0.18,0.97 0.17,1.08 0.18,0.86 0.18,0.9 0.18,1.01 0.18,0.84 0.17,0.91 0.18,1.18 0.18,0.77 0.18,0.93 0.17,1.01 0.18,0.89 0.18,0.85 0.18,0.89 0.18,0.92 0.17,0.86 0.18,0.98 0.18,0.67 0.18,0.87 0.17,0.81 0.18,0.88 0.18,0.8 0.18,0.79 0.18,0.71 0.17,0.73 0.18,0.69 0.18,0.72 0.18,0.68 0.17,0.76 0.18,0.74 0.18,0.73 0.18,0.69 0.18,0.72 0.17,0.58 0.18,0.6 0.18,0.58 0.18,0.77 0.17,0.61 0.18,0.76 0.18,0.47 0.18,0.48 0.18,0.6 0.17,0.64 0.18,0.6 0.18,0.65 0.18,0.59 0.17,0.64 0.18,0.6 0.18,0.62 0.18,0.49 0.18,0.61 0.17,0.56 0.18,0.71 0.18,0.58 0.18,0.51 0.17,0.41 0.18,0.59 0.18,0.54 0.18,0.61 0.18,0.53 0.17,0.47 0.18,0.5 0.18,0.44 0.18,0.5 0.17,0.54 0.18,0.5 0.18,0.56 0.18,0.4 0.18,0.5 0.17,0.52 0.18,0.45 0.18,0.39 0.18,0.49 0.17,0.49 0.18,0.45 0.18,0.4 0.18,0.47 0.18,0.46 0.17,0.43 0.18,0.42 0.18,0.48 0.18,0.4 0.17,0.45 0.18,0.41 0.18,0.37 0.18,0.39 0.18,0.49 0.17,0.5 0.18,0.3 0.18,0.43 0.18,0.41 0.17,0.49 0.18,0.45 0.18,0.32 0.18,0.5 0.18,0.4 0.17,0.41 0.18,0.4 0.18,0.35 0.18,0.31 0.17,0.31 0.18,0.35 0.18,0.32 0.18,0.36 0.18,0.37 0.17,0.28 0.18,0.37 0.18,0.37 0.18,0.37 0.17,0.38 0.18,0.43 0.18,0.26 0.18,0.32 0.18,0.4 0.17,0.42 0.18,0.33 0.18,0.31 0.18,0.32 0.17,0.31 0.18,0.35 0.18,0.33 0.18,0.32 0.18,0.3 0.17,0.45 0.18,0.35 0.18,0.32 0.18,0.39 0.17,0.28 0.18,0.29 0.18,0.32 0.18,0.35 0.18,0.28 0.17,0.26 0.18,0.29 0.18,0.33 0.18,0.24 0.17,0.3 0.18,0.28 0.18,0.26 0.18,0.24 0.18,0.28 0.17,0.31 0.18,0.32 0.18,0.31 0.18,0.25 0.17,0.35 0.18,0.31 0.18,0.34 0.18,0.25 0.18,0.32 0.17,0.3 0.18,0.27 0.18,0.28 0.18,0.31 0.17,0.25 0.18,0.32 0.18,0.35 0.18,0.25 0.18,0.25 0.17,0.28 0.18,0.33 0.18,0.28 0.18,0.36 0.17,0.21 0.18,0.22 0.18,0.15 0.18,0.26 0.18,0.19 0.17,0.2 0.18,0.21 0.18,0.34 0.18,0.17 0.17,0.2 0.18,0.31 0.18,0.23 0.18,0.29 0.18,0.31 0.17,0.21 0.18,0.27 0.18,0.2 0.18,0.23 0.17,0.14 0.18,0.21 0.18,0.18 0.18,0.21 0.18,0.2 0.17,0.28 0.18,0.21 0.18,0.23 0.18,0.24 0.17,0.37 0.18,0.28 0.18,0.21 0.18,0.22 0.18,0.18 0.17,0.21 0.18,0.21 0.18,0.26 0.18,0.29 0.17,0.15 0.18,0.24 0.18,0.19 0.18,0.28 0.18,0.25 0.17,0.24 0.18,0.22 0.18,0.26 0.18,0.19 0.17,0.26 0.18,0.18 0.18,0.2 0.18,0.14 0.18,0.2 0.17,0.21 0.18,0.18 0.18,0.19 0.18,0.25 0.17,0.25 0.18,0.18 0.18,0.21 0.18,0.19 0.18,0.17 0.17,0.2 0.18,0.23 0.18,0.29 0.18,0.21 0.17,0.23 0.18,0.19 0.18,0.22 0.18,0.22 0.18,0.23 0.17,0.13 0.18,0.14 0.18,0.22 0.18,0.18 0.17,0.14 0.18,0.2 0.18,0.16 0.18,0.16 0.18,0.24 0.17,0.19 0.18,0.2 0.18,0.24 0.18,0.14 0.17,0.14 0.18,0.16 0.18,0.25 0.18,0.19 0.18,0.15 0.17,0.19 0.18,0.19 0.18,0.23 0.18,0.15 0.17,0.1 0.18,0.18 0.18,0.2 0.18,0.2 0.18,0.17 0.17,0.27 0.18,0.21 0.18,0.17 0.18,0.18 0.17,0.19 0.18,0.17 0.18,0.13 0.18,0.15 0.18,0.21 0.17,0.17 0.18,0.16 0.18,0.17 0.18,0.17 0.17,0.18 0.18,0.2 0.18,0.17 0.18,0.15 0.18,0.15 0.17,0.16 0.18,0.19 0.18,0.07 0.18,0.16 0.17,0.23 0.18,0.16 0.18,0.19 0.18,0.12 0.18,0.12 0.17,0.16 0.18,0.15 0.18,0.13 0.18,0.13 0.17,0.12 0.18,0.14 0.18,0.18 0.18,0.14 0.18,0.18 0.17,0.14 0.18,0.13 0.18,0.12 0.18,0.15 0.17,0.18 0.18,0.12 0.18,0.12 0.18,0.17 0.18,0.12 0.17,0.15 0.18,0.18 0.18,0.1 0.18,0.18 0.17,0.11 0.18,0.12 0.18,0.14 0.18,0.14 0.18,0.18 0.17,0.18 0.18,0.15 0.18,0.12 0.18,0.12 0.17,0.16 0.18,0.12 0.18,0.13 0.18,0.15 0.18,0.16 0.17,0.09 0.18,0.15 0.18,0.1 0.18,0.1 0.17,0.13 0.18,0.16 0.18,0.15 0.18,0.12 0.18,0.11 0.17,0.14 0.18,0.11 0.18,0.15 0.18,0.11 0.17,0.12 0.18,0.12 0.18,0.19 0.18,0.14 0.18,0.17 0.17,0.13 0.18,0.15 0.18,0.17 0.18,0.11 0.17,0.13 0.18,0.11 0.18,0.14 0.18,0.17 0.18,0.16 0.17,0.15 0.18,0.15 0.18,0.14 0.18,0.11 0.17,0.13 0.18,0.1 0.18,0.14 0.18,0.14 0.18,0.12 0.17,0.16 0.18,0.1 0.18,0.15 0.18,0.11 0.17,0.11 0.18,0.13 0.18,0.09 0.18,0.1 0.18,0.09 0.17,0.15 0.18,0.15 0.18,0.14 0.18,0.11 0.17,0.11 0.18,0.08 0.18,0.09 0.18,0.13 0.18,0.09 0.17,0.11 0.18,0.12 0.18,0.1 0.18,0.13 0.17,0.12 0.18,0.12 0.18,0.06 0.18,0.09 0.18,0.16 0.17,0.18 0.18,0.13 0.18,0.08 0.18,0.11 0.17,0.13 0.18,0.1 0.18,0.14 0.18,0.17 0.18,0.12 0.17,0.12 0.18,0.13 0.18,0.07 0.18,0.13 0.17,0.15 0.18,0.09 0.18,0.08 0.18,0.09 0.18,0.15 0.17,0.12 0.18,0.11 0.18,0.1 0.18,0.09 0.17,0.12 0.18,0.08 0.18,0.07 0.18,0.08 0.18,0.12 0.17,0.08 0.18,0.14 0.18,0.1 0.18,0.09 0.17,0.1 0.18,0.14 0.18,0.08 0.18,0.09 0.18,0.13 0.17,0.15 0.18,0.13 0.18,0.12 0.18,0.1 0.17,0.09 0.18,0.13 0.18,0.08 0.18,0.06 0.18,0.08 0.17,0.1 0.18,0.03 0.18,0.11 0.18,0.1 0.17,0.1 0.18,0.06 0.18,0.15 0.18,0.09 0.18,0.13 0.17,0.11 0.18,0.08 0.18,0.13 0.18,0.14 0.17,0.13 0.18,0.14 0.18,0.1 0.18,0.15 0.18,0.11 0.17,0.13 0.18,0.13 0.18,0.09 0.18,0.08 0.17,0.07 0.18,0.12 0.18,0.1 0.18,0.1 0.18,0.07 0.17,0.06 0.18,0.04 0.18,0.09 0.18,0.1 0.17,0.12 0.18,0.06 0.18,0.08 0.18,0.1 0.18,0.11 0.17,0.09 0.18,0.06 0.18,0.09 0.18,0.09 0.17,0.09 0.18,0.07 0.18,0.08 0.18,0.1 0.18,0.09 0.17,0.1 0.18,0.09 0.18,0.1 0.18,0.09 0.17,0.13 0.18,0.07 0.18,0.06 0.18,0.09 0.18,0.1 0.17,0.08 0.18,0.1 0.18,0.08 0.18,0.08 0.17,0.13 0.18,0.09 0.18,0.12 0.18,0.06 0.18,0.11 0.17,0.11 0.18,0.08 0.18,0.16 0.18,0.09 0.17,0.14 0.18,0.06 0.18,0.07 0.18,0.06 0.18,0.07 0.17,0.13 0.18,0.04 0.18,0.05 0.18,0.09 0.17,0.12 0.18,0.07 0.18,0.09 0.18,0.14 0.18,0.04 0.17,0.08 0.18,0.12 0.18,0.12 0.18,0.09 0.17,0.11 0.18,0.08 0.18,0.09 0.18,0.07 0.18,0.09 0.17,0.08 0.18,0.07 0.18,0.07 0.18,0.08 0.17,0.1 0.18,0.05 0.18,0.09 0.18,0.05 0.18,0.08 0.17,0.07 0.18,0.08 0.18,0.09 0.18,0.07 0.17,0.08 0.18,0.11 0.18,0.07 0.18,0.07 0.18,0.11 0.17,0.09 0.18,0.09 0.18,0.07 0.18,0.13 0.17,0.08 0.18,0.13 0.18,0.06 0.18,0.11 0.18,0.04 0.17,0.09 0.18,0.06 0.18,0.05 0.18,0.06 0.17,0.12 0.18,0.08 0.18,0.09 0.18,0.07 0.18,0.07 0.17,0.08 0.18,0.08 0.18,0.07 0.18,0.1 0.17,0.08 0.18,0.13 0.18,0.1 0.18,0.06 0.18,0.12 0.17,0.04 0.18,0.08 0.18,0.12 0.18,0.09 0.17,0.06 0.18,0.07 0.18,0.1 0.18,0.03 0.18,0.13 0.17,0.06 0.18,0.09 0.18,0.07 0.18,0.1 0.17,0.07 0.18,0.01 0.18,0.08 0.18,0.05 0.18,0.08 0.17,0.08 0.18,0.05 0.18,0.09 0.18,0.08 0.17,0.05 0.18,0.06 0.18,0.06 0.18,0.07 0.18,0.11 0.17,0.09 0.18,0.06 0.18,0.07 0.18,0.08 0.17,0.07 0.18,0.12 0.18,0.11 0.18,0.03 0.18,0.11 0.17,0.13 0.18,0.08 0.18,0.08 0.18,0.06 0.17,0.07 0.18,0.03 0.18,0.08 0.18,0.13 0.18,0.08 0.17,0.07 0.18,0.07 0.18,0.1 0.18,0.07 0.17,0.04 0.18,0.1 0.18,0.08 0.18,0.06 0.18,0.05 0.17,0.11 0.18,0.06 0.18,0.08 0.18,0.05 0.17,0.06 0.18,0.05 0.18,0.09 0.18,0.11 0.18,0.04 0.17,0.08 0.18,0.02 0.18,0.08 0.18,0.07 0.17,0.04 0.18,0.06 0.18,0.05 0.18,0.05 0.18,0.06 0.17,0.04 0.18,0.06 0.18,0.04 0.18,0.07 0.17,0.12 0.18,0.06 0.18,0.06 0.18,0.07 0.18,0.06 0.17,0.09 0.18,0.1 0.18,0.07 0.18,0.09 0.17,0.06 0.18,0.07 0.18,0.05 0.18,0.06 0.18,0.06 0.17,0.09 0.18,0.07 0.18,0.05 0.18,0.09 0.17,0.12 0.18,0.07 0.18,0.06 0.18,0.05 0.18,0.07 0.17,0.04 0.18,0.07 0.18,0.06 0.18,0.04 0.17,0.04 0.18,0.07 0.18,0.09 0.18,0.07 0.18,0.1 0.17,0.08 0.18,0.06 0.18,0.08 0.18,0.04 0.17,0.05 0.18,0.08 0.18,0.09 0.18,0.04 0.18,0.04 0.17,0.07 0.18,0.07 0.18,0.05 0.18,0.06 0.17,0.09 0.18,0.1 0.18,0.05 0.18,0.02 0.18,0.06 0.17,0.05 0.18,0.06 0.18,0.05 0.18,0.07 0.17,0.09 0.18,0.03 0.18,0.06 0.18,0.03 0.18,0.07 0.17,0.06 0.18,0.07 0.18,0.06 0.18,0.08 0.17,0.08 0.18,0.04 0.18,0.07 0.18,0.03 0.18,0.07 0.17,0.1 0.18,0.08 0.18,0.12 0.18,0.05 0.17,0.16 0.18,0.04 0.18,0.07 0.18,0.07 0.18,0.05 0.17,0.03 0.18,0.06 0.18,0.08 0.18,0.08 0.17,0.02 0.18,0.04 0.18,0.07 0.18,0.06 0.18,0.07 0.17,0.04 0.18,0.07 0.18,0.1 0.18,0.08 0.17,0.03 0.18,0.06 0.18,0.08 0.18,0.07 0.18,0.06 0.17,0.05 0.18,0.11 0.18,0.09 0.18,0.06 0.17,0.06 0.18,0.04 0.18,0.08 0.18,0.09 0.18,0.08 0.17,0.06 0.18,0.05 0.18,0.03 0.18,0.07 0.17,0.05 0.18,0.03 0.18,0.07 0.18,0.02 0.18,0.06 0.17,0.01 0.18,0.07 0.18,0.11 0.18,0.03 0.17,0.06 0.18,0.04 0.18,0.05 0.18,0.08 0.18,0.04 0.17,0.08 0.18,0.06 0.18,0.05 0.18,0.05 0.17,0.04 0.18,0.09 0.18,0.04 0.18,0.03 0.18,0.06 0.17,0.09 0.18,0.04 0.18,0.05 0.18,0.07 0.17,0.08 0.18,0.05 0.18,0.09 0.18,0.06 0.18,0.02 0.17,0.08 0.18,0.06 0.18,0.08 0.18,0.02 0.17,0.07 0.18,0.06 0.18,0.03 0.18,0.04 0.18,0.04 0.17,0.04 0.18,0.04 0.18,0.07 0.18,0.07 0.17,0.05 0.18,0.04 0.18,0.08 0.18,0.07 0.18,0.08 0.17,0.06 0.18,0.02 0.18,0.05 0.18,0.05 0.17,0.03 0.18,0.06 0.18,0.04 0.18,0.04 0.18,0.05 0.17,0.04 0.18,0.04 0.18,0.11 0.18,0.06 0.17,0.08 0.18,0.07 0.18,0.05 0.18,0.09 0.18,0.06 0.17,0.05 0.18,0.04 0.18,0.05 0.18,0.03 0.17,0.1 0.18,0.06 0.18,0.08 0.18,0.07 0.18,0.05 0.17,0.02 0.18,0.09 0.18,0.03 0.18,0.06 0.17,0.04 0.18,0.05 0.18,0.05 0.18,0.07 0.18,0.07 0.17,0.02 0.18,0.06 0.18,0.08 0.18,0.01 0.17,0.06 0.18,0.05 0.18,0.07 0.18,0.04 0.18,0.03 0.17,0.03 0.18,0.01 0.18,0.08 0.18,0.02 0.17,0.03 0.18,0.05 0.18,0.05 0.18,0.03 0.18,0.02 0.17,0.08 0.18,0.03 0.18,0.07 0.18,0.04 0.17,0.04 0.18,0.05 0.18,0.03 0.18,0.05 0.18,0.03 0.17,0.06 0.18,0.04 0.18,0.05 0.18,0.02 0.17,0.04 0.18,0.08 0.18,0.05 0.18,0.03 0.18,0.03 0.17,0.03 0.18,0.06 0.18,0.03 0.18,0.05 0.17,0.04 0.18,0.05 0.18,0.08 0.18,0.02 0.18,0.04 0.17,0.05 0.18,0.04 0.18,0.02 0.18,0.03 0.17,0.06 0.18,0.05 0.18,0.06 0.18,0.06 0.18,0.07 0.17,0.04 0.18,0.05 0.18,0.05 0.18,0.07 0.17,0.04 0.18,0.03 0.18,0.05 0.18,0.05 0.18,0.06 0.17,0.02 0.18,0.03 0.18,0.05 0.18,0.03 0.17,0.06 0.18,0.05 0.18,0.02 0.18,0.05 0.18,0.04 0.17,0.06 0.18,0.04 0.18,0.06 0.18,0.04 0.17,0.04 0.18,0.07 0.18,0.06 0.18,0.06 0.18,0.05 0.17,0.05 0.18,0.05 0.18,0.03 0.18,0.06 0.17,0.04 0.18,0.04 0.18,0.03 0.18,0.04 0.18,0.05 0.17,0.02 0.18,0.04 0.18,0.07 0.18,0.02 0.17,0.07 0.18,0.05 0.18,0.05 0.18,0.05 0.18,0.04 0.17,0.04 0.18,0.03 0.18,0.05 0.18,0.04 0.17,0.02 0.18,0.06 0.18,0.02 0.18,0.03 0.18,0.04 0.17,0.04 0.18,0.07 0.18,0.06 0.18,0.05 0.17,0.06 0.18,0.03 0.18,0.03 0.18,0.05 0.18,0.05 0.17,0.05 0.18,0.07 0.18,0.05 0.18,0.03 0.17,0.04 0.18,0.06 0.18,0.03 0.18,0.06 0.18,0.06 0.17,0.03 0.18,0.05 0.18,0.07 0.18,0.03 0.17,0.05 0.18,0.01 0.18,0.03 0.18,0.05 0.18,0.06 0.17,0.1 0.18,0.06 0.18,0.04 0.18,0.06 0.17,0.07 0.18,0.06 0.18,0.05 0.18,0.06 0.18,0.04 0.17,0.03 0.18,0.06 0.18,0.05 0.18,0.05 0.17,0.03 0.18,0.04 0.18,0.05 0.18,0.06 0.18,0.05 0.17,0.06 0.18,0.06 0.18,0.04 0.18,0.05 0.17,0.05 0.18,0.03 0.18,0.03 0.18,0.03 0.18,0.06 0.17,0.06 0.18,0.03 0.18,0.06 0.18,0.02 0.17,0.02 0.18,0.03 0.18,0.04 0.18,0 0.18,0.04 0.17,0.04 0.18,0.04 0.18,0.03 0.18,0.05 0.17,0.06 0.18,0.06 0.18,0.03 0.18,0.05 0.18,0.06 0.17,0.02 0.18,0.02 0.18,0.06 0.18,0.04 0.17,0.03 0.18,0.06 0.18,0.04 0.18,0.01 0.18,0.09 0.17,0.04 0.18,0.06 0.18,0.05 0.18,0.05 0.17,0.04 0.18,0.03 0.18,0.06 0.18,0.04 0.18,0.03 0.17,0.04 0.18,0.02 0.18,0.04 0.18,0.03 0.17,0.09 0.18,0.06 0.18,0.04 0.18,0.04 0.18,0.03 0.17,0.04 0.18,0.04 0.18,0.02 0.18,0.05 0.17,0.04 0.18,0.03 0.18,0.03 0.18,0.05 0.18,0.04 0.17,0.01 0.18,0.05 0.18,0.05 0.18,0.07 0.17,0.06 0.18,0.02 0.18,0.05 0.18,0.05 0.18,0.06 0.17,0.03 0.18,0.06 0.18,0.02 0.18,0.06 0.17,0.03 0.18,0.04 0.18,0.07 0.18,0.07 0.18,0.03 0.17,0.04 0.18,0.03 0.18,0.02 0.18,0.05 0.17,0.01 0.18,0.03 0.18,0 0.18,0.04 0.18,0.04 0.17,0.03 0.18,0.08 0.18,0.03 0.18,0.04 0.17,0.07 0.18,0.05 0.18,0.03 0.18,0.07 0.18,0.04 0.17,0.05 0.18,0.04 0.18,0.04 0.18,0.03 0.17,0.02 0.18,0.03 0.18,0.02 0.18,0.05 0.18,0.04 0.17,0.03 0.18,0.05 0.18,0.04 0.18,0.04 0.17,0.02 0.18,0.07 0.18,0.04 0.18,0.03 0.18,0.03 0.17,0.07 0.18,0.01 0.18,0.06 0.18,0.02 0.17,0.02 0.18,0.05 0.18,0.04 0.18,0.04 0.18,0 0.17,0.03 0.18,0.04 0.18,0.04 0.18,0.03 0.17,0.04 0.18,0.06 0.18,0.05 0.18,0.04 0.18,0.05 0.17,0.04 0.18,0.04 0.18,0.02 0.18,0.02 0.17,0.05 0.18,0.05 0.18,0.01 0.18,0.03 0.18,0.07 0.17,0.02 0.18,0.02 0.18,0.03 0.18,0.06 0.17,0.04 0.18,0.04 0.18,0.02 0.18,0.05 0.18,0.04 0.17,0.04 0.18,0.05 0.18,0.02 0.18,0.05 0.17,0.01 0.18,0.03 0.18,0.03 0.18,0.03 0.18,0.06 0.17,0.04 0.18,0.03 0.18,0.05 0.18,0.03 0.17,0.04 0.18,0.04 0.18,0.04 0.18,0.02 0.18,0.02 0.17,0.03 0.18,0.02 0.18,0.02 0.18,0.04 0.17,0.03 0.18,0.05 0.18,0.05 0.18,0.04 0.18,0.04 0.17,0.02 0.18,0.08 0.18,0.01 0.18,0.03 0.17,0.04 0.18,0.05 0.18,0.01 0.18,0.02 0.18,0.02 0.17,0.02 0.18,0.05 0.18,0.04 0.18,0.02 0.17,0.03 0.18,0.03 0.18,0.02 0.18,0.02 0.18,0.06 0.17,0.03 0.18,0.04 0.18,0.03 0.18,0.03 0.17,0.03 0.18,0.03 0.18,0.03 0.18,0.01 0.18,0.02 0.17,0 0.18,0.02 0.18,0.05 0.18,0.02 0.17,0.04 0.18,0.02 0.18,0.03 0.18,0.04 0.18,0.03 0.17,0.04 0.18,0.03 0.18,0 0.18,0.03 0.17,0.04 0.18,0.02 0.18,0.05 0.18,0.02 0.18,0.03 0.17,0.03 0.18,0.03 0.18,0.02 0.18,0.03 0.17,0.03 0.18,0.04 0.18,0.01 0.18,0.04 0.18,0.02 0.17,0.02 0.18,0.02 0.18,0.03 0.18,0.04 0.17,0.04 0.18,0.05 0.18,0.05 0.18,0.03 0.18,0.07 0.17,0.02 0.18,0.02 0.18,0.03 0.18,0 0.17,0.02 0.18,0.03 0.18,0.03 0.18,0.03 0.18,0.04 0.17,0.02 0.18,0.04 0.18,0.05 0.18,0.03 0.17,0.03 0.18,0.09 0.18,0.02 0.18,0.02 0.18,0.03 0.17,0.02 0.18,0.05 0.18,0.02 0.18,0.04 0.17,0.02 0.18,0.03 0.18,0.03 0.18,0.03 0.18,0.03 0.17,0.05 0.18,0.02 0.18,0.03 0.18,0.03 0.17,0.02 0.18,0.03 0.18,0.04 0.18,0.02 0.18,0.03 0.17,0.02 0.18,0.04 0.18,0.04 0.18,0.05 0.17,0.03 0.18,0.03 0.18,0.02 0.18,0.03 0.18,0.01 0.17,0.04 0.18,0.01 0.18,0.01 0.18,0.06 0.17,0.03 0.18,0.04 0.18,0.03 0.18,0.03 0.18,0.03 0.17,0.02 0.18,0.03 0.18,0.03 0.18,0.06 0.17,0.01 0.18,0.05 0.18,0.03 0.18,0.01 0.18,0.02 0.17,0.02 0.18,0.02 0.18,0.07 0.18,0.04 0.17,0.04 0.18,0.03 0.18,0 0.18,0.02 0.18,0.03 0.17,0.02 0.18,0.04 0.18,0.02 0.18,0.03 0.17,0.03 0.18,0.03 0.18,0.04 0.18,0.08 0.18,0.01 0.17,0.04 0.18,0.03 0.18,0.01 0.18,0.01 0.17,0.03 0.18,0.03 0.18,0.03 0.18,0.04 0.18,0.06 0.17,0.05 0.18,0.05 0.18,0.01 0.18,0.03 0.17,0.02 0.18,0.04 0.18,0.04 0.18,0.03 0.18,0.01 0.17,0.05 0.18,0.03 0.18,0.03 0.18,0.05 0.17,0.05 0.18,0.02 0.18,0.07 0.18,0.03 0.18,0.04 0.17,0.03 0.18,0.03 0.18,0.03 0.18,0.04 0.17,0.03 0.18,0.01 0.18,0.01 0.18,0.04 0.18,0.04 0.17,0.03 0.18,0.02 0.18,0.04 0.18,0.04 0.17,0.04 0.18,0.03 0.18,0 0.18,0.03 0.18,0.02 0.17,0.02 0.18,0.03 0.18,0.03 0.18,0.04 0.17,0.03 0.18,0.01 0.18,0.02 0.18,0 0.18,0.03 0.17,0.05 0.18,0.04 0.18,0.02 0.18,0.01 0.17,0.02 0.18,0.03 0.18,0.02 0.18,0.03 0.18,0.02 0.17,0.03 0.18,0 0.18,0.03 0.18,0.04 0.17,0.03 0.18,0.06 0.18,0.01 0.18,0.03 0.18,0.02 0.17,0.05 0.18,0.03 0.18,0.06 0.18,0.05 0.17,0.04 0.18,0.02 0.18,0.03 0.18,0.03 0.18,0.01 0.17,0.04 0.18,0.05 0.18,0.02 0.18,0.03 0.17,0.02 0.18,0.02 0.18,0.04 0.18,0.03 0.18,0.02 0.17,0.02 0.18,0.02 0.18,0.02 0.18,0.03 0.17,0.02 0.18,0.04 0.18,0.01 0.18,0.03 0.18,0.03 0.17,0.04 0.18,0.04 0.18,0.05 0.18,0.05 0.17,0.02 0.18,0.01 0.18,0.02 0.18,0.02 0.18,0.01 0.17,0.03 0.18,0.04 0.18,0.03 0.18,0 0.17,0.03 0.18,0.02 0.18,0.01 0.18,0.03 0.18,0.02 0.17,0.01 0.18,0.04 0.18,0.02 0.18,0.02 0.17,0.04 0.18,0.02 0.18,0.02 0.18,0.03 0.18,0 0.17,0.02 0.18,0.04 0.18,0.01 0.18,0.03 0.17,0.01 0.18,0.04 0.18,0 0.18,0.02 0.18,0.04 0.17,0.02 0.18,0.03 0.18,0.03 0.18,0.03 0.17,0.05 0.18,0.03 0.18,0.01 0.18,0.02 0.18,0.03 0.17,0.02 0.18,0.04 0.18,0 0.18,0.03 0.17,0 0.18,0.01 0.18,0.01 0.18,0.02 0.18,0.01 0.17,0.01 0.18,0 0.18,0.02 0.18,0.02 0.17,0.02 0.18,0.05 0.18,0.02 0.18,0.01 0.18,0.03 0.17,0.01 0.18,0.02 0.18,0.02 0.18,0.03 0.17,0.02 0.18,0.01 0.18,0.02 0.18,0 0.18,0.01 0.17,0.04 0.18,0 0.18,0.03 0.18,0.01 0.17,0.02 0.18,0 0.18,0.01 0.18,0.02 0.18,0.02 0.17,0.02 0.18,0.02 0.18,0.02 0.18,0.01 0.17,0.01 0.18,0.03 0.18,0.02 0.18,0.02 0.18,0.02 0.17,0.02 0.18,0.01 0.18,0 0.18,0.01 0.17,0.03 0.18,0.03 0.18,0.02 0.18,0 0.18,0.02 0.17,0.02 0.18,0.01 0.18,0 0.18,0.03 0.17,0.01 0.18,0.01 0.18,0.03 0.18,0.03 0.18,0 0.17,0 0.18,0.02 0.18,0.04 0.18,0.01 0.17,0 0.18,0 0.18,0.01 0.18,0.01 0.18,0.02 0.17,0.01 0.18,0.02 0.18,0 0.18,0.02 0.17,0.01 0.18,0.02 0.18,0.02 0.18,0 0.18,0.01 0.17,0 0.18,0.01 0.18,0.01 0.18,0 0.17,0.01 0.18,0.01 0.18,0.03 0.18,0.01 0.18,0.01 0.17,0.02 0.18,0.01 0.18,0.01 0.18,0.01 0.17,0 0.18,0.01 0.18,0 0.18,0.02 0.18,0.01 0.17,0.01 0.18,0.01 0.18,0.01 0.18,0.01 0.17,0.02 0.18,0 0.18,0.02 0.18,0 0.18,0.03 0.17,0 0.18,0.01 0.18,0.01 0.18,0 0.17,0 0.18,0.01 0.18,0.01 0.18,0.01 0.18,0.01 0.17,0 0.18,0 0.18,0.02 0.18,0.02 0.17,0.01 0.18,0 0.18,0.02 0.18,0.01 0.18,0.01 0.17,0 0.18,0 0.18,0 0.18,0 0.17,0.03 0.18,0.01 0.18,0.01 0.18,0 0.18,0.01 0.17,0.02 0.18,0 0.18,0 0.18,0 0.17,0.01 0.18,0 0.18,0 0.18,0 0.18,0.02 0.17,0 0.18,0 0.18,0 0.18,0.02 0.17,0.02 0.18,0 0.18,0 0.18,0 0.18,0.02 0.17,0.02 0.18,0 0.18,0 0.18,0.01 0.17,0 0.18,0.02 0.18,0 0.18,0 0.18,0.01 0.17,0 0.18,0 0.18,0 0.18,0 0.17,0 0.18,0 0.18,0.01 0.18,0 0.18,0 0.17,0 0.18,0.01 0.18,0.01 0.18,0 0.17,0.02 0.18,0.01 0.18,0 0.18,0 0.18,0.01 0.17,0 0.18,0 0.18,0 0.18,0 0.17,0 0.18,0 0.18,0.03 0.18,0 0.18,0 0.17,0 0.18,0 0.18,0 0.18,0.01 0.17,0 0.18,0 0.18,0 0.18,0 0.18,0 0.17,0 0.18,0 0.18,0 0.18,0.01 0.17,0 0.18,0 0.18,0 0.18,0 0.18,0 0.17,0 0.18,0 0.18,0 0.18,0 0.17,0 0.18,0 0.18,0 0.18,0 0.18,0 0.17,0 0.18,0 0.18,0 0.18,0 0.17,0 0.18,0 0.18,0 0.18,0 0.18,0 0.17,0 0.18,0.01 0.18,0 0.18,0 0.17,0 0.18,0 0.18,0 0.18,0 0.18,0 0.17,0 0.18,0 0.18,0 0.18,0 0.17,0 0.18,0 0.18,0 0.18,0 0.18,0 0.17,0 0.18,0 0.18,0 0.18,0 0.17,0 0.18,0 0.18,0 0.18,0 0.18,0 0.17,0 0.18,0 0.18,0 0.18,0 0.17,0 0.18,0 0.18,0 0.18,0 0.18,0 0.17,0 0.18,0 0.18,0 0.18,0 0.17,0 0.18,0 0.18,0 0.18,0 0.18,0 0.17,0 0.18,0 0.18,0 0.18,0 0.17,0 0.18,0 0.18,0 0.18,0 0.18,0 0.17,0 0.18,0 0.18,0 0.18,0 0.17,0 0.18,0 0.18,0 0.18,0 0.18,0 0.17,0 0.18,0 0.18,0 0.18,0 0.17,0 0.18,0 0.18,0 0.18,0 0.18,0 0.17,0 0.18,0 0.18,0 0.18,0 0.17,0 0.18,0 0.18,0"
       style="fill:none;stroke:#00cd00;stroke-width:1;stroke-linecap:round;stroke-linejoin:round;stroke-miterlimit:10;stroke-dasharray:none;stroke-opacity:1"
       id="path134"
       inkscape:connector-curvature="0"
       inkscape:export-filename="E:\Dropbox\research\with_dropbox\papers and projects\2017\Sex movement after separation\170829_Sim1.png"
       inkscape:export-xdpi="1000"
       inkscape:export-ydpi="1000" /><path
       d="m 150.926,499.06223 0.18,0 0.17,0 0.18,0 0.18,0 0.18,0 0.17,0 0.18,0 0.18,0 0.18,0 0.18,0 0.17,0 0.18,0 0.18,0 0.18,0 0.17,0 0.18,0 0.18,0 0.18,0 0.18,0 0.17,0 0.18,0 0.18,0 0.18,0 0.17,0.03 0.18,0.14 0.18,0.3 0.18,0.63 0.18,0.68 0.17,0.82 0.18,0.93 0.18,1.09 0.18,1.04 0.17,0.99 0.18,1.03 0.18,1.32 0.18,1.28 0.18,1.15 0.17,1.13 0.18,1.08 0.18,1.12 0.18,1.03 0.17,1.03 0.18,0.99 0.18,0.94 0.18,1.03 0.18,0.85 0.17,1.01 0.18,0.9 0.18,0.88 0.18,1 0.17,0.85 0.18,0.99 0.18,0.87 0.18,0.97 0.18,0.89 0.17,0.74 0.18,0.96 0.18,0.83 0.18,0.99 0.17,0.84 0.18,0.95 0.18,0.67 0.18,0.83 0.18,0.85 0.17,0.78 0.18,0.75 0.18,0.82 0.18,0.82 0.17,0.73 0.18,0.77 0.18,0.74 0.18,0.77 0.18,0.75 0.17,0.75 0.18,0.8 0.18,0.81 0.18,0.73 0.17,0.75 0.18,0.68 0.18,0.75 0.18,0.72 0.18,0.67 0.17,0.68 0.18,0.68 0.18,0.56 0.18,0.59 0.17,0.72 0.18,0.62 0.18,0.66 0.18,0.65 0.18,0.56 0.17,0.53 0.18,0.6 0.18,0.69 0.18,0.68 0.17,0.66 0.18,0.68 0.18,0.62 0.18,0.63 0.18,0.49 0.17,0.57 0.18,0.56 0.18,0.64 0.18,0.46 0.17,0.63 0.18,0.56 0.18,0.55 0.18,0.65 0.18,0.52 0.17,0.57 0.18,0.57 0.18,0.56 0.18,0.59 0.17,0.47 0.18,0.5 0.18,0.47 0.18,0.58 0.18,0.58 0.17,0.48 0.18,0.48 0.18,0.54 0.18,0.49 0.17,0.48 0.18,0.41 0.18,0.53 0.18,0.48 0.18,0.44 0.17,0.41 0.18,0.5 0.18,0.42 0.18,0.45 0.17,0.46 0.18,0.55 0.18,0.46 0.18,0.52 0.18,0.44 0.17,0.48 0.18,0.44 0.18,0.39 0.18,0.5 0.17,0.37 0.18,0.32 0.18,0.53 0.18,0.5 0.18,0.5 0.17,0.43 0.18,0.36 0.18,0.39 0.18,0.5 0.17,0.54 0.18,0.49 0.18,0.37 0.18,0.46 0.18,0.36 0.17,0.48 0.18,0.46 0.18,0.33 0.18,0.44 0.17,0.42 0.18,0.37 0.18,0.44 0.18,0.32 0.18,0.45 0.17,0.4 0.18,0.37 0.18,0.35 0.18,0.42 0.17,0.42 0.18,0.4 0.18,0.32 0.18,0.36 0.18,0.38 0.17,0.36 0.18,0.49 0.18,0.36 0.18,0.31 0.17,0.42 0.18,0.33 0.18,0.38 0.18,0.36 0.18,0.3 0.17,0.33 0.18,0.46 0.18,0.38 0.18,0.31 0.17,0.29 0.18,0.39 0.18,0.32 0.18,0.33 0.18,0.3 0.17,0.26 0.18,0.36 0.18,0.36 0.18,0.34 0.17,0.32 0.18,0.38 0.18,0.34 0.18,0.35 0.18,0.22 0.17,0.34 0.18,0.39 0.18,0.33 0.18,0.29 0.17,0.39 0.18,0.36 0.18,0.26 0.18,0.35 0.18,0.26 0.17,0.27 0.18,0.27 0.18,0.26 0.18,0.29 0.17,0.27 0.18,0.38 0.18,0.26 0.18,0.32 0.18,0.3 0.17,0.2 0.18,0.33 0.18,0.23 0.18,0.27 0.17,0.23 0.18,0.22 0.18,0.35 0.18,0.3 0.18,0.36 0.17,0.26 0.18,0.32 0.18,0.24 0.18,0.31 0.17,0.23 0.18,0.29 0.18,0.26 0.18,0.29 0.18,0.27 0.17,0.27 0.18,0.22 0.18,0.28 0.18,0.24 0.17,0.27 0.18,0.31 0.18,0.25 0.18,0.27 0.18,0.27 0.17,0.27 0.18,0.26 0.18,0.25 0.18,0.28 0.17,0.32 0.18,0.28 0.18,0.25 0.18,0.28 0.18,0.26 0.17,0.31 0.18,0.24 0.18,0.24 0.18,0.21 0.17,0.28 0.18,0.25 0.18,0.34 0.18,0.21 0.18,0.3 0.17,0.18 0.18,0.26 0.18,0.3 0.18,0.26 0.17,0.25 0.18,0.21 0.18,0.23 0.18,0.3 0.18,0.25 0.17,0.21 0.18,0.28 0.18,0.23 0.18,0.23 0.17,0.26 0.18,0.22 0.18,0.2 0.18,0.21 0.18,0.24 0.17,0.22 0.18,0.17 0.18,0.24 0.18,0.18 0.17,0.2 0.18,0.23 0.18,0.3 0.18,0.14 0.18,0.17 0.17,0.21 0.18,0.16 0.18,0.22 0.18,0.25 0.17,0.19 0.18,0.26 0.18,0.26 0.18,0.18 0.18,0.17 0.17,0.19 0.18,0.2 0.18,0.28 0.18,0.25 0.17,0.25 0.18,0.25 0.18,0.23 0.18,0.18 0.18,0.25 0.17,0.18 0.18,0.17 0.18,0.13 0.18,0.13 0.17,0.27 0.18,0.18 0.18,0.22 0.18,0.2 0.18,0.17 0.17,0.18 0.18,0.13 0.18,0.24 0.18,0.21 0.17,0.19 0.18,0.18 0.18,0.23 0.18,0.21 0.18,0.31 0.17,0.2 0.18,0.18 0.18,0.28 0.18,0.21 0.17,0.15 0.18,0.16 0.18,0.15 0.18,0.18 0.18,0.21 0.17,0.18 0.18,0.17 0.18,0.22 0.18,0.18 0.17,0.15 0.18,0.2 0.18,0.18 0.18,0.16 0.18,0.2 0.17,0.25 0.18,0.21 0.18,0.18 0.18,0.19 0.17,0.14 0.18,0.19 0.18,0.13 0.18,0.21 0.18,0.18 0.17,0.17 0.18,0.2 0.18,0.19 0.18,0.2 0.17,0.2 0.18,0.17 0.18,0.23 0.18,0.14 0.18,0.14 0.17,0.18 0.18,0.18 0.18,0.18 0.18,0.14 0.17,0.08 0.18,0.15 0.18,0.16 0.18,0.14 0.18,0.16 0.17,0.23 0.18,0.16 0.18,0.19 0.18,0.12 0.17,0.15 0.18,0.15 0.18,0.18 0.18,0.15 0.18,0.22 0.17,0.17 0.18,0.12 0.18,0.19 0.18,0.16 0.17,0.16 0.18,0.14 0.18,0.17 0.18,0.12 0.18,0.25 0.17,0.19 0.18,0.12 0.18,0.16 0.18,0.11 0.17,0.14 0.18,0.12 0.18,0.16 0.18,0.11 0.18,0.11 0.17,0.14 0.18,0.16 0.18,0.18 0.18,0.16 0.17,0.15 0.18,0.21 0.18,0.18 0.18,0.2 0.18,0.15 0.17,0.12 0.18,0.24 0.18,0.16 0.18,0.11 0.17,0.22 0.18,0.19 0.18,0.14 0.18,0.1 0.18,0.11 0.17,0.14 0.18,0.09 0.18,0.18 0.18,0.15 0.17,0.13 0.18,0.19 0.18,0.1 0.18,0.15 0.18,0.16 0.17,0.14 0.18,0.1 0.18,0.13 0.18,0.1 0.17,0.17 0.18,0.09 0.18,0.12 0.18,0.12 0.18,0.13 0.17,0.11 0.18,0.14 0.18,0.12 0.18,0.13 0.17,0.18 0.18,0.07 0.18,0.15 0.18,0.11 0.18,0.12 0.17,0.11 0.18,0.11 0.18,0.11 0.18,0.15 0.17,0.15 0.18,0.18 0.18,0.16 0.18,0.13 0.18,0.12 0.17,0.16 0.18,0.15 0.18,0.13 0.18,0.13 0.17,0.14 0.18,0.08 0.18,0.11 0.18,0.11 0.18,0.13 0.17,0.15 0.18,0.19 0.18,0.2 0.18,0.14 0.17,0.1 0.18,0.14 0.18,0.15 0.18,0.13 0.18,0.11 0.17,0.13 0.18,0.08 0.18,0.09 0.18,0.12 0.17,0.1 0.18,0.14 0.18,0.14 0.18,0.09 0.18,0.09 0.17,0.11 0.18,0.14 0.18,0.1 0.18,0.16 0.17,0.13 0.18,0.15 0.18,0.17 0.18,0.11 0.18,0.12 0.17,0.15 0.18,0.11 0.18,0.11 0.18,0.11 0.17,0.07 0.18,0.17 0.18,0.13 0.18,0.16 0.18,0.09 0.17,0.1 0.18,0.14 0.18,0.15 0.18,0.14 0.17,0.17 0.18,0.18 0.18,0.13 0.18,0.07 0.18,0.06 0.17,0.19 0.18,0.11 0.18,0.1 0.18,0.13 0.17,0.14 0.18,0.1 0.18,0.16 0.18,0.16 0.18,0.13 0.17,0.09 0.18,0.17 0.18,0.09 0.18,0.09 0.17,0.13 0.18,0.06 0.18,0.11 0.18,0.09 0.18,0.07 0.17,0.14 0.18,0.15 0.18,0.09 0.18,0.11 0.17,0.13 0.18,0.11 0.18,0.11 0.18,0.1 0.18,0.12 0.17,0.17 0.18,0.16 0.18,0.1 0.18,0.12 0.17,0.07 0.18,0.12 0.18,0.11 0.18,0.13 0.18,0.13 0.17,0.09 0.18,0.15 0.18,0.09 0.18,0.13 0.17,0.07 0.18,0.08 0.18,0.1 0.18,0.1 0.18,0.11 0.17,0.08 0.18,0.15 0.18,0.11 0.18,0.1 0.17,0.13 0.18,0.1 0.18,0.1 0.18,0.15 0.18,0.06 0.17,0.08 0.18,0.1 0.18,0.08 0.18,0.16 0.17,0.09 0.18,0.12 0.18,0.13 0.18,0.13 0.18,0.11 0.17,0.16 0.18,0.11 0.18,0.18 0.18,0.14 0.17,0.15 0.18,0.16 0.18,0.09 0.18,0.12 0.18,0.12 0.17,0.13 0.18,0.09 0.18,0.13 0.18,0.1 0.17,0.1 0.18,0.09 0.18,0.13 0.18,0.12 0.18,0.09 0.17,0.13 0.18,0.14 0.18,0.1 0.18,0.11 0.17,0.13 0.18,0.09 0.18,0.12 0.18,0.06 0.18,0.06 0.17,0.11 0.18,0.1 0.18,0.07 0.18,0.1 0.17,0.08 0.18,0.1 0.18,0.11 0.18,0.16 0.18,0.11 0.17,0.1 0.18,0.12 0.18,0.05 0.18,0.12 0.17,0.08 0.18,0.09 0.18,0.1 0.18,0.13 0.18,0.12 0.17,0.09 0.18,0.08 0.18,0.11 0.18,0.09 0.17,0.09 0.18,0.1 0.18,0.07 0.18,0.09 0.18,0.1 0.17,0.11 0.18,0.1 0.18,0.04 0.18,0.09 0.17,0.09 0.18,0.09 0.18,0.09 0.18,0.1 0.18,0.09 0.17,0.08 0.18,0.07 0.18,0.08 0.18,0.11 0.17,0.12 0.18,0.1 0.18,0.11 0.18,0.11 0.18,0.07 0.17,0.08 0.18,0.08 0.18,0.12 0.18,0.12 0.17,0.08 0.18,0.07 0.18,0.08 0.18,0.08 0.18,0.11 0.17,0.07 0.18,0.05 0.18,0.11 0.18,0.08 0.17,0.13 0.18,0.12 0.18,0.09 0.18,0.14 0.18,0.11 0.17,0.11 0.18,0.11 0.18,0.06 0.18,0.09 0.17,0.09 0.18,0.11 0.18,0.13 0.18,0.11 0.18,0.08 0.17,0.11 0.18,0.09 0.18,0.06 0.18,0.12 0.17,0.06 0.18,0.1 0.18,0.05 0.18,0.08 0.18,0.08 0.17,0.08 0.18,0.08 0.18,0.07 0.18,0.1 0.17,0.07 0.18,0.08 0.18,0.07 0.18,0.09 0.18,0.05 0.17,0.11 0.18,0.07 0.18,0.06 0.18,0.09 0.17,0.08 0.18,0.07 0.18,0.1 0.18,0.12 0.18,0.09 0.17,0.11 0.18,0.1 0.18,0.1 0.18,0.1 0.17,0.11 0.18,0.11 0.18,0.06 0.18,0.05 0.18,0.09 0.17,0.09 0.18,0.06 0.18,0.08 0.18,0.1 0.17,0.11 0.18,0.09 0.18,0.1 0.18,0.05 0.18,0.1 0.17,0.13 0.18,0.12 0.18,0.11 0.18,0.05 0.17,0.07 0.18,0.04 0.18,0.12 0.18,0.08 0.18,0.09 0.17,0.09 0.18,0.12 0.18,0.06 0.18,0.09 0.17,0.04 0.18,0.1 0.18,0.07 0.18,0.09 0.18,0.1 0.17,0.09 0.18,0.05 0.18,0.11 0.18,0.06 0.17,0.08 0.18,0.07 0.18,0.08 0.18,0.05 0.18,0.07 0.17,0.07 0.18,0.08 0.18,0.08 0.18,0.08 0.17,0.06 0.18,0.05 0.18,0.08 0.18,0.07 0.18,0.04 0.17,0.06 0.18,0.05 0.18,0.07 0.18,0.09 0.17,0.1 0.18,0.08 0.18,0.12 0.18,0.04 0.18,0.05 0.17,0.13 0.18,0.1 0.18,0.11 0.18,0.06 0.17,0.04 0.18,0.06 0.18,0.06 0.18,0.05 0.18,0.07 0.17,0.06 0.18,0.02 0.18,0.1 0.18,0.07 0.17,0.05 0.18,0.08 0.18,0.08 0.18,0.05 0.18,0.06 0.17,0.05 0.18,0.07 0.18,0.05 0.18,0.07 0.17,0.05 0.18,0.08 0.18,0.04 0.18,0.04 0.18,0.11 0.17,0.08 0.18,0.07 0.18,0.1 0.18,0.08 0.17,0.08 0.18,0.08 0.18,0.08 0.18,0.07 0.18,0.04 0.17,0.09 0.18,0.07 0.18,0.09 0.18,0.07 0.17,0.1 0.18,0.1 0.18,0.11 0.18,0.04 0.18,0.06 0.17,0.08 0.18,0.07 0.18,0.05 0.18,0.11 0.17,0.07 0.18,0.06 0.18,0.08 0.18,0.1 0.18,0.04 0.17,0.08 0.18,0.07 0.18,0.07 0.18,0.11 0.17,0.04 0.18,0.04 0.18,0.05 0.18,0.08 0.18,0.08 0.17,0.06 0.18,0.06 0.18,0.04 0.18,0.03 0.17,0.06 0.18,0.03 0.18,0.08 0.18,0.05 0.18,0.05 0.17,0.08 0.18,0.08 0.18,0.08 0.18,0.1 0.17,0.09 0.18,0.06 0.18,0.07 0.18,0.1 0.18,0.07 0.17,0.09 0.18,0.03 0.18,0.05 0.18,0.05 0.17,0.07 0.18,0.06 0.18,0.04 0.18,0.08 0.18,0.13 0.17,0.07 0.18,0.08 0.18,0.04 0.18,0.08 0.17,0.12 0.18,0.08 0.18,0.08 0.18,0.07 0.18,0.09 0.17,0.08 0.18,0.05 0.18,0.07 0.18,0.06 0.17,0.09 0.18,0.08 0.18,0.06 0.18,0.08 0.18,0.02 0.17,0.05 0.18,0.05 0.18,0.07 0.18,0.04 0.17,0.05 0.18,0.07 0.18,0.04 0.18,0.11 0.18,0.04 0.17,0.07 0.18,0.06 0.18,0.09 0.18,0.06 0.17,0.05 0.18,0.06 0.18,0.03 0.18,0.04 0.18,0.09 0.17,0.06 0.18,0.04 0.18,0.08 0.18,0.06 0.17,0.11 0.18,0.05 0.18,0.04 0.18,0.08 0.18,0.06 0.17,0.08 0.18,0.05 0.18,0.05 0.18,0.09 0.17,0.09 0.18,0.09 0.18,0.09 0.18,0.04 0.18,0.06 0.17,0.06 0.18,0.04 0.18,0.04 0.18,0.03 0.17,0.06 0.18,0.14 0.18,0.07 0.18,0.04 0.18,0.08 0.17,0.06 0.18,0.1 0.18,0.09 0.18,0.03 0.17,0.1 0.18,0.04 0.18,0.03 0.18,0.09 0.18,0.08 0.17,0.07 0.18,0.04 0.18,0.04 0.18,0.03 0.17,0.04 0.18,0.07 0.18,0.08 0.18,0.04 0.18,0.07 0.17,0.07 0.18,0.08 0.18,0.12 0.18,0.04 0.17,0.06 0.18,0.06 0.18,0.08 0.18,0.06 0.18,0.06 0.17,0.08 0.18,0.07 0.18,0.11 0.18,0.06 0.17,0.07 0.18,0.07 0.18,0.07 0.18,0.05 0.18,0.1 0.17,0.06 0.18,0.05 0.18,0.03 0.18,0.03 0.17,0.09 0.18,0.04 0.18,0.05 0.18,0.06 0.18,0.04 0.17,0.09 0.18,0.07 0.18,0.04 0.18,0.05 0.17,0.08 0.18,0.03 0.18,0.05 0.18,0.05 0.18,0.09 0.17,0.05 0.18,0.06 0.18,0.06 0.18,0.05 0.17,0.08 0.18,0.07 0.18,0.07 0.18,0.06 0.18,0.07 0.17,0.06 0.18,0.08 0.18,0.01 0.18,0.07 0.17,0.06 0.18,0.09 0.18,0.04 0.18,0.07 0.18,0.04 0.17,0.08 0.18,0.03 0.18,0.04 0.18,0.03 0.17,0.02 0.18,0.03 0.18,0.03 0.18,0.08 0.18,0.08 0.17,0.06 0.18,0.07 0.18,0.03 0.18,0.05 0.17,0.07 0.18,0.04 0.18,0.06 0.18,0.06 0.18,0.09 0.17,0.01 0.18,0.03 0.18,0.1 0.18,0.05 0.17,0.08 0.18,0.04 0.18,0.04 0.18,0.08 0.18,0.04 0.17,0.1 0.18,0.04 0.18,0.03 0.18,0.06 0.17,0.05 0.18,0.09 0.18,0.06 0.18,0.05 0.18,0.04 0.17,0.05 0.18,0.04 0.18,0.04 0.18,0.08 0.17,0.05 0.18,0.05 0.18,0.05 0.18,0.06 0.18,0.05 0.17,0.03 0.18,0.03 0.18,0.07 0.18,0.01 0.17,0.06 0.18,0.07 0.18,0.04 0.18,0.03 0.18,0.05 0.17,0.1 0.18,0.06 0.18,0.08 0.18,0.06 0.17,0.04 0.18,0.04 0.18,0.06 0.18,0.06 0.18,0.04 0.17,0.04 0.18,0.03 0.18,0.06 0.18,0.04 0.17,0.03 0.18,0.05 0.18,0.05 0.18,0.07 0.18,0.07 0.17,0.05 0.18,0.05 0.18,0.05 0.18,0.06 0.17,0.04 0.18,0.01 0.18,0.06 0.18,0.02 0.18,0.07 0.17,0.04 0.18,0.05 0.18,0.05 0.18,0.04 0.17,0.06 0.18,0.03 0.18,0.05 0.18,0.05 0.18,0.05 0.17,0.07 0.18,0.04 0.18,0.04 0.18,0.01 0.17,0.07 0.18,0.06 0.18,0.08 0.18,0.06 0.18,0.06 0.17,0.05 0.18,0.04 0.18,0.05 0.18,0.05 0.17,0.04 0.18,0.08 0.18,0.02 0.18,0.05 0.18,0.05 0.17,0.04 0.18,0.06 0.18,0.04 0.18,0.05 0.17,0.04 0.18,0.02 0.18,0.03 0.18,0.04 0.18,0.02 0.17,0.02 0.18,0.08 0.18,0.06 0.18,0.02 0.17,0.04 0.18,0.04 0.18,0.07 0.18,0.05 0.18,0.09 0.17,0.03 0.18,0.07 0.18,0.04 0.18,0.04 0.17,0.06 0.18,0.05 0.18,0.07 0.18,0.06 0.18,0.06 0.17,0.05 0.18,0.06 0.18,0.04 0.18,0.06 0.17,0.03 0.18,0.03 0.18,0.08 0.18,0.05 0.18,0.02 0.17,0.05 0.18,0.08 0.18,0.03 0.18,0.04 0.17,0.07 0.18,0.04 0.18,0.07 0.18,0.05 0.18,0.04 0.17,0.01 0.18,0.07 0.18,0.05 0.18,0.06 0.17,0.06 0.18,0.02 0.18,0.03 0.18,0.03 0.18,0.05 0.17,0.04 0.18,0.03 0.18,0.04 0.18,0.05 0.17,0.03 0.18,0.06 0.18,0.04 0.18,0.05 0.18,0.04 0.17,0.01 0.18,0.06 0.18,0.04 0.18,0.03 0.17,0.05 0.18,0.05 0.18,0.06 0.18,0.03 0.18,0.06 0.17,0.04 0.18,0.03 0.18,0.07 0.18,0.03 0.17,0.04 0.18,0.05 0.18,0.01 0.18,0.08 0.18,0.04 0.17,0.05 0.18,0.07 0.18,0.05 0.18,0.05 0.17,0.06 0.18,0.06 0.18,0.03 0.18,0.03 0.18,0.02 0.17,0.03 0.18,0.01 0.18,0.07 0.18,0.04 0.17,0.04 0.18,0.03 0.18,0.06 0.18,0.05 0.18,0.04 0.17,0.06 0.18,0.04 0.18,0.06 0.18,0.01 0.17,0.05 0.18,0.04 0.18,0.02 0.18,0.03 0.18,0.03 0.17,0.02 0.18,0.03 0.18,0.02 0.18,0.06 0.17,0.03 0.18,0.04 0.18,0.07 0.18,0.02 0.18,0.02 0.17,0.06 0.18,0.05 0.18,0.04 0.18,0.03 0.17,0.02 0.18,0.05 0.18,0.05 0.18,0.04 0.18,0.07 0.17,0.03 0.18,0.03 0.18,0.02 0.18,0.09 0.17,0.04 0.18,0.04 0.18,0.03 0.18,0.04 0.18,0.07 0.17,0.05 0.18,0.03 0.18,0.03 0.18,0.04 0.17,0.01 0.18,0.07 0.18,0.08 0.18,0.03 0.18,0.04 0.17,0.04 0.18,0.05 0.18,0.04 0.18,0.05 0.17,0.06 0.18,0.02 0.18,0.03 0.18,0.06 0.18,0.01 0.17,0.05 0.18,0.06 0.18,0.03 0.18,0.03 0.17,0.03 0.18,0.06 0.18,0.03 0.18,0.04 0.18,0.04 0.17,0.02 0.18,0.06 0.18,0.08 0.18,0.03 0.17,0.02 0.18,0.01 0.18,0.05 0.18,0.03 0.18,0.02 0.17,0.03 0.18,0.04 0.18,0.03 0.18,0.04 0.17,0.04 0.18,0.04 0.18,0.03 0.18,0.01 0.18,0.02 0.17,0.05 0.18,0.05 0.18,0.05 0.18,0.08 0.17,0.03 0.18,0.07 0.18,0.06 0.18,0.03 0.18,0.06 0.17,0.04 0.18,0.05 0.18,0.02 0.18,0.02 0.17,0.03 0.18,0.06 0.18,0.05 0.18,0.05 0.18,0.04 0.17,0.05 0.18,0.05 0.18,0.04 0.18,0.02 0.17,0.05 0.18,0.02 0.18,0.06 0.18,0.04 0.18,0.03 0.17,0.04 0.18,0.01 0.18,0.06 0.18,0.04 0.17,0.05 0.18,0.02 0.18,0.04 0.18,0.02 0.18,0.03 0.17,0.03 0.18,0.04 0.18,0.02 0.18,0.04 0.17,0.04 0.18,0.06 0.18,0.01 0.18,0.02 0.18,0.02 0.17,0.05 0.18,0.07 0.18,0.03 0.18,0.05 0.17,0.04 0.18,0.04 0.18,0.05 0.18,0.03 0.18,0.03 0.17,0.03 0.18,0.06 0.18,0.04 0.18,0.07 0.17,0.04 0.18,0.07 0.18,0.05 0.18,0.02 0.18,0.07 0.17,0.05 0.18,0.04 0.18,0.01 0.18,0.05 0.17,0.03 0.18,0.01 0.18,0.05 0.18,0.07 0.18,0 0.17,0.04 0.18,0.03 0.18,0.02 0.18,0.03 0.17,0.04 0.18,0.05 0.18,0.04 0.18,0.01 0.18,0.03 0.17,0.06 0.18,0.03 0.18,0.02 0.18,0.02 0.17,0.04 0.18,0.04 0.18,0.03 0.18,0.07 0.18,0.03 0.17,0.03 0.18,0.02 0.18,0.03 0.18,0.05 0.17,0.05 0.18,0.05 0.18,0.03 0.18,0.05 0.18,0 0.17,0.06 0.18,0.04 0.18,0.05 0.18,0.05 0.17,0.04 0.18,0.03 0.18,0.02 0.18,0.02 0.18,0.02 0.17,0.08 0.18,0.02 0.18,0.07 0.18,0.05 0.17,0.07 0.18,0.02 0.18,0.03 0.18,0.04 0.18,0.05 0.17,0.04 0.18,0.04 0.18,0.01 0.18,0.03 0.17,0.03 0.18,0.03 0.18,0.05 0.18,0.02 0.18,0.04 0.17,0.02 0.18,0.03 0.18,0.04 0.18,0.01 0.17,0.01 0.18,0.04 0.18,0.03 0.18,0.04 0.18,0.02 0.17,0.02 0.18,0.04 0.18,0.01 0.18,0.04 0.17,0.02 0.18,0.05 0.18,0.06 0.18,0.04 0.18,0.05 0.17,0.06 0.18,0 0.18,0.02 0.18,0.07 0.17,0.02 0.18,0.03 0.18,0.03 0.18,0.03 0.18,0.03 0.17,0.03 0.18,0.07 0.18,0.03 0.18,0.02 0.17,0.02 0.18,0.02 0.18,0.04 0.18,0.05 0.18,0.06 0.17,0.05 0.18,0.04 0.18,0.05 0.18,0.06 0.17,0.03 0.18,0.02 0.18,0.03 0.18,0.03 0.18,0.04 0.17,0.04 0.18,0.03 0.18,0.04 0.18,0.02 0.17,0.03 0.18,0.03 0.18,0.05 0.18,0.05 0.18,0.04 0.17,0.05 0.18,0.01 0.18,0.08 0.18,0.03 0.17,0.02 0.18,0.03 0.18,0.02 0.18,0.03 0.18,0.05 0.17,0.04 0.18,0.05 0.18,0.04 0.18,0.04 0.17,0.04 0.18,0.04 0.18,0.02 0.18,0.05 0.18,0.05 0.17,0.03 0.18,0.01 0.18,0.05 0.18,0 0.17,0.04 0.18,0.02 0.18,0.03 0.18,0.04 0.18,0.02 0.17,0.02 0.18,0.01 0.18,0.05 0.18,0.01 0.17,0.04 0.18,0.03 0.18,0.05 0.18,0.04 0.18,0.05 0.17,0.01 0.18,0.07 0.18,0.02 0.18,0.06 0.17,0.05 0.18,0.05 0.18,0.06 0.18,0.02 0.18,0.07 0.17,0.06 0.18,0.03 0.18,0.01 0.18,0.05 0.17,0 0.18,0.03 0.18,0.07 0.18,0.05 0.18,0.06 0.17,0.05 0.18,0.04 0.18,0.05 0.18,0.06 0.17,0.04 0.18,0.04 0.18,0.04 0.18,0.03 0.18,0.02 0.17,0.04 0.18,0.03 0.18,0.01 0.18,0.03 0.17,0.02 0.18,0.03 0.18,0.05 0.18,0.03 0.18,0.02 0.17,0.02 0.18,0.04 0.18,0.05 0.18,0.03 0.17,0.03 0.18,0.04 0.18,0.04 0.18,0.04 0.18,0 0.17,0.05 0.18,0.03 0.18,0.01 0.18,0 0.17,0.06 0.18,0.03 0.18,0.03 0.18,0.04 0.18,0.05 0.17,0.04 0.18,0.02 0.18,0.03 0.18,0.03 0.17,0.03 0.18,0.01 0.18,0.02 0.18,0.02 0.18,0.01 0.17,0.02 0.18,0.06 0.18,0.04 0.18,0.03 0.17,0.04 0.18,0.07 0.18,0.03 0.18,0.05 0.18,0.04 0.17,0.04 0.18,0.03 0.18,0.05 0.18,0.02 0.17,0 0.18,0.06 0.18,0.02 0.18,0.03 0.18,0.02 0.17,0.02 0.18,0.06 0.18,0.01 0.18,0.04 0.17,0.01 0.18,0.05 0.18,0 0.18,0.03 0.18,0.02 0.17,0.02 0.18,0.04 0.18,0.03 0.18,0.01 0.17,0.03 0.18,0.03 0.18,0.02 0.18,0.04 0.18,0.06 0.17,0.03 0.18,0.04 0.18,0.04 0.18,0.04 0.17,0.01 0.18,0.02 0.18,0.05 0.18,0.03 0.18,0.02 0.17,0.03 0.18,0.05 0.18,0.03 0.18,0.03 0.17,0.04 0.18,0.02 0.18,0.04 0.18,0.01 0.18,0.04 0.17,0.02 0.18,0.03 0.18,0.04 0.18,0.06 0.17,0.04 0.18,0.03 0.18,0.01 0.18,0.02 0.18,0.01 0.17,0.04 0.18,0.02 0.18,0.02 0.18,0.03 0.17,0.02 0.18,0.01 0.18,0.04 0.18,0.02 0.18,0.04 0.17,0.04 0.18,0.03 0.18,0.04 0.18,0.06 0.17,0.06 0.18,0.03 0.18,0.03 0.18,0.05 0.18,0.03 0.17,0.02 0.18,0.08 0.18,0.06 0.18,0.02 0.17,0.02 0.18,0.05 0.18,0.03 0.18,0.04 0.18,0.02 0.17,0.03 0.18,0.06 0.18,0.01 0.18,0.01 0.17,0.03 0.18,0.05 0.18,0 0.18,0.04 0.18,0.02 0.17,0.04 0.18,0.03 0.18,0.02 0.18,0.01 0.17,0.05 0.18,0.02 0.18,0.01 0.18,0.02 0.18,0.01 0.17,0.03 0.18,0.04 0.18,0.03 0.18,0.02 0.17,0.03 0.18,0.03 0.18,0.03 0.18,0.02 0.18,0.02 0.17,0.04 0.18,0.02 0.18,0.02 0.18,0.02 0.17,0.06 0.18,0.01 0.18,0.05 0.18,0.03 0.18,0.01 0.17,0.04 0.18,0.03 0.18,0.01 0.18,0.02 0.17,0.01 0.18,0.03 0.18,0.02 0.18,0.04 0.18,0.04 0.17,0.03 0.18,0.04 0.18,0.02 0.18,0.04 0.17,0.03 0.18,0.02 0.18,0.04 0.18,0.04 0.18,0.04 0.17,0.03 0.18,0.01 0.18,0.01 0.18,0.02 0.17,0.04 0.18,0.03 0.18,0.02 0.18,0 0.18,0.02 0.17,0.04 0.18,0.05 0.18,0.01 0.18,0.01 0.17,0.03 0.18,0.03 0.18,0.05 0.18,0.03 0.18,0.02 0.17,0.02 0.18,0.02 0.18,0.04 0.18,0.03 0.17,0.03 0.18,0.02 0.18,0.04 0.18,0 0.18,0.03 0.17,0.01 0.18,0.03 0.18,0.03 0.18,0.02 0.17,0.02 0.18,0.02 0.18,0.01 0.18,0.01 0.18,0.01 0.17,0.01 0.18,0.01 0.18,0.02 0.18,0.02 0.17,0.03 0.18,0.03 0.18,0.01 0.18,0 0.18,0 0.17,0.02 0.18,0.01 0.18,0.03 0.18,0.01 0.17,0.01 0.18,0.04 0.18,0 0.18,0.02 0.18,0.01 0.17,0.02 0.18,0 0.18,0 0.18,0 0.17,0 0.18,0.02 0.18,0.02 0.18,0.01 0.18,0 0.17,0 0.18,0 0.18,0.01 0.18,0 0.17,0 0.18,0.01 0.18,0 0.18,0 0.18,0.01 0.17,0 0.18,0 0.18,0 0.18,0 0.17,0 0.18,0 0.18,0 0.18,0 0.18,0 0.17,0 0.18,0 0.18,0 0.18,0 0.17,0 0.18,0 0.18,0 0.18,0 0.18,0 0.17,0 0.18,0 0.18,0 0.18,0 0.17,0 0.18,0 0.18,0 0.18,0 0.18,0 0.17,0 0.18,0 0.18,0 0.18,0 0.17,0 0.18,0 0.18,0"
       style="fill:none;stroke:#0000ff;stroke-width:1;stroke-linecap:round;stroke-linejoin:round;stroke-miterlimit:10;stroke-dasharray:none;stroke-opacity:1"
       id="path136"
       inkscape:connector-curvature="0"
       inkscape:export-filename="E:\Dropbox\research\with_dropbox\papers and projects\2017\Sex movement after separation\170829_Sim1.png"
       inkscape:export-xdpi="1000"
       inkscape:export-ydpi="1000" /><path
       d="m 327.1854,617.3211 130.29214,0 0,-83.93947 -130.29214,0 0,83.93947 z"
       style="fill:#ffffff;fill-opacity:1;fill-rule:nonzero;stroke:#000000;stroke-width:1;stroke-linecap:round;stroke-linejoin:round;stroke-miterlimit:10;stroke-dasharray:none;stroke-opacity:1"
       id="path138"
       inkscape:connector-curvature="0"
       inkscape:export-filename="E:\Dropbox\research\with_dropbox\papers and projects\2017\Sex movement after separation\170829_Sim1.png"
       inkscape:export-xdpi="1000"
       inkscape:export-ydpi="1000" /><path
       d="m 339.326,587.52223 21.6,0"
       style="fill:none;stroke:#000000;stroke-width:1;stroke-linecap:round;stroke-linejoin:round;stroke-miterlimit:10;stroke-dasharray:none;stroke-opacity:1"
       id="path140"
       inkscape:connector-curvature="0"
       inkscape:export-filename="E:\Dropbox\research\with_dropbox\papers and projects\2017\Sex movement after separation\170829_Sim1.png"
       inkscape:export-xdpi="1000"
       inkscape:export-ydpi="1000" /><path
       d="m 339.326,573.12223 21.6,0"
       style="fill:none;stroke:#ff0000;stroke-width:1;stroke-linecap:round;stroke-linejoin:round;stroke-miterlimit:10;stroke-dasharray:none;stroke-opacity:1"
       id="path142"
       inkscape:connector-curvature="0"
       inkscape:export-filename="E:\Dropbox\research\with_dropbox\papers and projects\2017\Sex movement after separation\170829_Sim1.png"
       inkscape:export-xdpi="1000"
       inkscape:export-ydpi="1000" /><path
       d="m 339.326,558.72223 21.6,0"
       style="fill:none;stroke:#00cd00;stroke-width:1;stroke-linecap:round;stroke-linejoin:round;stroke-miterlimit:10;stroke-dasharray:none;stroke-opacity:1"
       id="path144"
       inkscape:connector-curvature="0"
       inkscape:export-filename="E:\Dropbox\research\with_dropbox\papers and projects\2017\Sex movement after separation\170829_Sim1.png"
       inkscape:export-xdpi="1000"
       inkscape:export-ydpi="1000" /><path
       d="m 339.326,544.32223 21.6,0"
       style="fill:none;stroke:#0000ff;stroke-width:1;stroke-linecap:round;stroke-linejoin:round;stroke-miterlimit:10;stroke-dasharray:none;stroke-opacity:1"
       id="path146"
       inkscape:connector-curvature="0"
       inkscape:export-filename="E:\Dropbox\research\with_dropbox\papers and projects\2017\Sex movement after separation\170829_Sim1.png"
       inkscape:export-xdpi="1000"
       inkscape:export-ydpi="1000" /><text
       transform="scale(1,-1)"
       style="font-variant:normal;font-weight:normal;font-size:12px;font-family:Helvetica;-inkscape-font-specification:Helvetica;writing-mode:lr-tb;fill:#000000;fill-opacity:1;fill-rule:nonzero;stroke:none;stroke-width:1;stroke-miterlimit:10;stroke-dasharray:none"
       id="text148"
       x="371.72601"
       y="-583.21222"
       inkscape:export-filename="E:\Dropbox\research\with_dropbox\papers and projects\2017\Sex movement after separation\170829_Sim1.png"
       inkscape:export-xdpi="1000"
       inkscape:export-ydpi="1000"><tspan
         sodipodi:role="line"
         id="tspan150"
         x="371.72601"
         y="-583.21222">before - before</tspan></text>
<text
       transform="scale(1,-1)"
       style="font-variant:normal;font-weight:normal;font-size:12px;font-family:Helvetica;-inkscape-font-specification:Helvetica;writing-mode:lr-tb;fill:#000000;fill-opacity:1;fill-rule:nonzero;stroke:none;stroke-width:1;stroke-miterlimit:10;stroke-dasharray:none"
       id="text152"
       x="371.72601"
       y="-568.81226"
       inkscape:export-filename="E:\Dropbox\research\with_dropbox\papers and projects\2017\Sex movement after separation\170829_Sim1.png"
       inkscape:export-xdpi="1000"
       inkscape:export-ydpi="1000"><tspan
         sodipodi:role="line"
         id="tspan154"
         x="371.72601"
         y="-568.81226">before - after</tspan></text>
<text
       transform="scale(1,-1)"
       style="font-variant:normal;font-weight:normal;font-size:12px;font-family:Helvetica;-inkscape-font-specification:Helvetica;writing-mode:lr-tb;fill:#000000;fill-opacity:1;fill-rule:nonzero;stroke:none;stroke-width:1;stroke-miterlimit:10;stroke-dasharray:none"
       id="text156"
       x="371.72601"
       y="-554.41223"
       inkscape:export-filename="E:\Dropbox\research\with_dropbox\papers and projects\2017\Sex movement after separation\170829_Sim1.png"
       inkscape:export-xdpi="1000"
       inkscape:export-ydpi="1000"><tspan
         sodipodi:role="line"
         id="tspan158"
         x="371.72601"
         y="-554.41223">after - before</tspan></text>
<text
       transform="scale(1,-1)"
       style="font-variant:normal;font-weight:normal;font-size:12px;font-family:Helvetica;-inkscape-font-specification:Helvetica;writing-mode:lr-tb;fill:#000000;fill-opacity:1;fill-rule:nonzero;stroke:none;stroke-width:1;stroke-miterlimit:10;stroke-dasharray:none"
       id="text160"
       x="371.72601"
       y="-540.01227"
       inkscape:export-filename="E:\Dropbox\research\with_dropbox\papers and projects\2017\Sex movement after separation\170829_Sim1.png"
       inkscape:export-xdpi="1000"
       inkscape:export-ydpi="1000"><tspan
         sodipodi:role="line"
         id="tspan162"
         x="371.72601"
         y="-540.01227">after - after</tspan></text>
<text
       style="font-variant:normal;font-weight:normal;font-size:12px;font-family:Helvetica;-inkscape-font-specification:Helvetica;writing-mode:lr-tb;fill:#000000;fill-opacity:1;fill-rule:nonzero;stroke:none;stroke-width:1;stroke-miterlimit:10;stroke-dasharray:none"
       id="text160-9"
       x="371.38898"
       y="-599.63129"
       transform="scale(1,-1)"
       inkscape:export-filename="E:\Dropbox\research\with_dropbox\papers and projects\2017\Sex movement after separation\170829_Sim1.png"
       inkscape:export-xdpi="1000"
       inkscape:export-ydpi="1000"><tspan
         sodipodi:role="line"
         id="tspan162-6"
         x="371.38898"
         y="-599.63129">male - female</tspan></text>
<text
       xml:space="preserve"
       style="font-style:normal;font-weight:normal;font-size:18px;line-height:125%;font-family:sans-serif;text-align:center;letter-spacing:0px;word-spacing:0px;text-anchor:middle;fill:#000000;fill-opacity:1;stroke:none;stroke-width:1px;stroke-linecap:butt;stroke-linejoin:miter;stroke-opacity:1"
       x="315.60931"
       y="-439.59869"
       id="text4384"
       sodipodi:linespacing="125%"
       transform="scale(1,-1)"
       inkscape:export-filename="E:\Dropbox\research\with_dropbox\papers and projects\2017\Sex movement after separation\170829_Sim1.png"
       inkscape:export-xdpi="1000"
       inkscape:export-ydpi="1000"><tspan
         sodipodi:role="line"
         id="tspan4386"
         x="315.60931"
         y="-439.59869"
         style="font-size:13px">Time (sec)</tspan></text>
<text
       xml:space="preserve"
       style="font-style:normal;font-weight:normal;font-size:18px;line-height:125%;font-family:sans-serif;text-align:center;letter-spacing:0px;word-spacing:0px;text-anchor:middle;fill:#000000;fill-opacity:1;stroke:none;stroke-width:1px;stroke-linecap:butt;stroke-linejoin:miter;stroke-opacity:1"
       x="617.65985"
       y="84.427956"
       id="text4384-6"
       sodipodi:linespacing="125%"
       transform="matrix(0,1,1,0,0,0)"
       inkscape:export-filename="E:\Dropbox\research\with_dropbox\papers and projects\2017\Sex movement after separation\170829_Sim1.png"
       inkscape:export-xdpi="1000"
       inkscape:export-ydpi="1000"><tspan
         sodipodi:role="line"
         id="tspan4386-7"
         x="617.65985"
         y="84.427956"
         style="font-size:13px">Encounter rate</tspan></text>
</g></svg>